<?xml version="1.0" standalone="no"?>
<!DOCTYPE svg PUBLIC "-//W3C//DTD SVG 1.1//EN" "http://www.w3.org/Graphics/SVG/1.1/DTD/svg11.dtd" >
<svg xmlns="http://www.w3.org/2000/svg" xmlns:xlink="http://www.w3.org/1999/xlink" version="1.1">
<metadata>
Created by FontForge 20170731 at Mon Mar  6 21:26:12 2023
 By Aleksey,,,
Copyright 2021-2023, Dmitri Voloshin, Andrey Kudryavtsev
</metadata>
<defs>
<font id="Onest-Regular" horiz-adv-x="0" >
  <font-face 
    font-family="Onest"
    font-weight="400"
    font-stretch="normal"
    units-per-em="1000"
    panose-1="2 11 5 3 3 0 0 2 0 4"
    ascent="800"
    descent="-200"
    x-height="527"
    cap-height="707"
    bbox="-448 -334 2853 982"
    underline-thickness="50"
    underline-position="-150"
    unicode-range="U+000D-E022"
  />
<missing-glyph horiz-adv-x="540" 
d="M20 960h500v-1255h-500v1255zM30 -285h480v1235h-480v-1235z" />
    <glyph glyph-name=".notdef" horiz-adv-x="540" 
d="M20 960h500v-1255h-500v1255zM30 -285h480v1235h-480v-1235z" />
    <glyph glyph-name="uni0000" 
 />
    <glyph glyph-name="uni0000" 
 />
    <glyph glyph-name="uni000D" unicode="&#xd;" horiz-adv-x="189" 
 />
    <glyph glyph-name="space" unicode=" " horiz-adv-x="270" 
 />
    <glyph glyph-name="exclam" unicode="!" horiz-adv-x="273" 
d="M99 220l-12 487h97l-12 -487h-73zM136 112q25 0 42.5 -17t17.5 -43t-17.5 -43t-42.5 -17q-26 0 -42.5 17t-16.5 43t16.5 43t42.5 17z" />
    <glyph glyph-name="quotedbl" unicode="&#x22;" horiz-adv-x="359" 
d="M134 471h-62l-13 236h88zM287 471h-62l-13 236h88z" />
    <glyph glyph-name="numbersign" unicode="#" horiz-adv-x="653" 
d="M193 527l18 180h85l-19 -180h136l20 180h84l-19 -180h96v-79h-105l-20 -189h96v-80h-105l-19 -179h-84l19 179h-137l-19 -179h-85l20 179h-96v80h104l21 189h-96v79h105zM247 259h137l21 189h-137z" />
    <glyph glyph-name="dollar" unicode="$" horiz-adv-x="656" 
d="M296 844h88v-132q40 -4 74 -17.5t59.5 -36.5t41 -56t17.5 -76h-85q-4 31 -18.5 52t-35.5 34t-47.5 18.5t-55.5 5.5q-28 0 -56.5 -5t-51.5 -17.5t-37.5 -34t-14.5 -54.5q0 -40 20.5 -64t50.5 -37q24 -10 51.5 -17t55.5 -13.5l56 -13t54 -14.5q62 -20 98 -59.5t36 -107.5
q0 -51 -17 -88.5t-46.5 -62.5t-69.5 -38.5t-85 -16.5v-131h-87v133q-42 4 -80 17t-69 36t-52.5 57t-30.5 80h91q10 -34 31 -56t48 -35t58.5 -18t62.5 -5q30 0 58.5 6.5t50.5 20.5t35 36t13 53q0 47 -25 70t-67 35q-28 9 -59 15t-61.5 12.5t-60.5 15.5t-56 23
q-42 22 -68 60.5t-26 98.5q0 49 17.5 84.5t46.5 59.5t67.5 37t80.5 16v130z" />
    <glyph glyph-name="percent" unicode="%" horiz-adv-x="804" 
d="M205 402q-36 0 -63.5 12t-45.5 33.5t-27.5 50t-9.5 61.5q0 34 9.5 62.5t28 49.5t45.5 32.5t63 11.5q70 0 107 -43.5t37 -112.5q0 -33 -9.5 -61.5t-27.5 -50t-45 -33.5t-62 -12zM139 0l435 707h88l-434 -707h-89zM205 644q-40 0 -57 -26t-17 -59q0 -35 17 -60.5t57 -25.5
q38 0 54 26t16 60q0 33 -16 59t-54 26zM601 -6q-36 0 -63.5 12t-46 33.5t-28 50t-9.5 61.5q0 34 9.5 62.5t28.5 49.5t46 32.5t63 11.5q34 0 61 -11.5t45.5 -32.5t28 -49.5t9.5 -62.5q0 -33 -9.5 -61.5t-28 -50t-45.5 -33.5t-61 -12zM600 236q-40 0 -56.5 -26t-16.5 -59
q0 -35 17 -60.5t56 -25.5t54.5 26t15.5 60q0 33 -15.5 59t-54.5 26z" />
    <glyph glyph-name="ampersand" unicode="&#x26;" horiz-adv-x="677" 
d="M483 62q-42 -38 -92.5 -54t-107.5 -16q-43 0 -82 12t-69 35.5t-47.5 59.5t-17.5 84q0 67 39 115t108 83q-78 73 -78 160q0 44 15 76t39 54t56.5 33t75.5 11q72 -2 118 -41.5t46 -114.5q0 -32 -12 -60t-32.5 -52.5t-48 -45t-58.5 -36.5l150 -178q17 23 28 56t16 69h84
q-5 -57 -25 -102.5t-47 -83.5l112 -126h-114zM286 417q18 10 38.5 24t37.5 31t29 37t13 41q2 39 -23.5 62.5t-65.5 23.5q-45 0 -69 -24t-25 -66q0 -21 6.5 -39t16 -34t21 -30t21.5 -26zM259 324q-42 -22 -71.5 -56t-29.5 -83q0 -29 12 -50.5t31.5 -35.5t44.5 -21t51 -7
q34 0 69.5 11t66.5 42z" />
    <glyph glyph-name="quotesingle" unicode="'" horiz-adv-x="222" 
d="M142 471h-62l-13 236h88z" />
    <glyph glyph-name="parenleft" unicode="(" horiz-adv-x="308" 
d="M338 818q-53 -69 -89 -133.5t-58 -128t-31.5 -126.5t-9.5 -128q0 -66 10 -128.5t32.5 -125.5t58 -127t85.5 -133h-92q-45 53 -78.5 116.5t-56 131t-33.5 135.5t-11 131t11.5 131.5t34 136t56.5 131.5t79 117h92z" />
    <glyph glyph-name="parenright" unicode=")" horiz-adv-x="308" 
d="M-30 -212q52 69 88 134t58 128t32 126t10 128q0 66 -10 128.5t-32.5 125.5t-58 127t-85.5 133h92q45 -53 78.5 -116.5t56 -131t33.5 -135.5t11 -131t-11.5 -131.5t-34 -136t-56.5 -131.5t-79 -117h-92z" />
    <glyph glyph-name="asterisk" unicode="*" horiz-adv-x="414" 
d="M236 730v-97l91 30l18 -54l-92 -30l57 -78l-46 -34l-57 78l-57 -78l-46 34l57 78l-92 30l17 54l92 -30v97h58z" />
    <glyph glyph-name="plus" unicode="+" horiz-adv-x="521" 
d="M74 392h147v155h78v-155h148v-77h-148v-155h-78v155h-147v77z" />
    <glyph glyph-name="comma" unicode="," horiz-adv-x="261" 
d="M128 -2q-26 2 -42 17t-16 40q1 26 18.5 41.5t40.5 15.5q29 0 46.5 -21t17.5 -59q0 -21 -8.5 -46.5t-22.5 -46.5t-32.5 -37t-38.5 -23l-24 33q20 14 37.5 38t23.5 48z" />
    <glyph glyph-name="hyphen" unicode="-" horiz-adv-x="458" 
d="M74 321h310v-78h-310v78z" />
    <glyph glyph-name="period" unicode="." horiz-adv-x="254" 
d="M127 112q26 0 43 -17t17 -43t-17 -43t-43 -17t-43 17t-17 43t17 43t43 17z" />
    <glyph glyph-name="slash" unicode="/" horiz-adv-x="477" 
d="M348 801h90l-309 -969h-90z" />
    <glyph glyph-name="zero" unicode="0" horiz-adv-x="665" 
d="M609 353q0 -68 -13.5 -133t-45.5 -115.5t-85 -81.5t-132 -31q-80 0 -133 31t-85 81.5t-45 113.5t-13 135t13 135.5t45 113.5t85 81.5t133 31.5q79 0 132 -31t85 -82t45.5 -116t13.5 -133zM146 353q0 -48 7 -98t27 -91t56.5 -67t96.5 -26q59 0 95.5 26t56.5 67t27 91t7 98
q0 47 -7 97t-27 91.5t-56.5 68t-95.5 26.5q-60 0 -96.5 -26.5t-56.5 -68t-27 -91.5t-7 -97z" />
    <glyph glyph-name="one" unicode="1" horiz-adv-x="363" 
d="M256 0h-87v567h-144v59q30 2 55 5.5t46 12.5t38 24t31 39h61v-707z" />
    <glyph glyph-name="two" unicode="2" horiz-adv-x="566" 
d="M230 247q27 23 59.5 50.5t61 59.5t48.5 67.5t21 77.5q2 64 -37 98.5t-103 34.5q-51 0 -89 -21t-50 -61h-93q7 41 29.5 71.5t55 50.5t71.5 30t80 10q49 0 90 -13.5t71 -39.5t46.5 -64.5t16.5 -87.5t-14.5 -88t-39 -72t-55.5 -62t-64 -58l-179 -151h360v-79h-486v72z" />
    <glyph glyph-name="three" unicode="3" horiz-adv-x="599" 
d="M291 -8q-42 0 -84.5 8t-79 27.5t-62 51.5t-32.5 79h90q9 -26 27.5 -42.5t42 -26.5t49.5 -14t50 -4q22 0 50 4t52.5 17t41 38.5t16.5 67.5q0 40 -15.5 64t-40 37t-55 17t-61.5 4h-68v78h41q27 0 50 1.5t51 13.5q32 15 51 42.5t20 63.5q0 36 -12 59t-32 36t-45 17.5
t-51 4.5q-21 0 -43.5 -4.5t-42 -14.5t-34.5 -26.5t-21 -39.5h-87q6 44 28 75t54.5 51t72 29t80.5 9q45 0 84.5 -9.5t69.5 -31t47.5 -56.5t17.5 -85q0 -19 -4 -40.5t-15 -42.5t-32 -42t-55 -35q67 -13 102 -58.5t35 -109.5v-4q0 -55 -19.5 -94.5t-53.5 -65t-80 -37.5t-98 -12
z" />
    <glyph glyph-name="four" unicode="4" horiz-adv-x="633" 
d="M513 707v-487h83v-79h-83v-141h-87v141h-384v65l346 501h125zM147 220h279v408z" />
    <glyph glyph-name="five" unicode="5" horiz-adv-x="616" 
d="M82 318l32 389h423v-80h-345l-20 -222q27 22 66 35.5t96 13.5q51 0 93 -16t72 -45.5t46.5 -71.5t16.5 -93q0 -56 -19.5 -99.5t-53.5 -74.5t-80.5 -47t-100.5 -16q-44 0 -84.5 10t-73.5 30.5t-56 52.5t-32 76h88q8 -21 24 -37.5t36.5 -28t43.5 -17.5t46 -6q36 0 67.5 9
t55 27.5t36.5 47t13 68.5q0 73 -44 112t-114 39q-42 0 -77.5 -15t-64.5 -41h-90z" />
    <glyph glyph-name="six" unicode="6" horiz-adv-x="623" 
d="M142 351q34 52 86 76t110 24q54 0 95.5 -17t71.5 -46t47 -70t17 -91q0 -53 -18 -96t-50 -74t-76.5 -48t-96.5 -17q-74 0 -125 26.5t-83 71t-46.5 103.5t-15.5 124q0 81 12 147.5t43.5 122t86.5 92t140 36.5q38 0 73 -10t64 -29.5t51 -48.5t34 -66h-91q-18 37 -55 56
t-77 19q-57 0 -95 -27t-60.5 -69t-32 -92.5t-9.5 -96.5zM480 218q0 33 -11 60.5t-30.5 48t-47.5 32t-61 11.5q-32 0 -60.5 -10.5t-50.5 -30t-35.5 -47.5t-13.5 -62q0 -32 12 -59t33 -47t49.5 -31.5t61.5 -11.5t61.5 11.5t49 31t32 46.5t11.5 58z" />
    <glyph glyph-name="seven" unicode="7" horiz-adv-x="505" 
d="M100 0l286 627h-374v80h470v-72l-286 -635h-96z" />
    <glyph glyph-name="eight" unicode="8" horiz-adv-x="622" 
d="M565 197q0 -57 -22 -96.5t-57.5 -63.5t-81 -34.5t-93.5 -10.5t-93.5 10.5t-81.5 34.5t-57.5 63.5t-21.5 96.5q0 60 31 103.5t86 64.5q-30 14 -49 34t-29.5 42.5t-14 45t-3.5 41.5q0 49 20 84.5t52.5 58.5t74.5 33.5t86 10.5t86 -10.5t74.5 -33.5t52.5 -58.5t20 -84.5
q0 -19 -4 -41.5t-14.5 -44t-29.5 -41t-49 -33.5q57 -21 87.5 -66t30.5 -105zM311 636q-30 0 -56 -7t-45.5 -21.5t-30.5 -37t-11 -54.5q0 -33 12 -55t32 -36t45.5 -21t53.5 -7t53.5 7t45 21t31.5 36t13 51q0 34 -11.5 57.5t-31 38.5t-45.5 21.5t-55 6.5zM311 320
q-31 0 -60.5 -6.5t-53 -21.5t-37.5 -38.5t-14 -57.5q0 -39 17 -63t42 -38t53.5 -19t52.5 -5t52.5 5t53 19t41.5 38t17 63q0 34 -14 57.5t-37 38.5t-52.5 21.5t-60.5 6.5z" />
    <glyph glyph-name="nine" unicode="9" horiz-adv-x="620" 
d="M481 365q-14 -29 -36 -49.5t-49 -33.5t-56.5 -18.5t-59.5 -5.5q-47 0 -88 14.5t-71.5 42.5t-48.5 69t-18 95q0 53 18 96.5t50.5 74.5t76.5 48t101 17q78 0 129 -34.5t81 -88.5t42 -121t12 -132q0 -72 -16.5 -140.5t-53.5 -116.5q-32 -42 -83.5 -66t-123.5 -24
q-38 0 -74.5 9.5t-66.5 29t-52 48t-32 67.5h96q17 -38 57.5 -56.5t81.5 -18.5q49 1 83 20t55 51q15 23 24 51.5t14 56t6.5 52.5t1.5 41v22zM143 487q0 -70 40.5 -109t109.5 -40q32 0 60.5 10t50 29t34 45.5t12.5 58.5q0 34 -11.5 62.5t-32 49t-48.5 32t-61 11.5t-61.5 -12
t-49 -32t-32 -47t-11.5 -58z" />
    <glyph glyph-name="colon" unicode=":" horiz-adv-x="253" 
d="M126 468q27 0 43.5 -17t16.5 -43q0 -27 -17.5 -43.5t-42.5 -16.5q-26 0 -42.5 17t-16.5 43t16.5 43t42.5 17zM126 112q27 0 43.5 -17t16.5 -43t-17.5 -43t-42.5 -17q-26 0 -42.5 17t-16.5 43t16.5 43t42.5 17z" />
    <glyph glyph-name="semicolon" unicode=";" horiz-adv-x="261" 
d="M133 468q26 0 43 -17t17 -43q0 -27 -17 -43.5t-43 -16.5t-42.5 17t-16.5 43t16.5 43t42.5 17zM128 -3q-26 2 -42 17t-16 40q0 28 18 43.5t44 14.5q32 -2 47 -26.5t14 -56.5q0 -23 -8.5 -46.5t-22.5 -44.5t-32.5 -37t-38.5 -23l-24 33q20 14 37.5 38t23.5 48z" />
    <glyph glyph-name="less" unicode="&#x3c;" horiz-adv-x="446" 
d="M39 372l338 230v-93l-241 -158l241 -159v-93l-338 230v43z" />
    <glyph glyph-name="equal" unicode="=" horiz-adv-x="542" 
d="M69 522h404v-78h-404v78zM69 263h404v-78h-404v78z" />
    <glyph glyph-name="greater" unicode="&#x3e;" horiz-adv-x="446" 
d="M407 329l-338 -230v93l241 159l-241 158v93l338 -230v-43z" />
    <glyph glyph-name="question" unicode="?" horiz-adv-x="513" 
d="M191 213q-1 5 -1 10.5v10.5q0 24 6 48t30 51q10 12 23 24.5t26.5 25.5l27 26t24.5 25q19 22 31.5 48t12.5 51q0 51 -32.5 76t-84.5 27q-21 0 -41.5 -4t-38.5 -13.5t-31 -25t-18 -37.5h-88q5 40 25 70t49.5 49.5t66 29.5t75.5 10q42 0 79 -11t65 -33t44.5 -54t16.5 -80
q-1 -46 -19 -83t-49 -70q-11 -11 -25 -24t-28 -27t-26.5 -28t-19.5 -26q-8 -13 -10.5 -29t-2.5 -29v-8h-87zM233 112q26 0 43 -17t17 -43t-17 -43t-43 -17t-42.5 17t-16.5 43t16.5 43t42.5 17z" />
    <glyph glyph-name="at" unicode="@" horiz-adv-x="983" 
d="M615 119q-15 -24 -33 -39.5t-38 -25t-41 -13t-45 -3.5q-47 1 -79.5 19.5t-52.5 47t-29 64t-9 70.5q0 55 15 98.5t41.5 76.5t65 52.5t88.5 19.5q40 -1 74 -17t51 -55l27 52l55 -6q-9 -55 -16 -110.5t-12 -110.5q-2 -23 -2 -46t5.5 -42.5t19 -32t38.5 -13.5q33 0 51 21.5
t27.5 51.5t13 62t3.5 54q0 70 -19.5 132t-58.5 108.5t-97 73t-136 26.5q-90 0 -157.5 -31t-113 -84.5t-68.5 -125.5t-23 -153q0 -73 22.5 -135t65 -107.5t104.5 -71t140 -25.5q18 0 30.5 0.5t24 2l23 3t27.5 4.5l7 -84q-18 -4 -32 -6t-28 -3.5t-29 -2.5t-33 -1
q-98 0 -174.5 32.5t-129.5 89t-80.5 132.5t-27.5 164q0 107 29.5 194t86.5 151.5t141.5 101t194.5 36.5q94 0 167 -32t123 -87.5t76 -130.5t26 -161q0 -41 -6 -88t-25.5 -88t-55 -68t-94.5 -27q-48 0 -78 24t-40 62zM370 241q0 -17 3.5 -39t14.5 -42t31.5 -34.5t53.5 -15.5
q33 0 55 14t37.5 36t25 48.5t11.5 43t2 21.5v15t-4 31.5t-15.5 41.5t-32.5 34.5t-55 14.5q-32 0 -55 -13.5t-38 -34.5t-24.5 -54t-9.5 -67z" />
    <glyph glyph-name="A" unicode="A" horiz-adv-x="670" 
d="M566 0l-56 152h-350l-56 -152h-94l263 707h125l262 -707h-94zM335 631l-146 -400h292z" />
    <glyph glyph-name="B" unicode="B" horiz-adv-x="655" 
d="M86 707h248q51 0 92.5 -6t74.5 -28q29 -19 49 -54t20 -89t-24.5 -96t-75.5 -62q68 -12 102 -57.5t34 -117.5q-3 -66 -28 -103t-64 -58t-87.5 -28.5t-97.5 -7.5h-243v707zM173 628v-231h136q28 0 58 4t54 17q28 14 45.5 38.5t18.5 67.5q0 34 -12 54.5t-33 31.5t-48 14.5
t-57 3.5h-162zM326 79q32 0 64.5 3t62 15.5t47.5 37t18 66.5q0 36 -13.5 59t-36 36t-51.5 18t-59 5h-185v-240h153z" />
    <glyph glyph-name="C" unicode="C" horiz-adv-x="704" 
d="M372 636q-63 0 -107.5 -23t-73 -62t-41.5 -89.5t-13 -105.5q0 -59 14 -111t43 -90.5t74 -61t107 -22.5q75 0 126 31t66 83h95q-23 -88 -97 -140.5t-192 -52.5q-82 0 -143 27t-101.5 75t-60.5 114t-20 145q0 78 20 144t61 114.5t102 76t144 27.5q58 0 104.5 -14t81 -39.5
t56.5 -61t32 -78.5h-88q-15 52 -64.5 83t-124.5 31z" />
    <glyph glyph-name="D" unicode="D" horiz-adv-x="720" 
d="M87 707h251q82 0 144.5 -25.5t104.5 -72t63 -112t21 -144.5q-1 -79 -22 -144t-62.5 -111.5t-103.5 -72t-145 -25.5h-251v707zM174 628v-549h158q54 0 103.5 16.5t84.5 58.5q32 37 47 87.5t15 111.5q0 63 -15 112t-45 85t-76 57t-109 21h-163z" />
    <glyph glyph-name="E" unicode="E" horiz-adv-x="610" 
d="M87 707h475v-79h-388v-238h349v-80h-349v-231h388v-79h-475v707z" />
    <glyph glyph-name="F" unicode="F" horiz-adv-x="599" 
d="M87 0v707h475v-79h-388v-265h339v-80h-339v-283h-87z" />
    <glyph glyph-name="G" unicode="G" horiz-adv-x="720" 
d="M369 636q-62 0 -106 -22t-72 -60.5t-41 -90t-13 -110.5t14 -110t42.5 -89.5t73 -60.5t106.5 -22q106 0 159 56q31 32 44 69t13 82h-232v79h315v-59q0 -29 -5 -60t-15 -60.5t-25.5 -56t-36.5 -47.5q-40 -38 -94.5 -60t-123.5 -22q-83 0 -143.5 27t-101 74.5t-60 113.5
t-19.5 144t19.5 144.5t59 115t100 76.5t143.5 28q117 0 189 -52.5t95 -140.5h-95q-15 52 -65 83t-125 31z" />
    <glyph glyph-name="H" unicode="H" horiz-adv-x="727" 
d="M553 387v320h87v-707h-87v307h-379v-307h-87v707h87v-320h379z" />
    <glyph glyph-name="I" unicode="I" horiz-adv-x="261" 
d="M174 0h-87v707h87v-707z" />
    <glyph glyph-name="J" unicode="J" horiz-adv-x="558" 
d="M130 195q6 -57 38 -90t98 -34q35 0 58.5 11.5t38 32t20.5 49t6 62.5v481h87v-463q0 -56 -11 -102t-36 -79.5t-65 -52t-98 -18.5q-104 0 -161 49t-63 154h88z" />
    <glyph glyph-name="K" unicode="K" horiz-adv-x="625" 
d="M87 0v707h87v-326h104l231 326h100l-254 -351l256 -356h-103l-222 302h-112v-302h-87z" />
    <glyph glyph-name="L" unicode="L" horiz-adv-x="574" 
d="M87 707h87v-628h388v-79h-475v707z" />
    <glyph glyph-name="M" unicode="M" horiz-adv-x="856" 
d="M87 0v707h132l212 -389l209 389h129v-707h-87v615l-233 -430h-40l-235 430v-615h-87z" />
    <glyph glyph-name="N" unicode="N" horiz-adv-x="741" 
d="M87 0v707h111l369 -589v589h87v-707h-109l-371 587v-587h-87z" />
    <glyph glyph-name="O" unicode="O" horiz-adv-x="761" 
d="M381 -8q-83 0 -145 27.5t-104 75.5t-63 114t-21 144t21 144.5t63 114.5t104 75.5t145 27.5q82 0 144 -27.5t104 -75.5t63 -114.5t21 -144.5t-21 -144t-63 -114t-104 -75.5t-144 -27.5zM381 636q-63 0 -109 -22.5t-76 -61.5t-45 -90.5t-15 -108.5t14.5 -108t44.5 -90
t76.5 -61.5t109.5 -22.5t109 22.5t75.5 61t44 89.5t14.5 109t-14.5 109.5t-44.5 90t-76 61t-108 22.5z" />
    <glyph glyph-name="P" unicode="P" horiz-adv-x="630" 
d="M87 707h245q117 0 183 -57.5t66 -177.5q0 -61 -21.5 -107t-59.5 -76q-32 -26 -80 -41t-106 -15h-140v-233h-87v707zM310 312q38 0 74 9.5t59 30.5q23 20 36 49t13 75q0 152 -164 152h-154v-316h136z" />
    <glyph glyph-name="Q" unicode="Q" horiz-adv-x="761" 
d="M524 19q-62 -27 -143 -27q-83 0 -145 27.5t-104 75.5t-63 114t-21 144t21 144.5t63 114.5t104 75.5t145 27.5q82 0 144 -27.5t104 -75.5t63 -114.5t21 -144.5q0 -91 -29.5 -164.5t-86.5 -122.5l101 -140l-68 -52zM381 636q-63 0 -109 -22.5t-76 -61.5t-45 -90.5
t-15 -108.5t14.5 -108t44.5 -90t76.5 -61.5t109.5 -22.5t109 22.5t75.5 61t44 89.5t14.5 109t-14.5 109.5t-44.5 90t-76 61t-108 22.5z" />
    <glyph glyph-name="R" unicode="R" horiz-adv-x="658" 
d="M174 265v-265h-87v707h265q58 0 105 -12t80 -38t50.5 -68.5t17.5 -102.5q0 -44 -13 -78.5t-34.5 -60t-50.5 -42t-60 -25.5l148 -280h-95l-141 265h-185zM324 344q39 0 73.5 6t60.5 22t41.5 43.5t16.5 73.5q0 76 -44.5 107.5t-128.5 31.5h-169v-284h150z" />
    <glyph glyph-name="S" unicode="S" horiz-adv-x="652" 
d="M332 636q-28 0 -56.5 -5t-51.5 -17.5t-37.5 -34t-14.5 -54.5q0 -40 21 -64.5t51 -37.5q24 -10 51 -17t55.5 -13t56 -12t53.5 -15q61 -21 97.5 -60t36.5 -103q0 -60 -20.5 -99t-55 -64t-80 -36.5t-96.5 -11.5t-97.5 10t-84.5 33t-65 60t-38 90h91q10 -34 31 -56t48 -35
t58.5 -18t62.5 -5q30 0 58.5 6.5t50.5 20.5t35 36t13 53q0 47 -25 70t-67 35q-28 9 -59 15t-62 13t-61 16.5t-55 22.5q-40 19 -67 58.5t-27 99.5q0 56 22 94t57 61t78.5 33t92.5 10q40 -1 72.5 -6.5t61.5 -19.5q45 -20 75 -60t33 -103h-85q-4 31 -18.5 52t-35.5 34
t-47.5 18.5t-55.5 5.5z" />
    <glyph glyph-name="T" unicode="T" horiz-adv-x="569" 
d="M241 0v628h-227v79h541v-79h-227v-628h-87z" />
    <glyph glyph-name="U" unicode="U" horiz-adv-x="726" 
d="M644 707v-402q0 -67 -16 -124t-50.5 -99t-87.5 -66t-127 -24t-127.5 23.5t-87.5 65.5t-50 99t-16 125v402h87v-401q0 -48 10 -91t33 -75t60.5 -50.5t91.5 -18.5t91 18.5t59.5 51t32 75t9.5 90.5v401h88z" />
    <glyph glyph-name="V" unicode="V" horiz-adv-x="683" 
d="M109 707l233 -632l233 632h94l-264 -707h-126l-265 707h95z" />
    <glyph glyph-name="W" unicode="W" horiz-adv-x="983" 
d="M560 707l154 -632l161 632h94l-192 -707h-132l-154 624l-154 -624h-131l-192 707h98l161 -632l154 632h133v0z" />
    <glyph glyph-name="X" unicode="X" horiz-adv-x="593" 
d="M466 707h105l-220 -351l228 -356h-105l-178 283l-180 -283h-102l227 353l-220 354h106l170 -282z" />
    <glyph glyph-name="Y" unicode="Y" horiz-adv-x="614" 
d="M501 707h99l-249 -441v-266h-87v265l-250 442h101l194 -354z" />
    <glyph glyph-name="Z" unicode="Z" horiz-adv-x="597" 
d="M57 628v79h496v-68l-397 -560h390v-79h-502v69l392 559h-379z" />
    <glyph glyph-name="bracketleft" unicode="[" horiz-adv-x="321" 
d="M87 -186v977h199v-72h-116v-833h116v-72h-199z" />
    <glyph glyph-name="backslash" unicode="\" horiz-adv-x="477" 
d="M348 -168l-309 969h90l309 -969h-90z" />
    <glyph glyph-name="bracketright" unicode="]" horiz-adv-x="321" 
d="M234 791v-977h-199v72h116v833h-116v72h199z" />
    <glyph glyph-name="asciicircum" unicode="^" horiz-adv-x="463" 
d="M261 715l143 -203h-86l-87 131l-87 -131h-85l142 203h60z" />
    <glyph glyph-name="underscore" unicode="_" horiz-adv-x="463" 
d="M-3 -97h469v-77h-469v77z" />
    <glyph glyph-name="grave" unicode="`" horiz-adv-x="335" 
d="M149 628l-100 141h92l85 -141h-77z" />
    <glyph glyph-name="a" unicode="a" horiz-adv-x="555" 
d="M414 67q-17 -23 -39 -37t-45.5 -22t-47 -11t-46.5 -3q-37 0 -70 9t-59.5 29t-42 50t-15.5 68q0 45 16.5 75.5t44.5 49.5t64.5 26.5t77.5 7.5h155q0 67 -29 106.5t-98 41.5q-42 0 -74 -14t-44 -46h-91q7 36 28 61.5t50 42t63 24.5t68 8q59 0 99.5 -19.5t65.5 -51t35 -76.5
t10 -101v-285h-71zM314 238h-55.5t-60.5 -6.5t-46.5 -25.5t-17.5 -50q0 -23 9 -39t24.5 -27t35.5 -16t41 -5q75 0 118.5 36.5t44.5 106.5v26h-93z" />
    <glyph glyph-name="b" unicode="b" horiz-adv-x="604" 
d="M67 0v707h85v-258q26 40 74.5 62.5t99.5 21.5q60 0 103.5 -21t72 -57t42 -85.5t13.5 -106.5t-13.5 -105.5t-42.5 -84.5t-73.5 -57t-105.5 -22h-11q-54 0 -93.5 19t-65.5 51l-4 -64h-81zM315 69q43 0 72.5 15.5t48 42t27 61.5t9.5 75q0 40 -8.5 75.5t-27.5 61.5
t-49.5 41.5t-73.5 15.5q-24 0 -47 -8t-41 -21.5t-31.5 -30.5t-22.5 -36q-11 -23 -16 -49t-5 -50q0 -26 3.5 -53.5t15.5 -50.5q18 -38 55 -63.5t91 -25.5z" />
    <glyph glyph-name="c" unicode="c" horiz-adv-x="553" 
d="M292 -6q-63 0 -109 20t-76 56t-45 85t-15 107q0 56 16 105.5t47 86t78 58t114 21.5q40 0 71 -8.5t58.5 -27t47.5 -48.5t29 -73h-87q-15 44 -47.5 63t-76.5 18q-43 0 -75.5 -16.5t-52 -43.5t-28.5 -62.5t-9 -72.5q0 -39 9.5 -74t29 -61.5t50.5 -42t74 -15.5q21 0 41.5 4
t38 13.5t30.5 25.5t19 39h88q-8 -41 -28.5 -70.5t-50.5 -49t-66 -28.5t-75 -9z" />
    <glyph glyph-name="d" unicode="d" horiz-adv-x="604" 
d="M537 0h-81l-4 79q-27 -45 -74.5 -65t-99.5 -20q-60 1 -104 21.5t-72 56.5t-41.5 84.5t-13.5 105.5t14 106.5t43 86t73 57.5t105 21q46 0 93 -17t77 -55v246h85v-707zM289 457q-43 0 -73 -15.5t-48.5 -41.5t-27 -61.5t-8.5 -77.5t8 -75.5t27 -59.5t49 -41.5t74 -15.5
q51 0 84 24t53 60q14 25 20 54.5t6 58.5q0 36 -6.5 66t-23.5 56q-20 29 -53 49t-81 20z" />
    <glyph glyph-name="e" unicode="e" horiz-adv-x="573" 
d="M133 232q3 -35 14.5 -64.5t31.5 -51.5t49.5 -34.5t68.5 -12.5q19 0 39.5 3.5t38.5 12t32 22.5t21 34h87q-9 -38 -30.5 -66t-51 -46t-65.5 -26.5t-73 -8.5q-63 0 -109.5 20t-77.5 55.5t-46 85t-15 108.5t16.5 108.5t47.5 85.5t76 56t107 20q63 0 109 -25t74 -65.5
t39.5 -87.5t9.5 -87q0 -9 -0.5 -18t-1.5 -18h-391zM440 306q-2 67 -42 109t-107 42q-37 0 -65 -12t-47 -33t-30 -48.5t-14 -57.5h305z" />
    <glyph glyph-name="f" unicode="f" horiz-adv-x="366" 
d="M118 0v452h-86v75h86v56q0 88 38 129t128 41h60v-75h-51q-54 0 -72 -27t-18 -78v-46h141v-75h-141v-452h-85z" />
    <glyph glyph-name="g" unicode="g" horiz-adv-x="604" 
d="M537 4q0 -112 -60 -176t-181 -64q-40 0 -76.5 9t-66 28.5t-50 49t-28.5 70.5h88q6 -23 20.5 -38.5t33.5 -25t41 -13.5t43 -4q40 0 69 12.5t47 34.5t26.5 52.5t8.5 66.5v73q-26 -46 -74 -65.5t-100 -19.5q-60 1 -104 21.5t-72 56.5t-41.5 84.5t-13.5 105.5t14 106.5t43 86
t73 57.5t105 21q46 0 93 -17t77 -55l4 66h81v-523zM289 457q-43 0 -73 -15.5t-48.5 -41.5t-27 -61.5t-8.5 -75.5q0 -44 8 -77.5t27 -59.5t49 -41.5t74 -15.5q51 0 84 24t53 60q14 25 20 54.5t6 58.5q0 36 -6.5 66t-23.5 56q-20 29 -53 49t-81 20z" />
    <glyph glyph-name="h" unicode="h" horiz-adv-x="591" 
d="M67 0v707h85v-261q13 20 33 37t42 28t48.5 16.5t51.5 5.5q57 0 95.5 -18.5t62 -51t33 -77t9.5 -96.5v-290h-85v264q0 36 -4 70.5t-18 61.5t-40 44.5t-71 17.5q-37 0 -68.5 -18.5t-50.5 -46.5q-23 -31 -30.5 -69t-7.5 -78v-246h-85z" />
    <glyph glyph-name="i" unicode="i" horiz-adv-x="233" 
d="M116 720q24 0 41 -15.5t17 -40.5t-17 -41t-41 -16q-25 0 -41 16t-16 41t16 40.5t41 15.5zM74 0v527h85v-527h-85z" />
    <glyph glyph-name="j" unicode="j" horiz-adv-x="254" 
d="M137 720q24 0 41 -15.5t17 -40.5t-17 -41t-41 -16q-25 0 -41 16t-16 41t16 40.5t41 15.5zM180 527v-537q0 -88 -38 -129t-127 -41h-46v74h36q54 0 72 27t18 78v528h85z" />
    <glyph glyph-name="k" unicode="k" horiz-adv-x="520" 
d="M67 0v707h85v-407h92l158 227h96l-176 -251l191 -276h-100l-159 226h-102v-226h-85z" />
    <glyph glyph-name="l" unicode="l" horiz-adv-x="219" 
d="M67 0v707h85v-707h-85z" />
    <glyph glyph-name="m" unicode="m" horiz-adv-x="819" 
d="M153 464q25 35 61.5 52t81.5 17q55 -1 89 -24t51 -61q27 40 66.5 62.5t93.5 22.5q43 0 74 -14.5t50 -40t28 -59.5t9 -74v-345h-85v302q0 26 -2.5 53.5t-12.5 50t-30 37.5t-54 15q-31 0 -55 -16t-37.5 -41t-19.5 -55t-6 -59v-287h-85v303q0 25 -2 52.5t-11.5 50
t-28.5 37.5t-53 15q-36 0 -59.5 -16.5t-38 -41.5t-20 -55.5t-5.5 -58.5v-286h-85v527h82z" />
    <glyph glyph-name="n" unicode="n" horiz-adv-x="591" 
d="M67 0v527h82l4 -80q13 22 32.5 38t42.5 27t48.5 16t49.5 5q57 0 96 -18.5t62 -51t33 -77t10 -95.5v-291h-85v268q0 37 -4.5 71t-18 60.5t-38.5 42.5t-67 16q-40 0 -72 -19.5t-51 -45.5q-23 -33 -31 -72.5t-8 -79.5v-241h-85z" />
    <glyph glyph-name="o" unicode="o" horiz-adv-x="595" 
d="M299 533q63 0 109 -20t77.5 -56t47 -85.5t15.5 -108.5t-15.5 -108.5t-47 -85t-78.5 -55.5t-110 -20t-109.5 20t-78 55.5t-47 85t-15.5 108.5t15.5 108.5t47 85.5t79.5 56t110 20zM297 69q43 0 74.5 15t52 41.5t30 61.5t9.5 76q0 40 -9.5 75.5t-30 62t-52 41.5t-74.5 15
t-74 -15t-51.5 -41.5t-30 -62t-9.5 -75.5q0 -41 9.5 -76t30 -61.5t51.5 -41.5t74 -15z" />
    <glyph glyph-name="p" unicode="p" horiz-adv-x="604" 
d="M67 -190v717h81l4 -79q27 41 73.5 62.5t100.5 22.5q61 0 103.5 -20.5t71 -57t42.5 -86t14 -106.5q0 -58 -14 -107t-43 -85t-73 -56.5t-105 -20.5q-60 0 -102 19t-68 53v-256h-85zM315 69q43 0 72.5 15.5t48 42t27 61.5t9.5 75q0 40 -8.5 75.5t-27.5 61.5t-49.5 41.5
t-73.5 15.5q-51 0 -88 -27.5t-56 -69.5q-11 -23 -15 -47.5t-4 -50.5q0 -30 4 -55.5t15 -48.5q19 -38 55.5 -63.5t90.5 -25.5z" />
    <glyph glyph-name="q" unicode="q" horiz-adv-x="604" 
d="M537 -190h-85v269q-26 -46 -74 -65.5t-100 -19.5q-60 1 -104 21.5t-72 56.5t-41.5 84.5t-13.5 105.5t14 106.5t43 86t73 57.5t105 21q46 0 93 -17t77 -55l4 66h81v-717zM289 457q-43 0 -73 -15.5t-48.5 -41.5t-27 -61.5t-8.5 -75.5q0 -44 8 -77.5t27 -59.5t49 -41.5
t74 -15.5q51 0 84 24t53 60q14 25 20 54t6 59q0 36 -6.5 66t-23.5 56q-20 29 -53 49t-81 20z" />
    <glyph glyph-name="r" unicode="r" horiz-adv-x="373" 
d="M67 0v527h82l4 -82q29 46 74 67t102 21h27v-80h-31q-47 0 -80 -15.5t-53.5 -42t-30 -62.5t-9.5 -76v-257h-85z" />
    <glyph glyph-name="s" unicode="s" horiz-adv-x="509" 
d="M255 457q-18 0 -36.5 -2.5t-36 -10t-30 -22t-13.5 -38.5q0 -34 25.5 -51t66.5 -25q17 -4 37 -7.5t39.5 -7t37 -7.5t29.5 -8q96 -30 96 -129q-1 -48 -20.5 -77.5t-49 -46.5t-67 -24t-74.5 -7q-36 0 -73 7t-67.5 24.5t-52 46t-27.5 71.5h86q8 -24 25 -38t36.5 -22t37 -11
t39.5 -3q16 0 37 2t40 9.5t32 22.5t13 42q0 30 -19.5 45t-53.5 22q-24 5 -49.5 9.5t-51 10t-49.5 13t-45 20.5q-28 17 -45 46t-17 71q2 44 20 72.5t46 46.5q30 18 64 25t72 7q81 0 129 -35q29 -20 45 -48t20 -59h-79q-7 29 -38 47t-79 19z" />
    <glyph glyph-name="t" unicode="t" horiz-adv-x="370" 
d="M200 527h141v-75h-141v-273q0 -54 19.5 -79.5t79.5 -25.5h39v-74h-57q-90 0 -128 41t-38 129v282h-86v75h86v157h85v-157z" />
    <glyph glyph-name="u" unicode="u" horiz-adv-x="576" 
d="M287 69q72 0 105.5 43.5t33.5 121.5v293h85v-297q0 -120 -57.5 -178t-166.5 -58t-165.5 58t-56.5 178v297h85v-293q0 -78 34 -121.5t103 -43.5z" />
    <glyph glyph-name="v" unicode="v" horiz-adv-x="536" 
d="M7 527h96l166 -445l163 445h97l-203 -527h-116z" />
    <glyph glyph-name="w" unicode="w" horiz-adv-x="843" 
d="M12 527h96l126 -445l130 445h115l131 -445l124 445h97l-164 -527h-116l-130 427l-130 -427h-115z" />
    <glyph glyph-name="x" unicode="x" horiz-adv-x="515" 
d="M254 201l-144 -201h-96l188 269l-179 258h102l134 -200l130 200h99l-178 -261l191 -266h-101z" />
    <glyph glyph-name="y" unicode="y" horiz-adv-x="597" 
d="M530 527v-527q0 -115 -60 -175.5t-171 -60.5q-67 1 -120.5 17.5t-98.5 58.5l37 67q39 -31 83.5 -49t93.5 -18q41 0 70 12.5t47.5 35t27 53.5t8.5 67v63q-13 -20 -32.5 -35.5t-42 -25t-48 -14t-51.5 -4.5q-60 1 -99.5 19t-63 50t-33.5 76.5t-10 98.5v291h85v-267
q0 -36 4.5 -71t18.5 -62t41 -43.5t72 -16.5t76.5 19t48.5 48q19 30 25.5 66t6.5 74v253h85z" />
    <glyph glyph-name="z" unicode="z" horiz-adv-x="518" 
d="M471 456l-318 -382h318v-74h-424v72l315 380h-315v75h424v-71z" />
    <glyph glyph-name="braceleft" unicode="{" horiz-adv-x="389" 
d="M218 437q0 -48 -14 -82t-54 -53q40 -18 54 -53t14 -81v-206q0 -17 0.5 -31t4 -24t12.5 -15.5t26 -5.5h69v-72h-78q-27 0 -48.5 5t-36.5 17.5t-23.5 33t-8.5 51.5v219q0 26 -3.5 49.5t-14 41.5t-30 28.5t-50.5 10.5v65q31 0 50.5 10.5t30 28t14 41t3.5 50.5v219
q0 31 8.5 51.5t23.5 33t36.5 17.5t48.5 5h78v-72h-69q-17 0 -26 -5.5t-12.5 -15.5t-4 -24t-0.5 -31v-206z" />
    <glyph glyph-name="bar" unicode="|" horiz-adv-x="261" 
d="M87 -168v969h87v-969h-87z" />
    <glyph glyph-name="braceright" unicode="}" horiz-adv-x="389" 
d="M171 643q0 17 -0.5 31t-4 24t-12.5 15.5t-26 5.5h-69v72h78q27 0 48.5 -5t36.5 -17.5t23.5 -33t8.5 -51.5v-219q0 -27 3.5 -50.5t14 -41t29.5 -28t51 -10.5v-65q-32 0 -51 -10.5t-29.5 -28.5t-14 -41.5t-3.5 -49.5v-219q0 -31 -8.5 -51.5t-23.5 -33t-36.5 -17.5t-48.5 -5
h-78v72h69q17 0 26 5.5t12.5 15.5t4 24t0.5 31v206q0 46 14 81t53 53q-39 19 -53 53t-14 82v206z" />
    <glyph glyph-name="asciitilde" unicode="~" horiz-adv-x="641" 
d="M87 271q0 33 6 64.5t21.5 56t41.5 40t66 15.5q36 0 63 -18t49.5 -39.5t42.5 -39.5t43 -18q20 0 32 11t18 27.5t7.5 35t1.5 33.5h75q-1 -33 -7.5 -64.5t-21.5 -56t-41 -40t-66 -15.5q-36 0 -63 18t-49.5 39t-42.5 39t-43 18q-20 0 -31.5 -11t-17.5 -27.5t-7.5 -34.5
t-1.5 -33h-75z" />
    <glyph glyph-name="uni00A0" unicode="&#xa0;" horiz-adv-x="270" 
 />
    <glyph glyph-name="exclamdown" unicode="&#xa1;" horiz-adv-x="273" 
d="M174 305l12 -487h-97l12 487h73zM137 413q-25 0 -42.5 17t-17.5 43t17.5 43t42.5 17q26 0 42.5 -17t16.5 -43t-16.5 -43t-42.5 -17z" />
    <glyph glyph-name="cent" unicode="&#xa2;" horiz-adv-x="584" 
d="M257 -2q-50 8 -87 31t-62 57.5t-37 79.5t-12 97t12.5 97t37.5 80t62 58t86 31v142h87v-140q69 -6 116 -43.5t61 -111.5h-87q-12 44 -45 62.5t-77 18.5q-46 0 -77.5 -15.5t-51.5 -42.5t-29.5 -62t-9.5 -74t9.5 -74t30 -61.5t53.5 -42.5t72 -16q21 0 41.5 3.5t37.5 13.5
t30 26t19 39h88q-7 -36 -23.5 -63.5t-40.5 -46.5t-54 -30t-63 -15v-156h-87v158z" />
    <glyph glyph-name="sterling" unicode="&#xa3;" horiz-adv-x="584" 
d="M434 376v-79h-208v-218h299v-79h-466v79h82v218h-82v79h82v145q0 94 52.5 144t146.5 50q36 0 67.5 -9t55.5 -27.5t39.5 -46.5t18.5 -65h-83q-5 33 -32.5 51t-62.5 18q-25 0 -45 -4.5t-36 -17.5t-26 -36t-10 -60v-142h208z" />
    <glyph glyph-name="yen" unicode="&#xa5;" horiz-adv-x="664" 
d="M526 707h99l-216 -383h110v-77h-143v-81h143v-77h-143v-89h-87v89h-145v77h145v81h-145v77h112l-217 383h100l195 -354z" />
    <glyph glyph-name="section" unicode="&#xa7;" horiz-adv-x="550" 
d="M277 639q-22 0 -40.5 -2.5t-35 -9.5t-28.5 -21.5t-12 -38.5q0 -18 8 -30t20.5 -19t27.5 -11.5t29 -7.5q18 -4 39 -8t42 -8.5t39.5 -8.5t30.5 -7q51 -15 71 -45t20 -76q-1 -31 -15 -57.5t-34 -42.5q27 -14 39 -39.5t12 -63.5q-1 -45 -20.5 -74t-48.5 -46t-64.5 -24
t-68.5 -7q-46 1 -82.5 8.5t-67 24.5t-52 45t-27.5 71h86q8 -24 25 -38t37 -21.5t39.5 -11t33.5 -3.5q18 0 40 1.5t40.5 8.5t31.5 21t13 39q0 19 -7 30.5t-18.5 18.5t-26.5 10l-30 6q-21 4 -46.5 8t-49.5 9.5t-49 13.5t-43 19q-27 14 -45 44t-18 68q0 33 12.5 61t39.5 47
q-44 36 -44 93q1 43 20 72.5t47.5 46t61.5 23t70 6.5t69 -8t58.5 -25.5t44.5 -44.5t22 -64h-79q-4 18 -16 31t-28 21t-33.5 12t-39.5 4zM185 436q-13 -11 -21.5 -30t-8.5 -38q0 -32 24 -48.5t60 -22.5l32.5 -6.5t35.5 -6.5t35 -5.5t30 -4.5q14 6 24 23.5t11 37.5
q0 34 -20.5 48t-54.5 22q-35 8 -73.5 14.5t-73.5 16.5z" />
    <glyph glyph-name="dieresis" unicode="&#xa8;" horiz-adv-x="574" 
d="M174 718q25 0 41.5 -15.5t16.5 -40.5t-16.5 -40.5t-41.5 -15.5q-24 0 -40.5 15.5t-16.5 40.5t16.5 40.5t40.5 15.5zM399 718q25 0 41.5 -15.5t16.5 -40.5t-16.5 -40.5t-41.5 -15.5q-24 0 -40 15.5t-16 40.5t16 40.5t40 15.5z" />
    <glyph glyph-name="copyright" unicode="&#xa9;" horiz-adv-x="927" 
d="M463 715q89 0 163.5 -29.5t128 -84t83.5 -132t30 -173.5q0 -97 -29.5 -174.5t-82.5 -131.5t-128 -83t-165 -29t-164.5 29t-128 83t-82.5 131.5t-29 174.5q0 96 30 173.5t83.5 132t127.5 84t163 29.5zM463 641q-71 0 -130.5 -24t-102.5 -69t-67 -109t-24 -143
q0 -80 23.5 -143.5t66 -108t102.5 -68.5t132 -24t132 24t102.5 68.5t66 108t23.5 143.5q0 79 -24 143t-67 109t-102.5 69t-130.5 24zM470 83q-49 0 -85.5 16t-61 44.5t-36.5 67.5t-12 86q0 46 12.5 85t36.5 67.5t60.5 44.5t84.5 16q72 0 117 -31.5t59 -103.5h-81
q-9 35 -34 48.5t-60 13.5q-31 0 -52.5 -11.5t-35 -30.5t-20 -44.5t-6.5 -53.5q0 -29 6.5 -54.5t20.5 -44.5t35.5 -30.5t52.5 -11.5q35 0 60.5 13.5t34.5 48.5h83q-14 -69 -61.5 -102t-117.5 -33z" />
    <glyph glyph-name="ordfeminine" unicode="&#xaa;" horiz-adv-x="366" 
d="M250 442q-21 -19 -44.5 -27t-47.5 -8q-22 0 -41.5 6t-34.5 17.5t-23.5 29t-8.5 40.5q0 27 10 45t26.5 28.5t38 15t44.5 4.5h76q-2 30 -15.5 47.5t-45.5 18.5q-21 0 -37 -6.5t-21 -25.5h-66q9 48 43 69.5t81 21.5q34 0 57.5 -11t38 -30t20.5 -45.5t6 -57.5v-164h-51z
M245 540h-53q-10 0 -23.5 -0.5t-26.5 -2.5t-21.5 -10.5t-8.5 -22.5q0 -21 15 -30.5t37 -8.5q16 0 31.5 3.5t28.5 14.5q14 11 17.5 25.5t3.5 31.5z" />
    <glyph glyph-name="guillemotleft" unicode="&#xab;" horiz-adv-x="476" 
d="M243 90h-91l-113 174l113 174h91l-118 -174zM417 90h-90l-113 174l113 174h90l-115 -174z" />
    <glyph glyph-name="uni00AD" unicode="&#xad;" horiz-adv-x="453" 
d="M74 321h305v-78h-305v78z" />
    <glyph glyph-name="registered" unicode="&#xae;" horiz-adv-x="483" 
d="M242 744q44 0 79 -13.5t59.5 -39t37.5 -61t13 -78.5q0 -88 -50.5 -137.5t-138.5 -49.5t-139 49.5t-51 137.5q0 43 13 78.5t38 61t60 39t79 13.5zM242 699q-67 0 -104.5 -40.5t-37.5 -106.5t38 -103t104 -37t103 37t37 103t-36.5 106.5t-103.5 40.5zM338 459h-53l-47 69
h-24v-69h-44v197h83q32 0 52 -14t20 -49q0 -46 -37 -59zM253 568q12 0 20 6t8 18q0 11 -7.5 16.5t-17.5 5.5h-42v-46h39z" />
    <glyph glyph-name="macron" unicode="&#xaf;" horiz-adv-x="563" 
d="M122 707h319v-74h-319v74z" />
    <glyph glyph-name="degree" unicode="&#xb0;" horiz-adv-x="370" 
d="M186 818q25 0 48 -9t40 -26t27 -41t10 -54t-10 -53t-27.5 -38.5t-41 -24t-49.5 -8.5q-54 0 -89 32t-35 92q0 30 10 54t27.5 41t40.5 26t49 9zM185 618q29 0 48 18.5t19 53.5t-19.5 53.5t-47.5 18.5t-48 -18.5t-20 -53.5t19.5 -53.5t48.5 -18.5z" />
    <glyph glyph-name="plusminus" unicode="&#xb1;" horiz-adv-x="521" 
d="M74 446h147v150h78v-150h148v-77h-148v-113h-78v113h-147v77zM74 214h373v-77h-373v77z" />
    <glyph glyph-name="twosuperior" unicode="&#xb2;" horiz-adv-x="372" 
d="M161 526q10 9 23.5 20.5t25.5 25t20.5 28t9.5 28.5q1 27 -14.5 41.5t-41.5 13.5q-20 -1 -36 -10t-18 -31h-70q1 28 11.5 48t28 33.5t40.5 20t49 6.5q54 1 88.5 -28t34.5 -83q0 -44 -22 -75.5t-52 -57.5q-18 -16 -36 -30t-36 -30h142v-66h-246v61z" />
    <glyph glyph-name="threesuperior" unicode="&#xb3;" horiz-adv-x="399" 
d="M70 642q5 56 40.5 82t89.5 26q23 0 45.5 -5t40 -16.5t28 -29.5t10.5 -45q0 -24 -12 -44.5t-33 -31.5q32 -11 46 -35.5t13 -56.5q-1 -29 -12.5 -50t-30.5 -34.5t-43 -19.5t-51 -6t-50.5 6t-42.5 19.5t-31.5 34.5t-16.5 50h74q7 -24 25.5 -33.5t41.5 -9.5q25 0 44 11t19 39
q0 26 -19 34t-40 8h-37v61h25q20 0 38.5 11t19.5 34q1 24 -15.5 33.5t-36.5 9.5q-21 0 -36 -10.5t-20 -31.5h-73z" />
    <glyph glyph-name="acute" unicode="&#xb4;" horiz-adv-x="335" 
d="M194 769h92l-100 -141h-77z" />
    <glyph glyph-name="paragraph" unicode="&#xb6;" horiz-adv-x="635" 
d="M260 0v314q-47 0 -88.5 10.5t-73 34.5t-50 63t-18.5 96q0 44 18 81t46.5 60.5t63.5 35.5t77 12h370v-79h-87v-628h-87v628h-84v-628h-87z" />
    <glyph glyph-name="periodcentered" unicode="&#xb7;" horiz-adv-x="249" 
d="M124 420q24 0 41 -16q17 -15 17 -40q0 -24 -17 -41q-17 -16 -41 -16q-26 0 -41 16q-16 16 -16 41t16 40q15 16 41 16z" />
    <glyph glyph-name="cedilla" unicode="&#xb8;" horiz-adv-x="598" 
d="M295 -59q6 1 12 1.5t11 0.5q39 0 59 -21.5t20 -59.5q0 -33 -15 -56.5t-38 -36.5q-31 -16 -64.5 -19t-62.5 -3v55q17 0 36.5 1t36 6t27.5 15.5t11 30.5q0 12 -7 20t-16.5 11t-19 3.5t-14.5 0.5q-10 0 -24.5 -2t-27.5 -7l29 127h62z" />
    <glyph glyph-name="ordmasculine" unicode="&#xba;" horiz-adv-x="387" 
d="M125 559q0 -16 2.5 -33t10 -31t20.5 -23t35 -9t35 9t20.5 23.5t10 31.5t2.5 32q0 16 -2.5 33t-10 31t-20.5 23t-35 9q-21 0 -34.5 -9t-21 -23t-10 -31t-2.5 -33zM327 559q0 -30 -7 -57.5t-23 -49.5t-41.5 -35t-62.5 -13t-62.5 13t-41 35t-22.5 49.5t-7 57.5t7 58
t22.5 49.5t41 35t62.5 13.5t62.5 -13.5t41.5 -35t23 -49.5t7 -58z" />
    <glyph glyph-name="guillemotright" unicode="&#xbb;" horiz-adv-x="476" 
d="M233 438h91l113 -174l-113 -174h-91l118 174zM59 438h90l113 -174l-113 -174h-90l115 174z" />
    <glyph glyph-name="questiondown" unicode="&#xbf;" horiz-adv-x="513" 
d="M322 312q1 -5 1 -10.5v-10.5q0 -24 -6 -48t-30 -51q-10 -12 -23 -24.5t-26.5 -25.5l-27 -26t-24.5 -25q-19 -22 -31.5 -48t-12.5 -51q0 -51 32.5 -76t84.5 -27q21 0 41.5 4t38.5 13.5t31 25t18 37.5h88q-5 -40 -25 -70t-49.5 -49.5t-66 -29.5t-75.5 -10q-42 0 -79 11
t-65 33t-44.5 54t-16.5 80q1 46 19 83t49 70q11 11 25 24t28 27t26.5 28t19.5 26q8 13 10.5 29t2.5 29v8h87zM280 413q-26 0 -43 17t-17 43t17 43t43 17t42.5 -17t16.5 -43t-16.5 -43t-42.5 -17z" />
    <glyph glyph-name="Agrave" unicode="&#xc0;" horiz-adv-x="670" 
d="M311 786l-100 141h92l85 -141h-77zM566 0l-56 152h-350l-56 -152h-94l263 707h125l262 -707h-94zM335 631l-146 -400h292z" />
    <glyph glyph-name="Aacute" unicode="&#xc1;" horiz-adv-x="670" 
d="M566 0l-56 152h-350l-56 -152h-94l263 707h125l262 -707h-94zM335 631l-146 -400h292zM380 927h92l-100 -141h-77z" />
    <glyph glyph-name="Acircumflex" unicode="&#xc2;" horiz-adv-x="670" 
d="M660 0h-94l-56 152h-350l-56 -152h-94l263 707h125zM481 231l-146 400l-146 -400h292zM369 949l134 -163h-86l-78 97l-78 -97h-85l133 163h60z" />
    <glyph glyph-name="Atilde" unicode="&#xc3;" horiz-adv-x="670" 
d="M566 0l-56 152h-350l-56 -152h-94l263 707h125l262 -707h-94zM335 631l-146 -400h292zM405 773q-25 0 -44 11t-34.5 24.5t-28.5 25t-25 11.5t-18 -7.5t-8.5 -18t-3 -22t-0.5 -19.5h-69q0 24 4.5 47.5t15.5 42t30.5 29.5t49.5 11q25 0 44 -11.5t34.5 -25t28.5 -25
t25 -11.5t18.5 7.5t9.5 18t3 22.5v20h70q-1 -24 -5.5 -47.5t-16 -41.5t-31 -29.5t-49.5 -11.5z" />
    <glyph glyph-name="Adieresis" unicode="&#xc4;" horiz-adv-x="670" 
d="M226 900q25 0 41.5 -15.5t16.5 -40.5t-16.5 -40.5t-41.5 -15.5q-24 0 -40.5 15.5t-16.5 40.5t16.5 40.5t40.5 15.5zM451 900q25 0 41.5 -15.5t16.5 -40.5t-16.5 -40.5t-41.5 -15.5q-24 0 -40 15.5t-16 40.5t16 40.5t40 15.5zM660 0h-94l-56 152h-350l-56 -152h-94
l263 707h125zM481 231l-146 400l-146 -400h292z" />
    <glyph glyph-name="Aring" unicode="&#xc5;" horiz-adv-x="670" 
d="M566 0l-56 152h-350l-56 -152h-94l263 707h125l262 -707h-94zM335 631l-146 -400h292zM335 949q44 0 71 -29t27 -72q0 -44 -28 -69.5t-71 -25.5q-44 0 -71 25.5t-27 69.5t27.5 72.5t71.5 28.5zM334 805q20 0 31.5 12.5t11.5 32.5t-11.5 32.5t-31.5 12.5t-31.5 -12.5
t-11.5 -32.5t11.5 -32.5t31.5 -12.5z" />
    <glyph glyph-name="AE" unicode="&#xc6;" horiz-adv-x="923" 
d="M105 0h-95l361 707h504v-79h-354v-238h315v-80h-315v-231h354v-79h-441v151h-251zM434 628h-11l-198 -397h209v397z" />
    <glyph glyph-name="Ccedilla" unicode="&#xc7;" horiz-adv-x="710" 
d="M372 636q-63 0 -107.5 -23t-73 -62t-41.5 -89.5t-13 -105.5q0 -59 14 -111t43 -90.5t74 -61t107 -22.5q75 0 126 30t66 84h95q-22 -85 -90 -136t-174 -56l-12 -54q6 1 12 1.5t11 0.5q27 0 47 -13q32 -19 32 -68q1 -31 -16.5 -57t-42 -38.5t-45.5 -16t-43 -3.5
q-8 0 -16 0.5t-17 1.5v53q17 -1 36.5 0t36 6t27.5 16t11 31q0 13 -7 20.5t-16.5 10.5t-19 3.5t-14.5 0.5q-10 0 -24.5 -2t-27.5 -7l26 115q-73 6 -127 35t-90 76t-53.5 110.5t-17.5 137.5q0 78 20 144t61 114.5t102 76t144 27.5q58 0 104.5 -14t81 -39.5t56.5 -61t32 -78.5
h-88q-15 52 -64.5 83t-124.5 31z" />
    <glyph glyph-name="Egrave" unicode="&#xc8;" horiz-adv-x="610" 
d="M87 707h475v-79h-388v-238h349v-80h-349v-231h388v-79h-475v707zM316 786l-100 141h92l85 -141h-77z" />
    <glyph glyph-name="Eacute" unicode="&#xc9;" horiz-adv-x="610" 
d="M87 707h475v-79h-388v-238h349v-80h-349v-231h388v-79h-475v707zM358 927h92l-100 -141h-77z" />
    <glyph glyph-name="Ecircumflex" unicode="&#xca;" horiz-adv-x="610" 
d="M87 0v707h475v-79h-388v-238h349v-80h-349v-231h388v-79h-475zM360 949l134 -163h-86l-78 97l-78 -97h-85l133 163h60z" />
    <glyph glyph-name="Edieresis" unicode="&#xcb;" horiz-adv-x="610" 
d="M87 707h475v-79h-388v-238h349v-80h-349v-231h388v-79h-475v707zM216 900q25 0 41.5 -15.5t16.5 -40.5t-16.5 -40.5t-41.5 -15.5q-24 0 -40.5 15.5t-16.5 40.5t16.5 40.5t40.5 15.5zM441 900q25 0 41.5 -15.5t16.5 -40.5t-16.5 -40.5t-41.5 -15.5q-24 0 -40 15.5
t-16 40.5t16 40.5t40 15.5z" />
    <glyph glyph-name="Igrave" unicode="&#xcc;" horiz-adv-x="261" 
d="M174 0h-87v707h87v-707zM110 786l-100 141h92l85 -141h-77z" />
    <glyph glyph-name="Iacute" unicode="&#xcd;" horiz-adv-x="261" 
d="M174 0h-87v707h87v-707zM165 927h92l-100 -141h-77z" />
    <glyph glyph-name="Icircumflex" unicode="&#xce;" horiz-adv-x="207" 
d="M133 982l143 -190h-86l-87 122l-87 -122h-85l142 190h60zM147 0h-87v707h87v-707z" />
    <glyph glyph-name="Idieresis" unicode="&#xcf;" horiz-adv-x="261" 
d="M174 0h-87v707h87v-707zM27 900q25 0 41.5 -15.5t16.5 -40.5t-16.5 -40.5t-41.5 -15.5q-24 0 -40.5 15.5t-16.5 40.5t16.5 40.5t40.5 15.5zM232 900q25 0 41.5 -15.5t16.5 -40.5t-16.5 -40.5t-41.5 -15.5q-24 0 -40 15.5t-16 40.5t16 40.5t40 15.5z" />
    <glyph glyph-name="Eth" unicode="&#xd0;" horiz-adv-x="720" 
d="M9 392h78v315h251q82 0 144.5 -25.5t104.5 -72t63 -112t21 -144.5q-1 -79 -22 -144t-62.5 -111.5t-103.5 -72t-145 -25.5h-251v314h-78v78zM174 628v-236h159v-78h-159v-235h158q54 0 103.5 16.5t84.5 58.5q32 37 47 87.5t15 111.5q0 63 -15 112t-45 85t-76 57t-109 21
h-163z" />
    <glyph glyph-name="Ntilde" unicode="&#xd1;" horiz-adv-x="741" 
d="M87 0v707h111l369 -589v589h87v-707h-109l-371 587v-587h-87zM435 773q-25 0 -44 11t-34.5 24.5t-28.5 25t-25 11.5t-18 -7.5t-8.5 -18t-3 -22t-0.5 -19.5h-69q0 24 4.5 47.5t15.5 42t30.5 29.5t49.5 11q25 0 44 -11.5t34.5 -25t28.5 -25t25 -11.5t18.5 7.5t9.5 18
t3 22.5v20h70q-1 -24 -5.5 -47.5t-16 -41.5t-31 -29.5t-49.5 -11.5z" />
    <glyph glyph-name="Ograve" unicode="&#xd2;" horiz-adv-x="761" 
d="M381 -8q-83 0 -145 27.5t-104 75.5t-63 114t-21 144t21 144.5t63 114.5t104 75.5t145 27.5q82 0 144 -27.5t104 -75.5t63 -114.5t21 -144.5t-21 -144t-63 -114t-104 -75.5t-144 -27.5zM381 636q-63 0 -109 -22.5t-76 -61.5t-45 -90.5t-15 -108.5t14.5 -108t44.5 -90
t76.5 -61.5t109.5 -22.5t109 22.5t75.5 61t44 89.5t14.5 109t-14.5 109.5t-44.5 90t-76 61t-108 22.5zM362 786l-100 141h92l85 -141h-77z" />
    <glyph glyph-name="Oacute" unicode="&#xd3;" horiz-adv-x="761" 
d="M381 -8q-83 0 -145 27.5t-104 75.5t-63 114t-21 144t21 144.5t63 114.5t104 75.5t145 27.5q82 0 144 -27.5t104 -75.5t63 -114.5t21 -144.5t-21 -144t-63 -114t-104 -75.5t-144 -27.5zM381 636q-63 0 -109 -22.5t-76 -61.5t-45 -90.5t-15 -108.5t14.5 -108t44.5 -90
t76.5 -61.5t109.5 -22.5t109 22.5t75.5 61t44 89.5t14.5 109t-14.5 109.5t-44.5 90t-76 61t-108 22.5zM404 927h92l-100 -141h-77z" />
    <glyph glyph-name="Ocircumflex" unicode="&#xd4;" horiz-adv-x="761" 
d="M381 -8q-83 0 -145 27.5t-104 75.5t-63 114t-21 144t21 144.5t63 114.5t104 75.5t145 27.5q82 0 144 -27.5t104 -75.5t63 -114.5t21 -144.5t-21 -144t-63 -114t-104 -75.5t-144 -27.5zM381 636q-63 0 -109 -22.5t-76 -61.5t-45 -90.5t-15 -108.5t14.5 -108t44.5 -90
t76.5 -61.5t109.5 -22.5t109 22.5t75.5 61t44 89.5t14.5 109t-14.5 109.5t-44.5 90t-76 61t-108 22.5zM410 949l134 -163h-86l-78 96l-78 -96h-85l133 163h60z" />
    <glyph glyph-name="Otilde" unicode="&#xd5;" horiz-adv-x="761" 
d="M451 773q-25 0 -44 11t-34.5 24.5t-28.5 25t-25 11.5t-18 -7.5t-8.5 -18t-3 -22t-0.5 -19.5h-69q0 24 4.5 47.5t15.5 42t30.5 29.5t49.5 11q25 0 44 -11.5t34.5 -25t28.5 -25t25 -11.5t18.5 7.5t9.5 18t3 22.5v20h70q-1 -24 -5.5 -47.5t-16 -41.5t-31 -29.5t-49.5 -11.5z
M381 -8q-83 0 -145 27.5t-104 75.5t-63 114t-21 144t21 144.5t63 114.5t104 75.5t145 27.5q82 0 144 -27.5t104 -75.5t63 -114.5t21 -144.5t-21 -144t-63 -114t-104 -75.5t-144 -27.5zM381 636q-63 0 -109 -22.5t-76 -61.5t-45 -90.5t-15 -108.5t14.5 -108t44.5 -90
t76.5 -61.5t109.5 -22.5t109 22.5t75.5 61t44 89.5t14.5 109t-14.5 109.5t-44.5 90t-76 61t-108 22.5z" />
    <glyph glyph-name="Odieresis" unicode="&#xd6;" horiz-adv-x="761" 
d="M271 900q25 0 41.5 -15.5t16.5 -40.5t-16.5 -40.5t-41.5 -15.5q-24 0 -40.5 15.5t-16.5 40.5t16.5 40.5t40.5 15.5zM496 900q25 0 41.5 -15.5t16.5 -40.5t-16.5 -40.5t-41.5 -15.5q-24 0 -40 15.5t-16 40.5t16 40.5t40 15.5zM381 -8q-83 0 -145 27.5t-104 75.5t-63 114
t-21 144t21 144.5t63 114.5t104 75.5t145 27.5q82 0 144 -27.5t104 -75.5t63 -114.5t21 -144.5t-21 -144t-63 -114t-104 -75.5t-144 -27.5zM381 636q-63 0 -109 -22.5t-76 -61.5t-45 -90.5t-15 -108.5t14.5 -108t44.5 -90t76.5 -61.5t109.5 -22.5t109 22.5t75.5 61t44 89.5
t14.5 109t-14.5 109.5t-44.5 90t-76 61t-108 22.5z" />
    <glyph glyph-name="multiply" unicode="&#xd7;" horiz-adv-x="477" 
d="M239 303l-139 -138l-50 50l139 138l-139 139l50 50l139 -139l138 139l50 -50l-138 -139l138 -138l-50 -50z" />
    <glyph glyph-name="Oslash" unicode="&#xd8;" horiz-adv-x="761" 
d="M381 -8q-56 0 -102 12l-47 -114h-85l59 144q-43 25 -74 61q-42 48 -63 114t-21 144t21 144.5t63 114.5t104 75.5t145 27.5q54 0 100 -12l47 113h85l-59 -143q43 -25 75 -61q42 -48 63 -114.5t21 -144.5t-21 -144t-63 -114t-104 -75.5t-144 -27.5zM381 71q63 0 109 22.5
t75.5 61t44 89.5t14.5 109t-14.5 109.5t-44.5 89.5q-19 24 -44 42l-211 -515q32 -8 71 -8zM381 636q-63 0 -109 -22.5t-76 -61.5t-45 -90.5t-15 -108.5t14.5 -108t44.5 -90q18 -24 43 -43l212 515q-31 9 -69 9z" />
    <glyph glyph-name="Ugrave" unicode="&#xd9;" horiz-adv-x="726" 
d="M644 707v-402q0 -67 -16 -124t-50.5 -99t-87.5 -66t-127 -24t-127.5 23.5t-87.5 65.5t-50 99t-16 125v402h87v-401q0 -48 10 -91t33 -75t60.5 -50.5t91.5 -18.5t91 18.5t59.5 51t32 75t9.5 90.5v401h88zM352 786l-100 141h92l85 -141h-77z" />
    <glyph glyph-name="Uacute" unicode="&#xda;" horiz-adv-x="726" 
d="M644 707v-402q0 -67 -16 -124t-50.5 -99t-87.5 -66t-127 -24t-127.5 23.5t-87.5 65.5t-50 99t-16 125v402h87v-401q0 -48 10 -91t33 -75t60.5 -50.5t91.5 -18.5t91 18.5t59.5 51t32 75t9.5 90.5v401h88zM383 927h92l-100 -141h-77z" />
    <glyph glyph-name="Ucircumflex" unicode="&#xdb;" horiz-adv-x="726" 
d="M644 707v-402q0 -67 -16 -124t-50.5 -99t-87.5 -66t-127 -24t-127.5 23.5t-87.5 65.5t-50 99t-16 125v402h87v-401q0 -48 10 -91t33 -75t60.5 -50.5t91.5 -18.5t91 18.5t59.5 51t32 75t9.5 90.5v401h88zM392 949l134 -163h-86l-78 96l-78 -96h-85l133 163h60z" />
    <glyph glyph-name="Udieresis" unicode="&#xdc;" horiz-adv-x="726" 
d="M250 899q25 0 41.5 -15.5t16.5 -40.5t-16.5 -40.5t-41.5 -15.5q-24 0 -40.5 15.5t-16.5 40.5t16.5 40.5t40.5 15.5zM475 899q25 0 41.5 -15.5t16.5 -40.5t-16.5 -40.5t-41.5 -15.5q-24 0 -40 15.5t-16 40.5t16 40.5t40 15.5zM644 707v-402q0 -67 -16 -124t-50.5 -99
t-87.5 -66t-127 -24t-127.5 23.5t-87.5 65.5t-50 99t-16 125v402h87v-401q0 -48 10 -91t33 -75t60.5 -50.5t91.5 -18.5t91 18.5t59.5 51t32 75t9.5 90.5v401h88z" />
    <glyph glyph-name="Yacute" unicode="&#xdd;" horiz-adv-x="614" 
d="M501 707h99l-249 -441v-266h-87v265l-250 442h101l194 -354zM331 927h92l-100 -141h-77z" />
    <glyph glyph-name="Thorn" unicode="&#xde;" horiz-adv-x="630" 
d="M174 583h158q116 0 182.5 -54.5t66.5 -175.5q0 -60 -20.5 -104.5t-56.5 -73t-85 -42.5t-105 -14h-140v-119h-87v707h87v-124zM310 198q82 0 132 36.5t50 122.5q0 76 -41 111.5t-123 35.5h-154v-306h136z" />
    <glyph glyph-name="germandbls" unicode="&#xdf;" horiz-adv-x="607" 
d="M400 309q33 -9 63.5 -20t54 -27.5t37 -41.5t13.5 -64q0 -42 -14 -72.5t-38 -50.5t-57.5 -29.5t-72.5 -9.5q-35 0 -65 8.5t-53.5 26.5t-39.5 46.5t-21 67.5h86q8 -41 34.5 -57.5t62.5 -16.5q39 -1 66 17.5t27 60.5q0 28 -11 43.5t-28 25t-39 15.5t-43 12q-51 15 -82 45.5
t-31 85.5q0 27 16.5 58.5t37 56t37 51t16.5 61.5q0 33 -26.5 55.5t-68.5 22.5q-29 0 -49.5 -10t-33.5 -26t-19.5 -36t-6.5 -40v-567h-85v556q0 39 10 74.5t33 63t61 44t95 16.5q34 0 66.5 -9.5t58 -28.5t40.5 -47t15 -65q0 -41 -18 -72t-39.5 -57t-40.5 -52.5t-19 -43.5
q0 -26 15 -42t56 -28z" />
    <glyph glyph-name="agrave" unicode="&#xe0;" horiz-adv-x="555" 
d="M414 67q-17 -23 -39 -37t-45.5 -22t-47 -11t-46.5 -3q-37 0 -70 9t-59.5 29t-42 50t-15.5 68q0 45 16.5 75.5t44.5 49.5t64.5 26.5t77.5 7.5h155q0 67 -29 106.5t-98 41.5q-42 0 -74 -14t-44 -46h-91q7 36 28 61.5t50 42t63 24.5t68 8q59 0 99.5 -19.5t65.5 -51t35 -76.5
t10 -101v-285h-71zM314 238h-55.5t-60.5 -6.5t-46.5 -25.5t-17.5 -50q0 -23 9 -39t24.5 -27t35.5 -16t41 -5q75 0 118.5 36.5t44.5 106.5v26h-93zM274 628l-100 141h92l85 -141h-77z" />
    <glyph glyph-name="aacute" unicode="&#xe1;" horiz-adv-x="555" 
d="M414 67q-17 -23 -39 -37t-45.5 -22t-47 -11t-46.5 -3q-37 0 -70 9t-59.5 29t-42 50t-15.5 68q0 45 16.5 75.5t44.5 49.5t64.5 26.5t77.5 7.5h155q0 67 -29 106.5t-98 41.5q-42 0 -74 -14t-44 -46h-91q7 36 28 61.5t50 42t63 24.5t68 8q59 0 99.5 -19.5t65.5 -51t35 -76.5
t10 -101v-285h-71zM314 238h-55.5t-60.5 -6.5t-46.5 -25.5t-17.5 -50q0 -23 9 -39t24.5 -27t35.5 -16t41 -5q75 0 118.5 36.5t44.5 106.5v26h-93zM309 769h92l-100 -141h-77z" />
    <glyph glyph-name="acircumflex" unicode="&#xe2;" horiz-adv-x="555" 
d="M414 67q-17 -23 -38 -37t-44.5 -22t-48 -11t-47.5 -3q-37 0 -70.5 9.5t-59.5 29t-41.5 49.5t-15.5 68q0 45 16.5 75.5t44.5 49.5t64.5 26.5t77.5 7.5h155q0 67 -29 106.5t-98 41.5q-42 0 -74 -14t-44 -46h-91q7 36 28 61.5t50 42t63 24.5t68 8q59 0 99.5 -19.5t65.5 -51
t35 -76.5t10 -101v-285h-71zM314 238q-24 0 -55.5 -0.5t-60.5 -6.5t-46.5 -25t-17.5 -50q0 -23 9 -39t24.5 -27t35.5 -16t41 -5q75 0 118.5 36.5t44.5 106.5v26h-93zM313 769l134 -163h-86l-78 96l-78 -96h-85l133 163h60z" />
    <glyph glyph-name="atilde" unicode="&#xe3;" horiz-adv-x="555" 
d="M414 67q-17 -23 -39 -37t-45.5 -22t-47 -11t-46.5 -3q-37 0 -70 9t-59.5 29t-42 50t-15.5 68q0 45 16.5 75.5t44.5 49.5t64.5 26.5t77.5 7.5h155q0 67 -29 106.5t-98 41.5q-42 0 -74 -14t-44 -46h-91q7 36 28 61.5t50 42t63 24.5t68 8q59 0 99.5 -19.5t65.5 -51t35 -76.5
t10 -101v-285h-71zM314 238h-55.5t-60.5 -6.5t-46.5 -25.5t-17.5 -50q0 -23 9 -39t24.5 -27t35.5 -16t41 -5q75 0 118.5 36.5t44.5 106.5v26h-93zM347 615q-25 0 -44 11t-34.5 24.5t-28.5 25t-25 11.5t-18 -7.5t-8.5 -18t-3 -22t-0.5 -19.5h-69q0 24 4.5 47.5t15.5 42
t30.5 29.5t49.5 11q25 0 44 -11.5t34.5 -25t28.5 -25t25 -11.5t18.5 7.5t9.5 18t3 22.5v20h70q-1 -24 -5.5 -47.5t-16 -41.5t-31 -29.5t-49.5 -11.5z" />
    <glyph glyph-name="adieresis" unicode="&#xe4;" horiz-adv-x="555" 
d="M167 707q25 0 41.5 -15.5t16.5 -40.5t-16.5 -40.5t-41.5 -15.5q-24 0 -40.5 15.5t-16.5 40.5t16.5 40.5t40.5 15.5zM392 707q25 0 41.5 -15.5t16.5 -40.5t-16.5 -40.5t-41.5 -15.5q-24 0 -40 15.5t-16 40.5t16 40.5t40 15.5zM414 67q-17 -23 -38 -37t-44.5 -22t-48 -11
t-47.5 -3q-37 0 -70.5 9.5t-59.5 29t-41.5 49.5t-15.5 68q0 45 16.5 75.5t44.5 49.5t64.5 26.5t77.5 7.5h155q0 67 -29 106.5t-98 41.5q-42 0 -74 -14t-44 -46h-91q7 36 28 61.5t50 42t63 24.5t68 8q59 0 99.5 -19.5t65.5 -51t35 -76.5t10 -101v-285h-71zM314 238
q-24 0 -55.5 -0.5t-60.5 -6.5t-46.5 -25t-17.5 -50q0 -23 9 -39t24.5 -27t35.5 -16t41 -5q75 0 118.5 36.5t44.5 106.5v26h-93z" />
    <glyph glyph-name="aring" unicode="&#xe5;" horiz-adv-x="555" 
d="M414 67q-17 -23 -39 -37t-45.5 -22t-47 -11t-46.5 -3q-37 0 -70 9t-59.5 29t-42 50t-15.5 68q0 45 16.5 75.5t44.5 49.5t64.5 26.5t77.5 7.5h155q0 67 -29 106.5t-98 41.5q-42 0 -74 -14t-44 -46h-91q7 36 28 61.5t50 42t63 24.5t68 8q59 0 99.5 -19.5t65.5 -51t35 -76.5
t10 -101v-285h-71zM314 238h-55.5t-60.5 -6.5t-46.5 -25.5t-17.5 -50q0 -23 9 -39t24.5 -27t35.5 -16t41 -5q75 0 118.5 36.5t44.5 106.5v26h-93zM284 775q44 0 71 -29t27 -72q0 -44 -28 -69.5t-71 -25.5q-44 0 -71 25.5t-27 69.5t27.5 72.5t71.5 28.5zM283 631
q20 0 31.5 12.5t11.5 32.5t-11.5 32.5t-31.5 12.5t-31.5 -12.5t-11.5 -32.5t11.5 -32.5t31.5 -12.5z" />
    <glyph glyph-name="ae" unicode="&#xe6;" horiz-adv-x="929" 
d="M241 -6q-36 0 -70.5 9.5t-61.5 28.5t-43.5 48.5t-16.5 69.5q0 46 17 76t45 48t64.5 25t76.5 7h155q0 74 -30.5 112.5t-96.5 38.5q-35 0 -69.5 -12t-48.5 -48h-91q7 36 28 61.5t50 42t63.5 24.5t67.5 8q54 0 102 -22t76 -73q29 43 77.5 69t115.5 26q52 0 94.5 -19.5
t73.5 -55t47.5 -83t16.5 -103.5q0 -10 -0.5 -20t-1.5 -20h-391q1 -76 44 -119.5t120 -43.5q19 0 39.5 3.5t38.5 12t32 22t21 34.5h87q-9 -39 -31 -67t-51.5 -45.5t-65 -26t-72.5 -8.5q-28 0 -57 5t-55.5 16t-49.5 28t-40 42q-40 -50 -90 -70.5t-119 -20.5zM797 306
q-2 66 -41.5 108.5t-107.5 42.5q-70 0 -110 -42t-46 -109h305zM258 231q-21 0 -43 -2t-40 -9.5t-29.5 -22t-11.5 -41.5q0 -23 10 -39.5t26.5 -27t37 -15.5t41.5 -5q84 0 121 42t37 121h-74.5t-74.5 -1z" />
    <glyph glyph-name="ccedilla" unicode="&#xe7;" horiz-adv-x="550" 
d="M338 -145q-1 13 -7.5 20.5t-16 10.5t-19 3.5t-14.5 0.5q-10 0 -24.5 -2t-27.5 -7l26 115q-54 5 -93.5 27t-66 57t-39 81.5t-12.5 100.5q0 57 16 106.5t47 86t77 57.5t107 21q88 0 142.5 -37.5t71.5 -119.5h-87q-13 46 -47.5 64t-79.5 17q-44 0 -74.5 -16.5t-50 -43.5
t-28.5 -62.5t-9 -72.5q0 -39 9.5 -74t29 -61.5t50.5 -42t74 -15.5q21 0 41.5 4t38 13.5t30.5 25.5t19 39h88q-7 -38 -25 -65.5t-43.5 -46.5t-57.5 -29.5t-66 -13.5l-12 -55q6 1 12 1.5t11 0.5q30 -1 49 -14q29 -18 30 -67q0 -36 -17 -59.5t-41.5 -36t-49.5 -16t-39 -3.5
q-8 0 -16.5 0.5t-16.5 2.5v52q17 -1 36.5 0t36 6t27.5 16t11 31z" />
    <glyph glyph-name="egrave" unicode="&#xe8;" horiz-adv-x="573" 
d="M133 232q3 -35 14.5 -64.5t31.5 -51.5t49.5 -34.5t68.5 -12.5q19 0 39.5 3.5t38.5 12t32 22.5t21 34h87q-9 -38 -30.5 -66t-51 -46t-65.5 -26.5t-73 -8.5q-63 0 -109.5 20t-77.5 55.5t-46 85t-15 108.5t16.5 108.5t47.5 85.5t76 56t107 20q63 0 109 -25t74 -65.5
t39.5 -87.5t9.5 -87q0 -9 -0.5 -18t-1.5 -18h-391zM440 306q-2 67 -42 109t-107 42q-37 0 -65 -12t-47 -33t-30 -48.5t-14 -57.5h305zM298 628l-100 141h92l85 -141h-77z" />
    <glyph glyph-name="eacute" unicode="&#xe9;" horiz-adv-x="573" 
d="M133 232q3 -35 14.5 -64.5t31.5 -51.5t49.5 -34.5t68.5 -12.5q19 0 39.5 3.5t38.5 12t32 22.5t21 34h87q-9 -38 -30.5 -66t-51 -46t-65.5 -26.5t-73 -8.5q-63 0 -109.5 20t-77.5 55.5t-46 85t-15 108.5t16.5 108.5t47.5 85.5t76 56t107 20q63 0 109 -25t74 -65.5
t39.5 -87.5t9.5 -87q0 -9 -0.5 -18t-1.5 -18h-391zM440 306q-2 67 -42 109t-107 42q-37 0 -65 -12t-47 -33t-30 -48.5t-14 -57.5h305zM306 769h92l-100 -141h-77z" />
    <glyph glyph-name="ecircumflex" unicode="&#xea;" horiz-adv-x="567" 
d="M129 232q3 -35 14.5 -64.5t31.5 -51.5t49.5 -34.5t68.5 -12.5q19 0 39.5 3.5t38.5 12t32 22.5t21 34h87q-9 -38 -30.5 -66t-51 -46t-65.5 -26.5t-73 -8.5q-63 0 -109.5 20t-77.5 55.5t-46 85t-15 108.5t16.5 108.5t47.5 85.5t76 56t107 20q63 0 109 -25t74 -65.5
t39.5 -87.5t9.5 -87q0 -9 -0.5 -18t-1.5 -18h-391zM436 306q-2 67 -42 109t-107 42q-37 0 -65 -12t-47 -33t-30 -48.5t-14 -57.5h305zM321 769l134 -163h-86l-78 96l-78 -96h-85l133 163h60z" />
    <glyph glyph-name="edieresis" unicode="&#xeb;" horiz-adv-x="573" 
d="M133 232q3 -35 14.5 -64.5t31.5 -51.5t49.5 -34.5t68.5 -12.5q19 0 39.5 3.5t38.5 12t32 22.5t21 34h87q-9 -38 -30.5 -66t-51 -46t-65.5 -26.5t-73 -8.5q-63 0 -109.5 20t-77.5 55.5t-46 85t-15 108.5t16.5 108.5t47.5 85.5t76 56t107 20q63 0 109 -25t74 -65.5
t39.5 -87.5t9.5 -87q0 -9 -0.5 -18t-1.5 -18h-391zM440 306q-2 67 -42 109t-107 42q-37 0 -65 -12t-47 -33t-30 -48.5t-14 -57.5h305zM173 707q25 0 41.5 -15.5t16.5 -40.5t-16.5 -40.5t-41.5 -15.5q-24 0 -40.5 15.5t-16.5 40.5t16.5 40.5t40.5 15.5zM398 707
q25 0 41.5 -15.5t16.5 -40.5t-16.5 -40.5t-41.5 -15.5q-24 0 -40 15.5t-16 40.5t16 40.5t40 15.5z" />
    <glyph glyph-name="igrave" unicode="&#xec;" horiz-adv-x="219" 
d="M152 0h-85v527h85v-527zM111 628l-100 141h92l85 -141h-77z" />
    <glyph glyph-name="iacute" unicode="&#xed;" horiz-adv-x="219" 
d="M152 0h-85v527h85v-527zM135 769h92l-100 -141h-77z" />
    <glyph glyph-name="icircumflex" unicode="&#xee;" horiz-adv-x="269" 
d="M159 769l134 -163h-86l-78 96l-78 -96h-85l133 163h60zM173 0h-85v527h85v-527z" />
    <glyph glyph-name="idieresis" unicode="&#xef;" horiz-adv-x="233" 
d="M74 0v527h85v-527h-85zM45 707q23 0 38.5 -14.5t15.5 -37.5q0 -24 -15.5 -39t-38.5 -15t-38 15t-15 39q0 23 15 37.5t38 14.5zM188 707q23 0 38 -14.5t15 -37.5q0 -24 -15 -39t-38 -15q-24 0 -38.5 15t-14.5 39q0 23 15 37.5t38 14.5z" />
    <glyph glyph-name="eth" unicode="&#xf0;" horiz-adv-x="573" 
d="M526 296q0 -62 -11.5 -116.5t-39.5 -95.5t-75 -65t-117 -25q-57 0 -101 18.5t-74 52.5t-45.5 80.5t-15.5 102.5q0 51 15.5 94.5t44.5 76t71 50.5t95 18q50 0 93 -16.5t70 -53.5q-2 26 -12.5 54.5t-25 54t-31.5 46t-32 30.5l-112 -74l-39 59l89 59q-28 19 -74 30.5
t-88 13.5l7 69q66 -5 122 -22.5t100 -46.5l117 77l39 -58l-96 -62q62 -57 94 -144t32 -207zM286 69q35 0 63 13.5t47.5 36.5t29.5 53.5t10 63.5q0 36 -9.5 68t-29 56t-49 37.5t-69.5 13.5q-36 0 -63 -13.5t-46 -36t-28.5 -53t-9.5 -63.5q0 -35 10 -67t29.5 -56t48 -38.5
t66.5 -14.5z" />
    <glyph glyph-name="ntilde" unicode="&#xf1;" horiz-adv-x="591" 
d="M67 0v527h82l4 -80q13 22 32.5 38t42.5 27t48.5 16t49.5 5q57 0 96 -18.5t62 -51t33 -77t10 -95.5v-291h-85v268q0 37 -4.5 71t-18 60.5t-38.5 42.5t-67 16q-41 -1 -72.5 -20t-50.5 -45q-23 -33 -31 -72.5t-8 -79.5v-241h-85zM364 615q-25 0 -44 11t-34.5 24.5t-28.5 25
t-25 11.5t-18 -7.5t-8.5 -18t-3 -22t-0.5 -19.5h-69q0 24 4.5 47.5t15.5 42t30.5 29.5t49.5 11q25 0 44 -11.5t34.5 -25t28.5 -25t25 -11.5t18.5 7.5t9.5 18t3 22.5v20h70q-1 -24 -5.5 -47.5t-16 -41.5t-31 -29.5t-49.5 -11.5z" />
    <glyph glyph-name="ograve" unicode="&#xf2;" horiz-adv-x="595" 
d="M299 533q63 0 109 -20t77.5 -56t47 -85.5t15.5 -108.5t-15.5 -108.5t-47 -85t-78.5 -55.5t-110 -20t-109.5 20t-78 55.5t-47 85t-15.5 108.5t15.5 108.5t47 85.5t79.5 56t110 20zM297 69q43 0 74.5 15t52 41.5t30 61.5t9.5 76q0 40 -9.5 75.5t-30 62t-52 41.5t-74.5 15
t-74 -15t-51.5 -41.5t-30 -62t-9.5 -75.5q0 -41 9.5 -76t30 -61.5t51.5 -41.5t74 -15zM290 628l-100 141h92l85 -141h-77z" />
    <glyph glyph-name="oacute" unicode="&#xf3;" horiz-adv-x="595" 
d="M299 533q63 0 109 -20t77.5 -56t47 -85.5t15.5 -108.5t-15.5 -108.5t-47 -85t-78.5 -55.5t-110 -20t-109.5 20t-78 55.5t-47 85t-15.5 108.5t15.5 108.5t47 85.5t79.5 56t110 20zM297 69q43 0 74.5 15t52 41.5t30 61.5t9.5 76q0 40 -9.5 75.5t-30 62t-52 41.5t-74.5 15
t-74 -15t-51.5 -41.5t-30 -62t-9.5 -75.5q0 -41 9.5 -76t30 -61.5t51.5 -41.5t74 -15zM319 769h92l-100 -141h-77z" />
    <glyph glyph-name="ocircumflex" unicode="&#xf4;" horiz-adv-x="595" 
d="M299 533q63 0 109 -20t77.5 -56t47 -85.5t15.5 -108.5t-15.5 -108.5t-47 -85t-78.5 -55.5t-110 -20t-109.5 20t-78 55.5t-47 85t-15.5 108.5t15.5 108.5t47 85.5t79.5 56t110 20zM297 69q43 0 74.5 15t52 41.5t30 61.5t9.5 76q0 40 -9.5 75.5t-30 62t-52 41.5t-74.5 15
t-74 -15t-51.5 -41.5t-30 -62t-9.5 -75.5q0 -41 9.5 -76t30 -61.5t51.5 -41.5t74 -15zM327 769l134 -163h-86l-78 96l-78 -96h-85l133 163h60z" />
    <glyph glyph-name="otilde" unicode="&#xf5;" horiz-adv-x="595" 
d="M299 533q63 0 109 -20t77.5 -56t47 -85.5t15.5 -108.5t-15.5 -108.5t-47 -85t-78.5 -55.5t-110 -20t-109.5 20t-78 55.5t-47 85t-15.5 108.5t15.5 108.5t47 85.5t79.5 56t110 20zM297 69q43 0 74.5 15t52 41.5t30 61.5t9.5 76q0 40 -9.5 75.5t-30 62t-52 41.5t-74.5 15
t-74 -15t-51.5 -41.5t-30 -62t-9.5 -75.5q0 -41 9.5 -76t30 -61.5t51.5 -41.5t74 -15zM362 615q-25 0 -44 11t-34.5 24.5t-28.5 25t-25 11.5t-18 -7.5t-8.5 -18t-3 -22t-0.5 -19.5h-69q0 24 4.5 47.5t15.5 42t30.5 29.5t49.5 11q25 0 44 -11.5t34.5 -25t28.5 -25t25 -11.5
t18.5 7.5t9.5 18t3 22.5v20h70q-1 -24 -5.5 -47.5t-16 -41.5t-31 -29.5t-49.5 -11.5z" />
    <glyph glyph-name="odieresis" unicode="&#xf6;" horiz-adv-x="587" 
d="M184 707q25 0 41.5 -15.5t16.5 -40.5t-16.5 -40.5t-41.5 -15.5q-24 0 -40.5 15.5t-16.5 40.5t16.5 40.5t40.5 15.5zM409 707q25 0 41.5 -15.5t16.5 -40.5t-16.5 -40.5t-41.5 -15.5q-24 0 -40 15.5t-16 40.5t16 40.5t40 15.5zM293 533q63 0 110 -20t78.5 -56t47 -85.5
t15.5 -108.5t-15.5 -108.5t-47 -85t-78.5 -55.5t-110 -20t-109.5 20t-78 55.5t-47 85t-15.5 108.5t15.5 108.5t47 85.5t78 56t109.5 20zM293 69q43 0 74.5 15t52 41.5t30 61.5t9.5 76q0 40 -9.5 75.5t-30 62t-52 41.5t-74.5 15t-74 -15t-51.5 -41.5t-30 -62t-9.5 -75.5
q0 -41 9.5 -76t30 -61.5t51.5 -41.5t74 -15z" />
    <glyph glyph-name="divide" unicode="&#xf7;" horiz-adv-x="474" 
d="M236 594q26 0 43 -17t17 -43t-17 -43t-43 -17t-42.5 17t-16.5 43t16.5 43t42.5 17zM59 399h356v-77h-356v77zM236 239q26 0 43 -17t17 -43q0 -27 -17 -44t-43 -17t-42.5 17t-16.5 44q0 26 16.5 43t42.5 17z" />
    <glyph glyph-name="oslash" unicode="&#xf8;" horiz-adv-x="595" 
d="M524 618l-69 -134q49 -38 71 -96.5t22 -124.5q0 -57 -15 -106t-46 -85t-78.5 -57t-111.5 -21q-50 0 -89 12l-50 -97h-87l68 132q-47 34 -69.5 92t-22.5 130q0 58 15 107.5t46 85.5t78.5 56.5t112.5 20.5q49 0 88 -12l50 97h87zM297 69q44 0 75.5 15.5t51.5 42t29.5 62
t9.5 74.5q0 87 -48 145l-171 -332q22 -7 53 -7zM297 457q-42 0 -73.5 -14.5t-51.5 -40.5t-30 -61.5t-10 -77.5t10.5 -82t35.5 -65l172 333q-26 8 -53 8z" />
    <glyph glyph-name="ugrave" unicode="&#xf9;" horiz-adv-x="576" 
d="M287 69q72 0 105.5 43.5t33.5 121.5v293h85v-297q0 -120 -57.5 -178t-166.5 -58t-165.5 58t-56.5 178v297h85v-293q0 -78 34 -121.5t103 -43.5zM282 628l-100 141h92l85 -141h-77z" />
    <glyph glyph-name="uacute" unicode="&#xfa;" horiz-adv-x="576" 
d="M287 69q72 0 105.5 43.5t33.5 121.5v293h85v-297q0 -120 -57.5 -178t-166.5 -58t-165.5 58t-56.5 178v297h85v-293q0 -78 34 -121.5t103 -43.5zM309 769h92l-100 -141h-77z" />
    <glyph glyph-name="ucircumflex" unicode="&#xfb;" horiz-adv-x="576" 
d="M287 69q72 0 105.5 43.5t33.5 121.5v293h85v-297q0 -120 -57.5 -178t-166.5 -58t-165.5 58t-56.5 178v297h85v-293q0 -78 34 -121.5t103 -43.5zM317 769l134 -163h-86l-78 96l-78 -96h-85l133 163h60z" />
    <glyph glyph-name="udieresis" unicode="&#xfc;" horiz-adv-x="576" 
d="M174 707q25 0 41.5 -15.5t16.5 -40.5t-16.5 -40.5t-41.5 -15.5q-24 0 -40.5 15.5t-16.5 40.5t16.5 40.5t40.5 15.5zM399 707q25 0 41.5 -15.5t16.5 -40.5t-16.5 -40.5t-41.5 -15.5q-24 0 -40 15.5t-16 40.5t16 40.5t40 15.5zM287 69q72 0 105.5 43.5t33.5 121.5v293h85
v-297q0 -120 -57.5 -178t-166.5 -58t-165.5 58t-56.5 178v297h85v-293q0 -78 34 -121.5t103 -43.5z" />
    <glyph glyph-name="yacute" unicode="&#xfd;" horiz-adv-x="597" 
d="M530 527v-527q0 -115 -60 -175.5t-171 -60.5q-67 1 -120.5 17.5t-98.5 58.5l37 67q39 -31 83.5 -49t93.5 -18q41 0 70 12.5t47.5 35t27 53.5t8.5 67v63q-13 -20 -32.5 -35.5t-42 -25t-48 -14t-51.5 -4.5q-60 1 -99.5 19t-63 50t-33.5 76.5t-10 98.5v291h85v-267
q0 -36 4.5 -71t18.5 -62t41 -43.5t72 -16.5t76.5 19t48.5 48q19 30 25.5 66t6.5 74v253h85zM328 769h92l-100 -141h-77z" />
    <glyph glyph-name="thorn" unicode="&#xfe;" horiz-adv-x="604" 
d="M67 -190v897h85v-259q29 41 75 63t99 22q60 0 104 -21.5t72 -58t41.5 -86t13.5 -104.5q0 -57 -14 -106t-42.5 -85t-73 -57t-105.5 -21q-50 0 -93.5 16.5t-76.5 55.5v-256h-85zM315 69q44 0 73.5 16t47.5 43t26.5 62t9.5 73q0 39 -8.5 74t-27 62t-49 42.5t-74.5 15.5
q-41 0 -71.5 -16.5t-50.5 -43.5t-30.5 -62.5t-10.5 -72.5q0 -39 9.5 -74t29.5 -61.5t51 -42t75 -15.5z" />
    <glyph glyph-name="ydieresis" unicode="&#xff;" horiz-adv-x="597" 
d="M530 527v-527q0 -115 -60 -175.5t-171 -60.5q-67 1 -120.5 17.5t-98.5 58.5l37 67q39 -31 83.5 -49t93.5 -18q41 0 70 12.5t47.5 35t27 53.5t8.5 67v63q-13 -20 -32.5 -35.5t-42 -25t-48 -14t-51.5 -4.5q-60 1 -99.5 19t-63 50t-33.5 76.5t-10 98.5v291h85v-267
q0 -36 4.5 -71t18.5 -62t41 -43.5t72 -16.5t76.5 19t48.5 48q19 30 25.5 66t6.5 74v253h85zM187 707q25 0 41.5 -15.5t16.5 -40.5t-16.5 -40.5t-41.5 -15.5q-24 0 -40.5 15.5t-16.5 40.5t16.5 40.5t40.5 15.5zM412 707q25 0 41.5 -15.5t16.5 -40.5t-16.5 -40.5t-41.5 -15.5
q-24 0 -40 15.5t-16 40.5t16 40.5t40 15.5z" />
    <glyph glyph-name="Amacron" unicode="&#x100;" horiz-adv-x="670" 
d="M566 0l-56 152h-350l-56 -152h-94l263 707h125l262 -707h-94zM335 631l-146 -400h292zM175 887h319v-74h-319v74z" />
    <glyph glyph-name="amacron" unicode="&#x101;" horiz-adv-x="555" 
d="M414 67q-17 -23 -39 -37t-45.5 -22t-47 -11t-46.5 -3q-37 0 -70 9t-59.5 29t-42 50t-15.5 68q0 45 16.5 75.5t44.5 49.5t64.5 26.5t77.5 7.5h155q0 67 -29 106.5t-98 41.5q-42 0 -74 -14t-44 -46h-91q7 36 28 61.5t50 42t63 24.5t68 8q59 0 99.5 -19.5t65.5 -51t35 -76.5
t10 -101v-285h-71zM314 238h-55.5t-60.5 -6.5t-46.5 -25.5t-17.5 -50q0 -23 9 -39t24.5 -27t35.5 -16t41 -5q75 0 118.5 36.5t44.5 106.5v26h-93zM124 707h319v-74h-319v74z" />
    <glyph glyph-name="Abreve" unicode="&#x102;" horiz-adv-x="670" 
d="M660 0h-94l-56 152h-350l-56 -152h-94l263 707h125zM481 231l-146 400l-146 -400h292zM337 860q42 0 66.5 16t26.5 51h78q-2 -65 -47.5 -99t-124.5 -34t-123.5 34t-46.5 99h78q2 -35 26.5 -51t66.5 -16z" />
    <glyph glyph-name="abreve" unicode="&#x103;" horiz-adv-x="555" 
d="M287 667q40 0 63.5 15.5t25.5 57.5h78v-3q0 -68 -45.5 -100.5t-119.5 -32.5q-82 0 -126.5 31.5t-44.5 104.5h78q0 -42 24 -57.5t67 -15.5zM414 67q-17 -23 -38 -37t-44.5 -22t-48 -11t-47.5 -3q-37 0 -70.5 9.5t-59.5 29t-41.5 49.5t-15.5 68q0 45 16.5 75.5t44.5 49.5
t64.5 26.5t77.5 7.5h155q0 67 -29 106.5t-98 41.5q-42 0 -74 -14t-44 -46h-91q7 36 28 61.5t50 42t63 24.5t68 8q59 0 99.5 -19.5t65.5 -51t35 -76.5t10 -101v-285h-71zM314 238q-24 0 -55.5 -0.5t-60.5 -6.5t-46.5 -25t-17.5 -50q0 -23 9 -39t24.5 -27t35.5 -16t41 -5
q75 0 118.5 36.5t44.5 106.5v26h-93z" />
    <glyph glyph-name="Aogonek" unicode="&#x104;" horiz-adv-x="670" 
d="M615 -224q-61 1 -95 31.5t-34 81.5q0 45 29 77q22 25 49 40l-54 146h-350l-56 -152h-94l263 707h125l262 -707h-24q-12 -7 -23 -16q-15 -12 -26.5 -24.5t-19 -28t-7.5 -32.5q0 -28 17.5 -43.5t46.5 -15.5q24 0 48 12l14 -59q-18 -10 -34.5 -13.5t-36.5 -3.5zM335 631
l-146 -400h292z" />
    <glyph glyph-name="aogonek" unicode="&#x105;" horiz-adv-x="555" 
d="M459 -224q-61 1 -95 31.5t-34 81.5q0 45 29 77q26 29 59 45l-4 56q-17 -23 -39 -37t-45.5 -22t-47 -11t-46.5 -3q-37 0 -70 9t-59.5 29t-42 50t-15.5 68q0 45 16.5 75.5t44.5 49.5t64.5 26.5t77.5 7.5h155q0 67 -29 106.5t-98 41.5q-42 0 -74 -14t-44 -46h-91
q7 36 28 61.5t50 42t63 24.5t68 8q59 0 99.5 -19.5t65.5 -51t35 -76.5t10 -101v-285h-10q-12 -7 -23 -16q-15 -12 -26.5 -24.5t-19 -28t-7.5 -32.5q0 -28 17.5 -43.5t46.5 -15.5q24 0 48 12l14 -59q-18 -10 -34.5 -13.5t-36.5 -3.5zM407 238h-149q-31 0 -60 -6.5
t-46.5 -25.5t-17.5 -50q0 -23 9 -39t24.5 -27t35.5 -16t41 -5q75 0 118.5 36.5t44.5 106.5v26z" />
    <glyph glyph-name="Cacute" unicode="&#x106;" horiz-adv-x="704" 
d="M372 636q-63 0 -107.5 -23t-73 -62t-41.5 -89.5t-13 -105.5q0 -59 14 -111t43 -90.5t74 -61t107 -22.5q75 0 126 31t66 83h95q-23 -88 -97 -140.5t-192 -52.5q-82 0 -143 27t-101.5 75t-60.5 114t-20 145q0 78 20 144t61 114.5t102 76t144 27.5q58 0 104.5 -14t81 -39.5
t56.5 -61t32 -78.5h-88q-15 52 -64.5 83t-124.5 31zM386 927h92l-100 -141h-77z" />
    <glyph glyph-name="cacute" unicode="&#x107;" horiz-adv-x="553" 
d="M292 -6q-63 0 -109 20t-76 56t-45 85t-15 107q0 56 16 105.5t47 86t78 58t114 21.5q40 0 71 -8.5t58.5 -27t47.5 -48.5t29 -73h-87q-15 44 -47.5 63t-76.5 18q-43 0 -75.5 -16.5t-52 -43.5t-28.5 -62.5t-9 -72.5q0 -39 9.5 -74t29 -61.5t50.5 -42t74 -15.5q21 0 41.5 4
t38 13.5t30.5 25.5t19 39h88q-8 -41 -28.5 -70.5t-50.5 -49t-66 -28.5t-75 -9zM313 769h92l-100 -141h-77z" />
    <glyph glyph-name="Ccircumflex" unicode="&#x108;" horiz-adv-x="704" 
d="M372 636q-63 0 -107.5 -23t-73 -62t-41.5 -89.5t-13 -105.5q0 -59 14 -111t43 -90.5t74 -61t107 -22.5q75 0 126 31t66 83h95q-23 -88 -97 -140.5t-192 -52.5q-82 0 -143 27t-101.5 75t-60.5 114t-20 145q0 78 20 144t61 114.5t102 76t144 27.5q58 0 104.5 -14t81 -39.5
t56.5 -61t32 -78.5h-88q-15 52 -64.5 83t-124.5 31zM401 949l134 -163h-86l-78 96l-78 -96h-85l133 163h60z" />
    <glyph glyph-name="ccircumflex" unicode="&#x109;" horiz-adv-x="553" 
d="M292 -6q-63 0 -109 20t-76 56t-45 85t-15 107q0 56 16 105.5t47 86t78 58t114 21.5q40 0 71 -8.5t58.5 -27t47.5 -48.5t29 -73h-87q-15 44 -47.5 63t-76.5 18q-43 0 -75.5 -16.5t-52 -43.5t-28.5 -62.5t-9 -72.5q0 -39 9.5 -74t29 -61.5t50.5 -42t74 -15.5q21 0 41.5 4
t38 13.5t30.5 25.5t19 39h88q-8 -41 -28.5 -70.5t-50.5 -49t-66 -28.5t-75 -9zM321 769l134 -163h-86l-78 96l-78 -96h-85l133 163h60z" />
    <glyph glyph-name="Cdotaccent" unicode="&#x10a;" horiz-adv-x="704" 
d="M372 636q-63 0 -107.5 -23t-73 -62t-41.5 -89.5t-13 -105.5q0 -59 14 -111t43 -90.5t74 -61t107 -22.5q75 0 126 31t66 83h95q-23 -88 -97 -140.5t-192 -52.5q-82 0 -143 27t-101.5 75t-60.5 114t-20 145q0 78 20 144t61 114.5t102 76t144 27.5q58 0 104.5 -14t81 -39.5
t56.5 -61t32 -78.5h-88q-15 52 -64.5 83t-124.5 31zM371 898q23 1 40.5 -15.5t17.5 -40.5q0 -25 -17 -41t-41 -16q-26 0 -41.5 16t-15.5 41t16 40.5t41 15.5z" />
    <glyph glyph-name="cdotaccent" unicode="&#x10b;" horiz-adv-x="553" 
d="M292 -6q-63 0 -109 20t-76 56t-45 85t-15 107q0 56 16 105.5t47 86t78 58t114 21.5q40 0 71 -8.5t58.5 -27t47.5 -48.5t29 -73h-87q-15 44 -47.5 63t-76.5 18q-43 0 -75.5 -16.5t-52 -43.5t-28.5 -62.5t-9 -72.5q0 -39 9.5 -74t29 -61.5t50.5 -42t74 -15.5q21 0 41.5 4
t38 13.5t30.5 25.5t19 39h88q-8 -41 -28.5 -70.5t-50.5 -49t-66 -28.5t-75 -9zM291 717q23 1 40.5 -15.5t17.5 -40.5q0 -25 -17 -41t-41 -16q-26 0 -41.5 16t-15.5 41t16 40.5t41 15.5z" />
    <glyph glyph-name="Ccaron" unicode="&#x10c;" horiz-adv-x="704" 
d="M372 636q-63 0 -107.5 -23t-73 -62t-41.5 -89.5t-13 -105.5q0 -59 14 -111t43 -90.5t74 -61t107 -22.5q75 0 126 31t66 83h95q-23 -88 -97 -140.5t-192 -52.5q-82 0 -143 27t-101.5 75t-60.5 114t-20 145q0 78 20 144t61 114.5t102 76t144 27.5q58 0 104.5 -14t81 -39.5
t56.5 -61t32 -78.5h-88q-15 52 -64.5 83t-124.5 31zM339 786l-135 163h87l78 -96l78 96h85l-134 -163h-59z" />
    <glyph glyph-name="ccaron" unicode="&#x10d;" horiz-adv-x="553" 
d="M292 -6q-63 0 -109 20t-76 56t-45 85t-15 107q0 56 16 105.5t47 86t78 58t114 21.5q40 0 71 -8.5t58.5 -27t47.5 -48.5t29 -73h-87q-15 44 -47.5 63t-76.5 18q-43 0 -75.5 -16.5t-52 -43.5t-28.5 -62.5t-9 -72.5q0 -39 9.5 -74t29 -61.5t50.5 -42t74 -15.5q21 0 41.5 4
t38 13.5t30.5 25.5t19 39h88q-8 -41 -28.5 -70.5t-50.5 -49t-66 -28.5t-75 -9zM269 606l-135 163h87l78 -96l78 96h85l-134 -163h-59z" />
    <glyph glyph-name="Dcaron" unicode="&#x10e;" horiz-adv-x="720" 
d="M87 707h251q82 0 144.5 -25.5t104.5 -72t63 -112t21 -144.5q-1 -79 -22 -144t-62.5 -111.5t-103.5 -72t-145 -25.5h-251v707zM174 628v-549h158q54 0 103.5 16.5t84.5 58.5q32 37 47 87.5t15 111.5q0 63 -15 112t-45 85t-76 57t-109 21h-163zM310 786l-135 163h87l78 -96
l78 96h85l-134 -163h-59z" />
    <glyph glyph-name="dcaron" unicode="&#x10f;" horiz-adv-x="672" 
d="M537 0h-81l-4 79q-27 -45 -74.5 -65t-99.5 -20q-60 1 -104 21.5t-72 56.5t-41.5 84.5t-13.5 105.5t14 106.5t43 86t73 57.5t105 21q46 0 93 -17t77 -55v246h85v-707zM289 457q-43 0 -73 -15.5t-48.5 -41.5t-27 -61.5t-8.5 -77.5t8 -75.5t27 -59.5t49 -41.5t74 -15.5
q51 0 84 24t53 60q14 25 20 54.5t6 58.5q0 36 -6.5 66t-23.5 56q-20 29 -53 49t-81 20zM627 603q-26 2 -42 17t-16 40q0 28 17.5 43t42.5 15q35 0 50 -26q13 -24 13 -53q0 -27 -8.5 -50.5t-22.5 -44.5t-32.5 -37t-38.5 -23l-24 33q20 14 37.5 38t23.5 48z" />
    <glyph glyph-name="Dcroat" unicode="&#x110;" horiz-adv-x="720" 
d="M9 392h78v315h251q82 0 144.5 -25.5t104.5 -72t63 -112t21 -144.5q-1 -79 -22 -144t-62.5 -111.5t-103.5 -72t-145 -25.5h-251v314h-78v78zM174 628v-236h159v-78h-159v-235h158q54 0 103.5 16.5t84.5 58.5q32 37 47 87.5t15 111.5q0 63 -15 112t-45 85t-76 57t-109 21
h-163z" />
    <glyph glyph-name="dcroat" unicode="&#x111;" horiz-adv-x="604" 
d="M353 639h99v68h85v-68h90v-73h-90v-566h-81l-4 79q-27 -45 -74.5 -65t-99.5 -20q-60 1 -104 21.5t-72 56.5t-41.5 84.5t-13.5 105.5t14 106.5t43 86t73 57.5t105 21q46 0 93 -17t77 -55v105h-99v73zM289 457q-43 0 -73 -15.5t-48.5 -41.5t-27 -61.5t-8.5 -77.5t8 -75.5
t27 -59.5t49 -41.5t74 -15.5q51 0 84 24t53 60q14 25 20 54.5t6 58.5q0 36 -6.5 66t-23.5 56q-20 29 -53 49t-81 20z" />
    <glyph glyph-name="Emacron" unicode="&#x112;" horiz-adv-x="610" 
d="M87 707h475v-79h-388v-238h349v-80h-349v-231h388v-79h-475v707zM168 887h319v-74h-319v74z" />
    <glyph glyph-name="emacron" unicode="&#x113;" horiz-adv-x="573" 
d="M133 232q3 -35 14.5 -64.5t31.5 -51.5t49.5 -34.5t68.5 -12.5q19 0 39.5 3.5t38.5 12t32 22.5t21 34h87q-9 -38 -30.5 -66t-51 -46t-65.5 -26.5t-73 -8.5q-63 0 -109.5 20t-77.5 55.5t-46 85t-15 108.5t16.5 108.5t47.5 85.5t76 56t107 20q63 0 109 -25t74 -65.5
t39.5 -87.5t9.5 -87q0 -9 -0.5 -18t-1.5 -18h-391zM440 306q-2 67 -42 109t-107 42q-37 0 -65 -12t-47 -33t-30 -48.5t-14 -57.5h305zM134 707h319v-74h-319v74z" />
    <glyph glyph-name="Ebreve" unicode="&#x114;" horiz-adv-x="610" 
d="M87 707h475v-79h-388v-238h349v-80h-349v-231h388v-79h-475v707zM334 847q42 0 66.5 16t26.5 51h78q-2 -65 -47.5 -99t-124.5 -34t-123.5 34t-46.5 99h78q2 -35 26.5 -51t66.5 -16z" />
    <glyph glyph-name="ebreve" unicode="&#x115;" horiz-adv-x="573" 
d="M133 232q3 -35 14.5 -64.5t31.5 -51.5t49.5 -34.5t68.5 -12.5q19 0 39.5 3.5t38.5 12t32 22.5t21 34h87q-9 -38 -30.5 -66t-51 -46t-65.5 -26.5t-73 -8.5q-63 0 -109.5 20t-77.5 55.5t-46 85t-15 108.5t16.5 108.5t47.5 85.5t76 56t107 20q63 0 109 -25t74 -65.5
t39.5 -87.5t9.5 -87q0 -9 -0.5 -18t-1.5 -18h-391zM440 306q-2 67 -42 109t-107 42q-37 0 -65 -12t-47 -33t-30 -48.5t-14 -57.5h305zM296 673q42 0 66.5 16t26.5 51h78q-2 -65 -47.5 -99t-124.5 -34t-123.5 34t-46.5 99h78q2 -35 26.5 -51t66.5 -16z" />
    <glyph glyph-name="Edotaccent" unicode="&#x116;" horiz-adv-x="610" 
d="M87 707h475v-79h-388v-238h349v-80h-349v-231h388v-79h-475v707zM330 898q23 1 40.5 -15.5t17.5 -40.5q0 -25 -17 -41t-41 -16q-26 0 -41.5 16t-15.5 41t16 40.5t41 15.5z" />
    <glyph glyph-name="edotaccent" unicode="&#x117;" horiz-adv-x="573" 
d="M133 232q3 -35 14.5 -64.5t31.5 -51.5t49.5 -34.5t68.5 -12.5q19 0 39.5 3.5t38.5 12t32 22.5t21 34h87q-9 -38 -30.5 -66t-51 -46t-65.5 -26.5t-73 -8.5q-63 0 -109.5 20t-77.5 55.5t-46 85t-15 108.5t16.5 108.5t47.5 85.5t76 56t107 20q63 0 109 -25t74 -65.5
t39.5 -87.5t9.5 -87q0 -9 -0.5 -18t-1.5 -18h-391zM440 306q-2 67 -42 109t-107 42q-37 0 -65 -12t-47 -33t-30 -48.5t-14 -57.5h305zM294 718q23 1 40.5 -15.5t17.5 -40.5q0 -25 -17 -41t-41 -16q-26 0 -41.5 16t-15.5 41t16 40.5t41 15.5z" />
    <glyph glyph-name="Eogonek" unicode="&#x118;" horiz-adv-x="610" 
d="M365 -224q-61 1 -95 31.5t-34 81.5q0 45 29 77q18 20 39 34h-217v707h475v-79h-388v-238h349v-80h-349v-231h388v-79h-176q-12 -7 -23 -16q-15 -12 -26.5 -24.5t-19 -28t-7.5 -32.5q0 -28 17.5 -43.5t46.5 -15.5q24 0 48 12l14 -59q-18 -10 -34.5 -13.5t-36.5 -3.5z" />
    <glyph glyph-name="eogonek" unicode="&#x119;" horiz-adv-x="573" 
d="M347 -224q-61 1 -95 31.5t-34 81.5q0 45 29 77q14 16 30 29q-52 2 -92 19q-46 20 -77 55.5t-46 85t-15 108.5t16.5 108.5t47.5 85.5t76 56t107 20q63 0 109 -25t74 -65.5t39.5 -87.5t9.5 -87q0 -9 -0.5 -18t-1.5 -18h-391q3 -35 14.5 -64.5t31.5 -51.5t49.5 -34.5
t68.5 -12.5q19 0 39.5 3.5t38.5 12t32 22.5t21 34h87q-9 -38 -30.5 -66t-51.5 -46q-26 -17 -58 -25q-16 -7 -31 -20q-14 -12 -25.5 -24.5t-19 -28t-7.5 -32.5q0 -28 17.5 -43.5t46.5 -15.5q24 0 48 12l14 -59q-18 -10 -34.5 -13.5t-36.5 -3.5zM440 306q-2 67 -42 109
t-107 42q-37 0 -65 -12t-47 -33t-30 -48.5t-14 -57.5h305z" />
    <glyph glyph-name="Ecaron" unicode="&#x11a;" horiz-adv-x="610" 
d="M87 707h475v-79h-388v-238h349v-80h-349v-231h388v-79h-475v707zM304 786l-135 163h87l78 -96l78 96h85l-134 -163h-59z" />
    <glyph glyph-name="ecaron" unicode="&#x11b;" horiz-adv-x="573" 
d="M133 232q3 -35 14.5 -64.5t31.5 -51.5t49.5 -34.5t68.5 -12.5q19 0 39.5 3.5t38.5 12t32 22.5t21 34h87q-9 -38 -30.5 -66t-51 -46t-65.5 -26.5t-73 -8.5q-63 0 -109.5 20t-77.5 55.5t-46 85t-15 108.5t16.5 108.5t47.5 85.5t76 56t107 20q63 0 109 -25t74 -65.5
t39.5 -87.5t9.5 -87q0 -9 -0.5 -18t-1.5 -18h-391zM440 306q-2 67 -42 109t-107 42q-37 0 -65 -12t-47 -33t-30 -48.5t-14 -57.5h305zM267 606l-135 163h87l78 -96l78 96h85l-134 -163h-59z" />
    <glyph glyph-name="Gcircumflex" unicode="&#x11c;" horiz-adv-x="720" 
d="M369 636q-62 0 -106 -22t-72 -60.5t-41 -90t-13 -110.5t14 -110t42.5 -89.5t73 -60.5t106.5 -22q106 0 159 56q31 32 44 69t13 82h-232v79h315v-59q0 -29 -5 -60t-15 -60.5t-25.5 -56t-36.5 -47.5q-40 -38 -94.5 -60t-123.5 -22q-83 0 -143.5 27t-101 74.5t-60 113.5
t-19.5 144t19.5 144.5t59 115t100 76.5t143.5 28q117 0 189 -52.5t95 -140.5h-95q-15 52 -65 83t-125 31zM398 949l134 -163h-86l-78 96l-78 -96h-85l133 163h60z" />
    <glyph glyph-name="gcircumflex" unicode="&#x11d;" horiz-adv-x="604" 
d="M537 4q0 -112 -60 -176t-181 -64q-40 0 -76.5 9t-66 28.5t-50 49t-28.5 70.5h88q6 -23 20.5 -38.5t33.5 -25t41 -13.5t43 -4q40 0 69 12.5t47 34.5t26.5 52.5t8.5 66.5v73q-26 -46 -74 -65.5t-100 -19.5q-60 1 -104 21.5t-72 56.5t-41.5 84.5t-13.5 105.5t14 106.5t43 86
t73 57.5t105 21q46 0 93 -17t77 -55l4 66h81v-523zM289 457q-43 0 -73 -15.5t-48.5 -41.5t-27 -61.5t-8.5 -75.5q0 -44 8 -77.5t27 -59.5t49 -41.5t74 -15.5q51 0 84 24t53 60q14 25 20 54.5t6 58.5q0 36 -6.5 66t-23.5 56q-20 29 -53 49t-81 20zM325 769l134 -163h-86
l-78 96l-78 -96h-85l133 163h60z" />
    <glyph glyph-name="Gbreve" unicode="&#x11e;" horiz-adv-x="720" 
d="M369 636q-62 0 -106 -22t-72 -60.5t-41 -90t-13 -110.5t14 -110t42.5 -89.5t73 -60.5t106.5 -22q106 0 159 56q31 32 44 69t13 82h-232v79h315v-59q0 -29 -5 -60t-15 -60.5t-25.5 -56t-36.5 -47.5q-40 -38 -94.5 -60t-123.5 -22q-83 0 -143.5 27t-101 74.5t-60 113.5
t-19.5 144t19.5 144.5t59 115t100 76.5t143.5 28q117 0 189 -52.5t95 -140.5h-95q-15 52 -65 83t-125 31zM367 860q42 0 66.5 16t26.5 51h78q-2 -65 -47.5 -99t-124.5 -34t-123.5 34t-46.5 99h78q2 -35 26.5 -51t66.5 -16z" />
    <glyph glyph-name="gbreve" unicode="&#x11f;" horiz-adv-x="604" 
d="M537 4q0 -112 -60 -176t-181 -64q-40 0 -76.5 9t-66 28.5t-50 49t-28.5 70.5h88q6 -23 20.5 -38.5t33.5 -25t41 -13.5t43 -4q40 0 69 12.5t47 34.5t26.5 52.5t8.5 66.5v73q-26 -46 -74 -65.5t-100 -19.5q-60 1 -104 21.5t-72 56.5t-41.5 84.5t-13.5 105.5t14 106.5t43 86
t73 57.5t105 21q46 0 93 -17t77 -55l4 66h81v-523zM289 457q-43 0 -73 -15.5t-48.5 -41.5t-27 -61.5t-8.5 -75.5q0 -44 8 -77.5t27 -59.5t49 -41.5t74 -15.5q51 0 84 24t53 60q14 25 20 54.5t6 58.5q0 36 -6.5 66t-23.5 56q-20 29 -53 49t-81 20zM299 673q42 0 66.5 16
t26.5 51h78q-2 -65 -47.5 -99t-124.5 -34t-123.5 34t-46.5 99h78q2 -35 26.5 -51t66.5 -16z" />
    <glyph glyph-name="Gdotaccent" unicode="&#x120;" horiz-adv-x="720" 
d="M369 636q-62 0 -106 -22t-72 -60.5t-41 -90t-13 -110.5t14 -110t42.5 -89.5t73 -60.5t106.5 -22q106 0 159 56q31 32 44 69t13 82h-232v79h315v-59q0 -29 -5 -60t-15 -60.5t-25.5 -56t-36.5 -47.5q-40 -38 -94.5 -60t-123.5 -22q-83 0 -143.5 27t-101 74.5t-60 113.5
t-19.5 144t19.5 144.5t59 115t100 76.5t143.5 28q117 0 189 -52.5t95 -140.5h-95q-15 52 -65 83t-125 31zM369 898q23 1 40.5 -15.5t17.5 -40.5q0 -25 -17 -41t-41 -16q-26 0 -41.5 16t-15.5 41t16 40.5t41 15.5z" />
    <glyph glyph-name="gdotaccent" unicode="&#x121;" horiz-adv-x="604" 
d="M537 4q0 -112 -60 -176t-181 -64q-40 0 -76.5 9t-66 28.5t-50 49t-28.5 70.5h88q6 -23 20.5 -38.5t33.5 -25t41 -13.5t43 -4q40 0 69 12.5t47 34.5t26.5 52.5t8.5 66.5v73q-26 -46 -74 -65.5t-100 -19.5q-60 1 -104 21.5t-72 56.5t-41.5 84.5t-13.5 105.5t14 106.5t43 86
t73 57.5t105 21q46 0 93 -17t77 -55l4 66h81v-523zM289 457q-43 0 -73 -15.5t-48.5 -41.5t-27 -61.5t-8.5 -75.5q0 -44 8 -77.5t27 -59.5t49 -41.5t74 -15.5q51 0 84 24t53 60q14 25 20 54.5t6 58.5q0 36 -6.5 66t-23.5 56q-20 29 -53 49t-81 20zM288 718q23 1 40.5 -15.5
t17.5 -40.5q0 -25 -17 -41t-41 -16q-26 0 -41.5 16t-15.5 41t16 40.5t41 15.5z" />
    <glyph glyph-name="uni0122" unicode="&#x122;" horiz-adv-x="720" 
d="M369 636q-62 0 -106 -22t-72 -60.5t-41 -90t-13 -110.5t14 -110t42.5 -89.5t73 -60.5t106.5 -22q106 0 159 56q31 32 44 69t13 82h-232v79h315v-59q0 -29 -5 -60t-15 -60.5t-25.5 -56t-36.5 -47.5q-40 -38 -94.5 -60t-123.5 -22q-83 0 -143.5 27t-101 74.5t-60 113.5
t-19.5 144t19.5 144.5t59 115t100 76.5t143.5 28q117 0 189 -52.5t95 -140.5h-95q-15 52 -65 83t-125 31zM372 -185q-26 2 -42 17t-16 40q0 28 17 43t39 15q37 1 53 -23.5t14 -55.5q0 -27 -8.5 -50.5t-22.5 -44.5t-32.5 -37t-38.5 -23l-24 33q20 14 37.5 38t23.5 48z" />
    <glyph glyph-name="uni0123" unicode="&#x123;" horiz-adv-x="604" 
d="M537 4q0 -112 -60 -176t-181 -64q-40 0 -76.5 9t-66 28.5t-50 49t-28.5 70.5h88q6 -23 20.5 -38.5t33.5 -25t41 -13.5t43 -4q40 0 69 12.5t47 34.5t26.5 52.5t8.5 66.5v73q-26 -46 -74 -65.5t-100 -19.5q-60 1 -104 21.5t-72 56.5t-41.5 84.5t-13.5 105.5t14 106.5t43 86
t73 57.5t105 21q46 0 93 -17t77 -55l4 66h81v-523zM289 457q-43 0 -73 -15.5t-48.5 -41.5t-27 -61.5t-8.5 -75.5q0 -44 8 -77.5t27 -59.5t49 -41.5t74 -15.5q51 0 84 24t53 60q14 25 20 54.5t6 58.5q0 36 -6.5 66t-23.5 56q-20 29 -53 49t-81 20zM287 715q26 -2 42 -17
t16 -40q0 -28 -18 -43t-40 -15q-35 1 -52 28q-13 22 -13 51q0 26 8.5 50t22.5 45t32.5 37t38.5 23l24 -33q-20 -14 -37.5 -38t-23.5 -48z" />
    <glyph glyph-name="Hcircumflex" unicode="&#x124;" horiz-adv-x="727" 
d="M553 387v320h87v-707h-87v307h-379v-307h-87v707h87v-320h379zM394 949l134 -163h-86l-78 96l-78 -96h-85l133 163h60z" />
    <glyph glyph-name="hcircumflex" unicode="&#x125;" horiz-adv-x="591" 
d="M67 0v707h85v-261q13 20 33 37t42 28t48.5 16.5t51.5 5.5q57 0 95.5 -18.5t62 -51t33 -77t9.5 -96.5v-290h-85v264q0 36 -4 70.5t-18 61.5t-40 44.5t-71 17.5q-37 0 -68.5 -18.5t-50.5 -46.5q-23 -31 -30.5 -69t-7.5 -78v-246h-85zM339 927l134 -163h-86l-78 96l-78 -96
h-85l133 163h60z" />
    <glyph glyph-name="Hbar" unicode="&#x126;" horiz-adv-x="727" 
d="M0 584h87v123h87v-123h379v123h87v-123h88v-74h-88v-510h-87v307h-379v-307h-87v510h-87v74zM553 387v123h-379v-123h379z" />
    <glyph glyph-name="hbar" unicode="&#x127;" horiz-adv-x="591" 
d="M67 0v566h-83v73h83v68h85v-68h103v-73h-103v-120q13 20 33 37t42 28t48.5 16.5t51.5 5.5q57 0 95.5 -18.5t62 -51t33 -77t9.5 -96.5v-290h-85v264q0 36 -4 70.5t-18 61.5t-40 44.5t-71 17.5q-37 0 -68.5 -18.5t-50.5 -46.5q-23 -31 -30.5 -69t-7.5 -78v-246h-85z" />
    <glyph glyph-name="Itilde" unicode="&#x128;" horiz-adv-x="261" 
d="M174 0h-87v707h87v-707zM195 795q-25 0 -44 11t-34.5 24.5t-28.5 25t-25 11.5t-18 -7.5t-8.5 -18t-3 -22t-0.5 -19.5h-69q0 24 4.5 47.5t15.5 42t30.5 29.5t49.5 11q25 0 44 -11.5t34.5 -25t28.5 -25t25 -11.5t18.5 7.5t9.5 18t3 22.5v20h70q-1 -24 -5.5 -47.5t-16 -41.5
t-31 -29.5t-49.5 -11.5z" />
    <glyph glyph-name="itilde" unicode="&#x129;" horiz-adv-x="239" 
d="M162 0h-85v527h85v-527zM192 615q-25 0 -44 11t-34.5 24.5t-28.5 25t-25 11.5t-18 -7.5t-8.5 -18t-3 -22t-0.5 -19.5h-69q0 24 4.5 47.5t15.5 42t30.5 29.5t49.5 11q25 0 44 -11.5t34.5 -25t28.5 -25t25 -11.5t18.5 7.5t9.5 18t3 22.5v20h70q-1 -24 -5.5 -47.5t-16 -41.5
t-31 -29.5t-49.5 -11.5z" />
    <glyph glyph-name="Imacron" unicode="&#x12a;" horiz-adv-x="261" 
d="M174 0h-87v707h87v-707zM-24 887h309v-74h-309v74z" />
    <glyph glyph-name="imacron" unicode="&#x12b;" horiz-adv-x="239" 
d="M162 0h-85v527h85v-527zM-20 707h279v-74h-279v74z" />
    <glyph glyph-name="Ibreve" unicode="&#x12c;" horiz-adv-x="261" 
d="M174 0h-87v707h87v-707zM130 847q42 0 66.5 16t26.5 51h78q-2 -65 -47.5 -99t-124.5 -34t-123.5 34t-46.5 99h78q2 -35 26.5 -51t66.5 -16z" />
    <glyph glyph-name="ibreve" unicode="&#x12d;" horiz-adv-x="219" 
d="M152 0h-85v527h85v-527zM110 673q42 0 66.5 16t26.5 51h78q-2 -65 -47.5 -99t-124.5 -34t-123.5 34t-46.5 99h78q2 -35 26.5 -51t66.5 -16z" />
    <glyph glyph-name="Iogonek" unicode="&#x12e;" horiz-adv-x="261" 
d="M155 -224q-61 1 -95 31.5t-34 81.5q0 45 29 77q18 20 39 34h-7v707h87v-707h-7q-5 -5 -18 -17q-11 -11 -22.5 -23.5t-19 -28t-7.5 -32.5q0 -28 17.5 -43.5t46.5 -15.5q24 0 48 12l14 -59q-18 -10 -34.5 -13.5t-36.5 -3.5z" />
    <glyph glyph-name="iogonek" unicode="&#x12f;" horiz-adv-x="233" 
d="M116 720q24 0 41 -15.5t17 -40.5t-17 -41t-41 -16q-25 0 -41 16t-16 41t16 40.5t41 15.5zM145 -224q-61 1 -95 31.5t-34 81.5q0 45 29 77q18 20 39 34h-10v527h85v-527h-5q-5 -5 -14 -15q-12 -13 -23.5 -25.5t-19 -28t-7.5 -32.5q0 -28 17.5 -43.5t46.5 -15.5q24 0 48 12
l14 -59q-18 -10 -34.5 -13.5t-36.5 -3.5z" />
    <glyph glyph-name="Idotaccent" unicode="&#x130;" horiz-adv-x="261" 
d="M130 897q24 0 41 -15.5t17 -40.5t-17 -41t-41 -16q-25 0 -41 16t-16 41t16 40.5t41 15.5zM174 0h-87v707h87v-707z" />
    <glyph glyph-name="dotlessi" unicode="&#x131;" horiz-adv-x="219" 
d="M152 0h-85v527h85v-527z" />
    <glyph glyph-name="IJ" unicode="&#x132;" horiz-adv-x="749" 
d="M174 0h-87v707h87v-707zM321 195q6 -57 38 -90t98 -34q35 0 58.5 11.5t38 32t20.5 49t6 62.5v481h87v-463q0 -56 -11 -102t-36 -79.5t-65 -52t-98 -18.5q-104 0 -161 49t-63 154h88z" />
    <glyph glyph-name="ij" unicode="&#x133;" horiz-adv-x="460" 
d="M116 720q24 0 41 -15.5t17 -40.5t-17 -41t-41 -16q-25 0 -41 16t-16 41t16 40.5t41 15.5zM74 0v527h85v-527h-85zM343 720q24 0 41 -15.5t17 -40.5t-17 -41t-41 -16q-25 0 -41 16t-16 41t16 40.5t41 15.5zM386 527v-537q0 -88 -38 -129t-127 -41h-46v74h36q54 0 72 27
t18 78v528h85z" />
    <glyph glyph-name="Jcircumflex" unicode="&#x134;" horiz-adv-x="558" 
d="M130 195q6 -57 38 -90t98 -34q35 0 58.5 11.5t38 32t20.5 49t6 62.5v481h87v-463q0 -56 -11 -102t-36 -79.5t-65 -52t-98 -18.5q-104 0 -161 49t-63 154h88zM456 949l134 -163h-86l-78 96l-78 -96h-85l133 163h60z" />
    <glyph glyph-name="jcircumflex" unicode="&#x135;" horiz-adv-x="254" 
d="M180 527v-537q0 -88 -38 -129t-127 -41h-46v74h36q54 0 72 27t18 78v528h85zM165 769l134 -163h-86l-78 96l-78 -96h-85l133 163h60z" />
    <glyph glyph-name="uni0136" unicode="&#x136;" horiz-adv-x="625" 
d="M87 0v707h87v-326h104l231 326h100l-254 -351l256 -356h-103l-222 302h-112v-302h-87zM326 -185q-26 2 -42 17t-16 40q0 28 17 43t40 15q36 0 52 -24t14 -55q0 -27 -8.5 -50.5t-22.5 -44.5t-32.5 -37t-38.5 -23l-24 33q20 14 37.5 38t23.5 48z" />
    <glyph glyph-name="uni0137" unicode="&#x137;" horiz-adv-x="520" 
d="M67 0v707h85v-407h92l158 227h96l-176 -251l191 -276h-100l-159 226h-102v-226h-85zM268 -185q-26 2 -42 17t-16 40q0 28 17 43t40 15q36 0 52 -24t14 -55q0 -27 -8.5 -50.5t-22.5 -44.5t-32.5 -37t-38.5 -23l-24 33q20 14 37.5 38t23.5 48z" />
    <glyph glyph-name="kgreenlandic" unicode="&#x138;" horiz-adv-x="519" 
d="M67 0v527h85v-227h92l156 227h97l-176 -251l191 -276h-100l-158 226h-102v-226h-85z" />
    <glyph glyph-name="Lacute" unicode="&#x139;" horiz-adv-x="574" 
d="M87 707h87v-628h388v-79h-475v707zM215 927h92l-100 -141h-77z" />
    <glyph glyph-name="lacute" unicode="&#x13a;" horiz-adv-x="219" 
d="M67 0v707h85v-707h-85zM145 927h92l-100 -141h-77z" />
    <glyph glyph-name="uni013B" unicode="&#x13b;" horiz-adv-x="574" 
d="M87 707h87v-628h388v-79h-475v707zM323 -185q-26 2 -42 17t-16 40q0 28 17 43t40 15q36 0 52 -24t14 -55q0 -27 -8.5 -50.5t-22.5 -44.5t-32.5 -37t-38.5 -23l-24 33q20 14 37.5 38t23.5 48z" />
    <glyph glyph-name="uni013C" unicode="&#x13c;" horiz-adv-x="219" 
d="M67 0v707h85v-707h-85zM109 -185q-26 2 -42 17t-16 40q0 28 17 43t40 15q36 0 52 -24t14 -55q0 -27 -8.5 -50.5t-22.5 -44.5t-32.5 -37t-38.5 -23l-24 33q20 14 37.5 38t23.5 48z" />
    <glyph glyph-name="Lcaron" unicode="&#x13d;" horiz-adv-x="574" 
d="M87 707h87v-628h388v-79h-475v707zM370 599q-26 2 -42 17t-16 40q0 28 17 43t44 15q32 0 49 -26q13 -24 13 -53q0 -27 -8.5 -50.5t-22.5 -44.5t-32.5 -37t-38.5 -23l-24 33q20 14 37.5 38t23.5 48z" />
    <glyph glyph-name="lcaron" unicode="&#x13e;" horiz-adv-x="288" 
d="M243 603q-26 2 -42 17t-16 40q0 28 17.5 43t42.5 15q35 0 50 -26q13 -24 13 -53q0 -27 -8.5 -50.5t-22.5 -44.5t-32.5 -37t-38.5 -23l-24 33q20 14 37.5 38t23.5 48zM67 0v707h85v-707h-85z" />
    <glyph glyph-name="Ldot" unicode="&#x13f;" horiz-adv-x="574" 
d="M87 707h87v-628h388v-79h-475v707zM367 458q24 0 41 -16q17 -15 17 -40q0 -24 -17 -41q-17 -16 -41 -16q-26 0 -41 16q-16 16 -16 41t16 40q15 16 41 16z" />
    <glyph glyph-name="ldot" unicode="&#x140;" horiz-adv-x="297" 
d="M67 0v707h85v-707h-85zM259 412q24 0 41 -16q17 -15 17 -40q0 -24 -17 -41q-17 -16 -41 -16q-26 0 -41 16q-16 16 -16 41t16 40q15 16 41 16z" />
    <glyph glyph-name="Lslash" unicode="&#x141;" horiz-adv-x="588" 
d="M101 707h87v-269l90 59l42 -62l-132 -86v-270h388v-79h-475v292l-64 -42l-42 63l106 69v325z" />
    <glyph glyph-name="lslash" unicode="&#x142;" horiz-adv-x="240" 
d="M248 479l42 -62l-130 -85v-332h-85v276l-68 -44l-42 63l110 71v341h85v-285z" />
    <glyph glyph-name="Nacute" unicode="&#x143;" horiz-adv-x="741" 
d="M87 0v707h111l369 -589v589h87v-707h-109l-371 587v-587h-87zM388 927h92l-100 -141h-77z" />
    <glyph glyph-name="nacute" unicode="&#x144;" horiz-adv-x="591" 
d="M67 0v527h82l4 -80q13 22 32.5 38t42.5 27t48.5 16t49.5 5q57 0 96 -18.5t62 -51t33 -77t10 -95.5v-291h-85v268q0 37 -4.5 71t-18 60.5t-38.5 42.5t-67 16q-41 0 -72.5 -19.5t-50.5 -45.5q-23 -33 -31 -72.5t-8 -79.5v-241h-85zM312 769h92l-100 -141h-77z" />
    <glyph glyph-name="uni0145" unicode="&#x145;" horiz-adv-x="741" 
d="M87 0v707h111l369 -589v589h87v-707h-109l-371 587v-587h-87zM364 -185q-26 2 -42 17t-16 40q0 28 17 43t40 15q36 0 52 -24t14 -55q0 -27 -8.5 -50.5t-22.5 -44.5t-32.5 -37t-38.5 -23l-24 33q20 14 37.5 38t23.5 48z" />
    <glyph glyph-name="uni0146" unicode="&#x146;" horiz-adv-x="591" 
d="M67 0v527h82l4 -80q13 22 32.5 38t42.5 27t48.5 16t49.5 5q57 0 96 -18.5t62 -51t33 -77t10 -95.5v-291h-85v268q0 37 -4.5 71t-18 60.5t-38.5 42.5t-67 16q-40 0 -72 -19.5t-51 -45.5q-23 -33 -31 -72.5t-8 -79.5v-241h-85zM297 -185q-26 2 -42 17t-16 40q0 28 17 43
t40 15q36 0 52 -24t14 -55q0 -27 -8.5 -50.5t-22.5 -44.5t-32.5 -37t-38.5 -23l-24 33q20 14 37.5 38t23.5 48z" />
    <glyph glyph-name="Ncaron" unicode="&#x147;" horiz-adv-x="741" 
d="M87 0v707h111l369 -589v589h87v-707h-109l-371 587v-587h-87zM357 786l-135 163h87l78 -96l78 96h85l-134 -163h-59z" />
    <glyph glyph-name="ncaron" unicode="&#x148;" horiz-adv-x="591" 
d="M67 0v527h82l4 -80q13 22 32.5 38t42.5 27t48.5 16t49.5 5q57 0 96 -18.5t62 -51t33 -77t10 -95.5v-291h-85v268q0 37 -4.5 71t-18 60.5t-38.5 42.5t-67 16q-40 0 -72 -19.5t-51 -45.5q-23 -33 -31 -72.5t-8 -79.5v-241h-85zM283 606l-135 163h87l78 -96l78 96h85
l-134 -163h-59z" />
    <glyph glyph-name="napostrophe" unicode="&#x149;" horiz-adv-x="686" 
d="M66 603q-26 2 -42 17t-16 40q0 28 17.5 43t42.5 15q35 0 50 -26q13 -24 13 -53q0 -27 -8.5 -50.5t-22.5 -44.5t-32.5 -37t-38.5 -23l-24 33q20 14 37.5 38t23.5 48zM162 0v527h82l4 -80q13 22 32.5 38t42.5 27t48.5 16t49.5 5q57 0 96 -18.5t62 -51t33 -77t10 -95.5v-291
h-85v268q0 37 -4.5 71t-18 60.5t-38.5 42.5t-67 16q-40 0 -72 -19.5t-51 -45.5q-23 -33 -31 -72.5t-8 -79.5v-241h-85z" />
    <glyph glyph-name="Eng" unicode="&#x14a;" horiz-adv-x="741" 
d="M654 707v-717q0 -88 -38 -129t-127 -41h-57v74h47q54 0 70.5 26t15.5 80h-19l-372 587v-587h-87v707h111l369 -590v590h87z" />
    <glyph glyph-name="eng" unicode="&#x14b;" horiz-adv-x="591" 
d="M527 291v-301q0 -88 -38 -129t-127 -41h-58v74h48q54 0 72 27t18 78v269q0 37 -4.5 71t-18 60.5t-38.5 42.5t-67 16q-40 0 -72 -19.5t-51 -45.5q-23 -33 -31 -72.5t-8 -79.5v-241h-85v527h82l4 -80q13 22 32.5 38t42.5 27t48.5 16t49.5 5q57 0 96 -18.5t62 -51t33 -77
t10 -95.5z" />
    <glyph glyph-name="Omacron" unicode="&#x14c;" horiz-adv-x="761" 
d="M381 -8q-83 0 -145 27.5t-104 75.5t-63 114t-21 144t21 144.5t63 114.5t104 75.5t145 27.5q82 0 144 -27.5t104 -75.5t63 -114.5t21 -144.5t-21 -144t-63 -114t-104 -75.5t-144 -27.5zM381 636q-63 0 -109 -22.5t-76 -61.5t-45 -90.5t-15 -108.5t14.5 -108t44.5 -90
t76.5 -61.5t109.5 -22.5t109 22.5t75.5 61t44 89.5t14.5 109t-14.5 109.5t-44.5 90t-76 61t-108 22.5zM221 887h319v-74h-319v74z" />
    <glyph glyph-name="omacron" unicode="&#x14d;" horiz-adv-x="595" 
d="M299 533q63 0 109 -20t77.5 -56t47 -85.5t15.5 -108.5t-15.5 -108.5t-47 -85t-78.5 -55.5t-110 -20t-109.5 20t-78 55.5t-47 85t-15.5 108.5t15.5 108.5t47 85.5t79.5 56t110 20zM297 69q43 0 74.5 15t52 41.5t30 61.5t9.5 76q0 40 -9.5 75.5t-30 62t-52 41.5t-74.5 15
t-74 -15t-51.5 -41.5t-30 -62t-9.5 -75.5q0 -41 9.5 -76t30 -61.5t51.5 -41.5t74 -15zM138 707h319v-74h-319v74z" />
    <glyph glyph-name="Obreve" unicode="&#x14e;" horiz-adv-x="761" 
d="M381 -8q-83 0 -145 27.5t-104 75.5t-63 114t-21 144t21 144.5t63 114.5t104 75.5t145 27.5q82 0 144 -27.5t104 -75.5t63 -114.5t21 -144.5t-21 -144t-63 -114t-104 -75.5t-144 -27.5zM381 636q-63 0 -109 -22.5t-76 -61.5t-45 -90.5t-15 -108.5t14.5 -108t44.5 -90
t76.5 -61.5t109.5 -22.5t109 22.5t75.5 61t44 89.5t14.5 109t-14.5 109.5t-44.5 90t-76 61t-108 22.5zM380 860q42 0 66.5 16t26.5 51h78q-2 -65 -47.5 -99t-124.5 -34t-123.5 34t-46.5 99h78q2 -35 26.5 -51t66.5 -16z" />
    <glyph glyph-name="obreve" unicode="&#x14f;" horiz-adv-x="595" 
d="M299 533q63 0 109 -20t77.5 -56t47 -85.5t15.5 -108.5t-15.5 -108.5t-47 -85t-78.5 -55.5t-110 -20t-109.5 20t-78 55.5t-47 85t-15.5 108.5t15.5 108.5t47 85.5t79.5 56t110 20zM297 69q43 0 74.5 15t52 41.5t30 61.5t9.5 76q0 40 -9.5 75.5t-30 62t-52 41.5t-74.5 15
t-74 -15t-51.5 -41.5t-30 -62t-9.5 -75.5q0 -41 9.5 -76t30 -61.5t51.5 -41.5t74 -15zM299 673q42 0 66.5 16t26.5 51h78q-2 -65 -47.5 -99t-124.5 -34t-123.5 34t-46.5 99h78q2 -35 26.5 -51t66.5 -16z" />
    <glyph glyph-name="Ohungarumlaut" unicode="&#x150;" horiz-adv-x="761" 
d="M381 -8q-83 0 -145 27.5t-104 75.5t-63 114t-21 144t21 144.5t63 114.5t104 75.5t145 27.5q82 0 144 -27.5t104 -75.5t63 -114.5t21 -144.5t-21 -144t-63 -114t-104 -75.5t-144 -27.5zM381 636q-63 0 -109 -22.5t-76 -61.5t-45 -90.5t-15 -108.5t14.5 -108t44.5 -90
t76.5 -61.5t109.5 -22.5t109 22.5t75.5 61t44 89.5t14.5 109t-14.5 109.5t-44.5 90t-76 61t-108 22.5zM311 927h92l-100 -141h-77zM470 927h92l-100 -141h-77z" />
    <glyph glyph-name="ohungarumlaut" unicode="&#x151;" horiz-adv-x="595" 
d="M299 533q63 0 109 -20t77.5 -56t47 -85.5t15.5 -108.5t-15.5 -108.5t-47 -85t-78.5 -55.5t-110 -20t-109.5 20t-78 55.5t-47 85t-15.5 108.5t15.5 108.5t47 85.5t79.5 56t110 20zM297 69q43 0 74.5 15t52 41.5t30 61.5t9.5 76q0 40 -9.5 75.5t-30 62t-52 41.5t-74.5 15
t-74 -15t-51.5 -41.5t-30 -62t-9.5 -75.5q0 -41 9.5 -76t30 -61.5t51.5 -41.5t74 -15zM238 769h92l-100 -141h-77zM397 769h92l-100 -141h-77z" />
    <glyph glyph-name="OE" unicode="&#x152;" horiz-adv-x="1120" 
d="M597 707h475v-79h-388v-238h349v-80h-349v-231h388v-79h-475v69q-32 -30 -72 -50q-62 -27 -144 -27q-83 0 -145 27.5t-104 75.5t-63 114t-21 144t21 144.5t63 114.5t104 75.5t145 27.5q82 0 144 -28q40 -20 72 -49v69zM381 636q-63 0 -109 -22.5t-76 -61.5t-45 -90.5
t-15 -108.5t14.5 -108t44.5 -90t76.5 -61.5t109.5 -22.5t109 21.5t80 58.5q15 17 27 37v330q-12 21 -28 38q-34 37 -80 58.5t-108 21.5z" />
    <glyph glyph-name="oe" unicode="&#x153;" horiz-adv-x="985" 
d="M545 232q3 -35 14.5 -64.5t31.5 -51.5t49.5 -34.5t68.5 -12.5q19 0 39.5 3.5t38.5 12t32 22.5t21 34h87q-9 -38 -30.5 -66t-51 -46t-65.5 -26.5t-73 -8.5q-63 0 -109.5 20t-77.5 55l-18 22q-8 -11 -17 -22q-31 -35 -78 -55t-110 -20t-109.5 20t-78 55.5t-47 85
t-15.5 108.5t15.5 108.5t47 85.5t79.5 56t110 20q63 0 109 -20t77 -56q10 -12 19 -25q9 13 19 25q31 36 76 56t107 20q63 0 109 -25t74 -65.5t39.5 -87.5t9.5 -87q0 -9 -0.5 -18t-1.5 -18h-391zM297 69q43 0 74.5 15t52 41.5t30 61.5t9.5 76q0 40 -9.5 75.5t-30 62t-52 41.5
t-74.5 15t-74 -15t-51.5 -41.5t-30 -62t-9.5 -75.5q0 -41 9.5 -76t30 -61.5t51.5 -41.5t74 -15zM852 306q-2 67 -42 109t-107 42q-37 0 -65 -12t-47 -33t-30 -48.5t-14 -57.5h305z" />
    <glyph glyph-name="Racute" unicode="&#x154;" horiz-adv-x="658" 
d="M174 265v-265h-87v707h265q58 0 105 -12t80 -38t50.5 -68.5t17.5 -102.5q0 -44 -13 -78.5t-34.5 -60t-50.5 -42t-60 -25.5l148 -280h-95l-141 265h-185zM324 344q39 0 73.5 6t60.5 22t41.5 43.5t16.5 73.5q0 76 -44.5 107.5t-128.5 31.5h-169v-284h150zM332 927h92
l-100 -141h-77z" />
    <glyph glyph-name="racute" unicode="&#x155;" horiz-adv-x="373" 
d="M67 0v527h82l4 -82q29 46 74 67t102 21h27v-80h-31q-47 0 -80 -15.5t-53.5 -42t-30 -62.5t-9.5 -76v-257h-85zM248 769h92l-100 -141h-77z" />
    <glyph glyph-name="uni0156" unicode="&#x156;" horiz-adv-x="658" 
d="M174 265v-265h-87v707h265q58 0 105 -12t80 -38t50.5 -68.5t17.5 -102.5q0 -44 -13 -78.5t-34.5 -60t-50.5 -42t-60 -25.5l148 -280h-95l-141 265h-185zM324 344q39 0 73.5 6t60.5 22t41.5 43.5t16.5 73.5q0 76 -44.5 107.5t-128.5 31.5h-169v-284h150zM329 -185
q-26 2 -42 17t-16 40q0 28 17 43t40 15q36 0 52 -24t14 -55q0 -27 -8.5 -50.5t-22.5 -44.5t-32.5 -37t-38.5 -23l-24 33q20 14 37.5 38t23.5 48z" />
    <glyph glyph-name="uni0157" unicode="&#x157;" horiz-adv-x="373" 
d="M67 0v527h82l4 -82q29 46 74 67t102 21h27v-80h-31q-47 0 -80 -15.5t-53.5 -42t-30 -62.5t-9.5 -76v-257h-85zM114 -185q-26 2 -42 17t-16 40q0 28 17 43t40 15q36 0 52 -24t14 -55q0 -27 -8.5 -50.5t-22.5 -44.5t-32.5 -37t-38.5 -23l-24 33q20 14 37.5 38t23.5 48z" />
    <glyph glyph-name="Rcaron" unicode="&#x158;" horiz-adv-x="658" 
d="M174 265v-265h-87v707h265q58 0 105 -12t80 -38t50.5 -68.5t17.5 -102.5q0 -44 -13 -78.5t-34.5 -60t-50.5 -42t-60 -25.5l148 -280h-95l-141 265h-185zM324 344q39 0 73.5 6t60.5 22t41.5 43.5t16.5 73.5q0 76 -44.5 107.5t-128.5 31.5h-169v-284h150zM295 786l-135 163
h87l78 -96l78 96h85l-134 -163h-59z" />
    <glyph glyph-name="rcaron" unicode="&#x159;" horiz-adv-x="373" 
d="M67 0v527h82l4 -82q29 46 74 67t102 21h27v-80h-31q-47 0 -80 -15.5t-53.5 -42t-30 -62.5t-9.5 -76v-257h-85zM195 606l-135 163h87l78 -96l78 96h85l-134 -163h-59z" />
    <glyph glyph-name="Sacute" unicode="&#x15a;" horiz-adv-x="652" 
d="M332 636q-28 0 -56.5 -5t-51.5 -17.5t-37.5 -34t-14.5 -54.5q0 -40 21 -64.5t51 -37.5q24 -10 51 -17t55.5 -13t56 -12t53.5 -15q61 -21 97.5 -60t36.5 -103q0 -60 -20.5 -99t-55 -64t-80 -36.5t-96.5 -11.5t-97.5 10t-84.5 33t-65 60t-38 90h91q10 -34 31 -56t48 -35
t58.5 -18t62.5 -5q30 0 58.5 6.5t50.5 20.5t35 36t13 53q0 47 -25 70t-67 35q-28 9 -59 15t-62 13t-61 16.5t-55 22.5q-40 19 -67 58.5t-27 99.5q0 56 22 94t57 61t78.5 33t92.5 10q40 -1 72.5 -6.5t61.5 -19.5q45 -20 75 -60t33 -103h-85q-4 31 -18.5 52t-35.5 34
t-47.5 18.5t-55.5 5.5zM360 927h92l-100 -141h-77z" />
    <glyph glyph-name="sacute" unicode="&#x15b;" horiz-adv-x="509" 
d="M255 457q-18 0 -36.5 -2.5t-36 -10t-30 -22t-13.5 -38.5q0 -34 25.5 -51t66.5 -25q17 -4 37 -7.5t39.5 -7t37 -7.5t29.5 -8q96 -30 96 -129q-1 -48 -20.5 -77.5t-49 -46.5t-67 -24t-74.5 -7q-36 0 -73 7t-67.5 24.5t-52 46t-27.5 71.5h86q8 -24 25 -38t36.5 -22t37 -11
t39.5 -3q16 0 37 2t40 9.5t32 22.5t13 42q0 30 -19.5 45t-53.5 22q-24 5 -49.5 9.5t-51 10t-49.5 13t-45 20.5q-28 17 -45 46t-17 71q2 44 20 72.5t46 46.5q30 18 64 25t72 7q81 0 129 -35q29 -20 45 -48t20 -59h-79q-7 29 -38 47t-79 19zM276 769h92l-100 -141h-77z" />
    <glyph glyph-name="Scircumflex" unicode="&#x15c;" horiz-adv-x="652" 
d="M332 636q-28 0 -56.5 -5t-51.5 -17.5t-37.5 -34t-14.5 -54.5q0 -40 21 -64.5t51 -37.5q24 -10 51 -17t55.5 -13t56 -12t53.5 -15q61 -21 97.5 -60t36.5 -103q0 -60 -20.5 -99t-55 -64t-80 -36.5t-96.5 -11.5t-97.5 10t-84.5 33t-65 60t-38 90h91q10 -34 31 -56t48 -35
t58.5 -18t62.5 -5q30 0 58.5 6.5t50.5 20.5t35 36t13 53q0 47 -25 70t-67 35q-28 9 -59 15t-62 13t-61 16.5t-55 22.5q-40 19 -67 58.5t-27 99.5q0 56 22 94t57 61t78.5 33t92.5 10q40 -1 72.5 -6.5t61.5 -19.5q45 -20 75 -60t33 -103h-85q-4 31 -18.5 52t-35.5 34
t-47.5 18.5t-55.5 5.5zM366 949l134 -163h-86l-78 96l-78 -96h-85l133 163h60z" />
    <glyph glyph-name="scircumflex" unicode="&#x15d;" horiz-adv-x="509" 
d="M255 457q-18 0 -36.5 -2.5t-36 -10t-30 -22t-13.5 -38.5q0 -34 25.5 -51t66.5 -25q17 -4 37 -7.5t39.5 -7t37 -7.5t29.5 -8q96 -30 96 -129q-1 -48 -20.5 -77.5t-49 -46.5t-67 -24t-74.5 -7q-36 0 -73 7t-67.5 24.5t-52 46t-27.5 71.5h86q8 -24 25 -38t36.5 -22t37 -11
t39.5 -3q16 0 37 2t40 9.5t32 22.5t13 42q0 30 -19.5 45t-53.5 22q-24 5 -49.5 9.5t-51 10t-49.5 13t-45 20.5q-28 17 -45 46t-17 71q2 44 20 72.5t46 46.5q30 18 64 25t72 7q81 0 129 -35q29 -20 45 -48t20 -59h-79q-7 29 -38 47t-79 19zM282 769l134 -163h-86l-78 96
l-78 -96h-85l133 163h60z" />
    <glyph glyph-name="Scedilla" unicode="&#x15e;" horiz-adv-x="634" 
d="M323 636q-28 0 -56.5 -5t-51.5 -17.5t-37.5 -34t-14.5 -54.5q0 -40 21 -64.5t51 -37.5q24 -10 51 -17t55.5 -13t56 -12t53.5 -15q61 -21 97.5 -60t36.5 -103q0 -58 -19 -96.5t-52 -63.5t-76.5 -37.5t-92.5 -13.5l-11 -51q6 1 12 1.5t11 0.5q32 0 51 -14q26 -20 28 -64
q2 -37 -16 -61.5t-42.5 -37t-49.5 -16.5t-39 -3q-8 0 -16.5 0.5t-16.5 2.5v52q17 -1 36.5 0t36 6t27.5 16.5t11 30.5q0 13 -6.5 20.5t-16.5 10.5t-19.5 3.5t-14.5 0.5q-10 0 -24.5 -2t-27.5 -7l26 114q-43 4 -82 16.5t-70 35.5t-53 57t-31 81h91q10 -34 31 -56t48 -35
t58.5 -18t62.5 -5q30 0 58.5 6.5t50.5 20.5t35 36t13 53q0 47 -25 70t-67 35q-28 9 -59 15t-62 13t-61 16t-55 23q-42 23 -68 60.5t-26 97.5q0 56 22 94t57 61t78.5 33t89.5 10q42 -1 75 -6.5t62 -19.5q45 -20 75 -60t33 -103h-85q-4 31 -18.5 52t-35.5 34t-47.5 18.5
t-55.5 5.5z" />
    <glyph glyph-name="scedilla" unicode="&#x15f;" horiz-adv-x="518" 
d="M262 457q-17 0 -37.5 -2.5t-38 -10t-30 -22t-13.5 -38.5q0 -34 25.5 -51t66.5 -25q17 -4 37 -7.5t39.5 -7t37 -7.5t29.5 -8q96 -30 96 -127q-1 -47 -17 -74.5t-42 -45t-59 -26t-68 -10.5l-12 -54q6 1 12 1.5t11 0.5q27 0 49 -13q30 -19 30 -65q1 -36 -16.5 -61t-42 -37.5
t-49.5 -16.5t-39 -3q-8 0 -16.5 1t-16.5 2v52q17 -1 36.5 0t36 6t27.5 16t11 31q0 13 -7 20.5t-16.5 10.5t-19 3.5t-14.5 0.5q-10 0 -24.5 -2t-27.5 -7l26 115q-32 3 -63 12t-56 26.5t-42 44t-22 64.5h86q8 -24 25 -38t37 -21.5t35.5 -10.5t37.5 -4q17 -1 39 1.5t41 10
t32 22t13 41.5q0 33 -18.5 47.5t-54.5 20.5q-24 5 -49.5 9.5t-51 10t-49.5 13t-45 20.5q-26 17 -44 46t-18 75q2 42 20 69.5t46 45.5q31 18 66 25t70 7q82 0 129 -35q29 -20 45 -48t20 -59h-79q-7 29 -38 46.5t-76 19.5z" />
    <glyph glyph-name="Scaron" unicode="&#x160;" horiz-adv-x="652" 
d="M332 636q-28 0 -56.5 -5t-51.5 -17.5t-37.5 -34t-14.5 -54.5q0 -40 21 -64.5t51 -37.5q24 -10 51 -17t55.5 -13t56 -12t53.5 -15q61 -21 97.5 -60t36.5 -103q0 -60 -20.5 -99t-55 -64t-80 -36.5t-96.5 -11.5t-97.5 10t-84.5 33t-65 60t-38 90h91q10 -34 31 -56t48 -35
t58.5 -18t62.5 -5q30 0 58.5 6.5t50.5 20.5t35 36t13 53q0 47 -25 70t-67 35q-28 9 -59 15t-62 13t-61 16.5t-55 22.5q-40 19 -67 58.5t-27 99.5q0 56 22 94t57 61t78.5 33t92.5 10q40 -1 72.5 -6.5t61.5 -19.5q45 -20 75 -60t33 -103h-85q-4 31 -18.5 52t-35.5 34
t-47.5 18.5t-55.5 5.5zM304 786l-135 163h87l78 -96l78 96h85l-134 -163h-59z" />
    <glyph glyph-name="scaron" unicode="&#x161;" horiz-adv-x="509" 
d="M255 457q-18 0 -36.5 -2.5t-36 -10t-30 -22t-13.5 -38.5q0 -34 25.5 -51t66.5 -25q17 -4 37 -7.5t39.5 -7t37 -7.5t29.5 -8q96 -30 96 -129q-1 -48 -20.5 -77.5t-49 -46.5t-67 -24t-74.5 -7q-36 0 -73 7t-67.5 24.5t-52 46t-27.5 71.5h86q8 -24 25 -38t36.5 -22t37 -11
t39.5 -3q16 0 37 2t40 9.5t32 22.5t13 42q0 30 -19.5 45t-53.5 22q-24 5 -49.5 9.5t-51 10t-49.5 13t-45 20.5q-28 17 -45 46t-17 71q2 44 20 72.5t46 46.5q30 18 64 25t72 7q81 0 129 -35q29 -20 45 -48t20 -59h-79q-7 29 -38 47t-79 19zM229 606l-135 163h87l78 -96l78 96
h85l-134 -163h-59z" />
    <glyph glyph-name="uni0162" unicode="&#x162;" horiz-adv-x="569" 
d="M313 0l-13 -59q5 1 10.5 1.5t10.5 0.5q28 0 48 -13q33 -21 33 -68q1 -37 -16.5 -60t-42 -35.5t-49.5 -16.5t-39 -3q-8 0 -16.5 0.5t-16.5 2.5v52q17 -1 36.5 0t36 6t27.5 16t11 31q0 13 -6.5 20.5t-16.5 10.5t-19.5 3.5t-14.5 0.5q-10 0 -24.5 -2t-27.5 -7l28 119h-11
v628h-227v79h541v-79h-227v-628h-15z" />
    <glyph glyph-name="uni0163" unicode="&#x163;" horiz-adv-x="380" 
d="M200 527h141v-75h-141v-273q0 -54 21 -79.5t78 -25.5h39v-74h-71h-6t-11 1l-19 -60q6 1 12 1.5t11 0.5q27 0 48 -13q31 -19 31 -65v-3q1 -37 -16.5 -60t-42 -35.5t-49.5 -16.5t-39 -3q-8 0 -16.5 0.5t-16.5 1.5v53q17 -1 36.5 0t36 6t27.5 16t11 31q0 13 -6 20.5
t-16.5 10.5t-20 3.5t-14.5 0.5q-10 0 -24.5 -2t-27.5 -7l37 133q-42 17 -59.5 55t-17.5 101v282h-86v75h86v157h85v-157z" />
    <glyph glyph-name="Tcaron" unicode="&#x164;" horiz-adv-x="569" 
d="M241 0v628h-227v79h541v-79h-227v-628h-87zM255 786l-135 163h87l78 -96l78 96h85l-134 -163h-59z" />
    <glyph glyph-name="tcaron" unicode="&#x165;" horiz-adv-x="444" 
d="M200 527h107v-75h-107v-273q0 -54 19.5 -79.5t79.5 -25.5h39v-74h-57q-90 0 -128 41t-38 129v282h-86v75h86v157h85v-157zM399 593q-26 2 -42 17t-16 40q0 28 17.5 43t44.5 15q31 0 48 -26q13 -24 13 -53q0 -27 -8.5 -50.5t-22.5 -44.5t-32.5 -37t-38.5 -23l-24 33
q20 14 37.5 38t23.5 48z" />
    <glyph glyph-name="Tbar" unicode="&#x166;" horiz-adv-x="569" 
d="M241 0v303h-121v74h121v251h-227v79h541v-79h-227v-251h121v-74h-121v-303h-87z" />
    <glyph glyph-name="tbar" unicode="&#x167;" horiz-adv-x="370" 
d="M29 325h86v127h-86v75h86v157h85v-157h141v-75h-141v-127h141v-74h-141v-72q0 -54 19.5 -79.5t79.5 -25.5h39v-74h-57q-90 0 -128 41t-38 129v81h-86v74z" />
    <glyph glyph-name="Utilde" unicode="&#x168;" horiz-adv-x="726" 
d="M644 707v-402q0 -67 -16 -124t-50.5 -99t-87.5 -66t-127 -24t-127.5 23.5t-87.5 65.5t-50 99t-16 125v402h87v-401q0 -48 10 -91t33 -75t60.5 -50.5t91.5 -18.5t91 18.5t59.5 51t32 75t9.5 90.5v401h88zM436 795q-25 0 -44 11t-34.5 24.5t-28.5 25t-25 11.5t-18 -7.5
t-8.5 -18t-3 -22t-0.5 -19.5h-69q0 24 4.5 47.5t15.5 42t30.5 29.5t49.5 11q25 0 44 -11.5t34.5 -25t28.5 -25t25 -11.5t18.5 7.5t9.5 18t3 22.5v20h70q-1 -24 -5.5 -47.5t-16 -41.5t-31 -29.5t-49.5 -11.5z" />
    <glyph glyph-name="utilde" unicode="&#x169;" horiz-adv-x="576" 
d="M287 69q72 0 105.5 43.5t33.5 121.5v293h85v-297q0 -120 -57.5 -178t-166.5 -58t-165.5 58t-56.5 178v297h85v-293q0 -78 34 -121.5t103 -43.5zM357 615q-25 0 -44 11t-34.5 24.5t-28.5 25t-25 11.5t-18 -7.5t-8.5 -18t-3 -22t-0.5 -19.5h-69q0 24 4.5 47.5t15.5 42
t30.5 29.5t49.5 11q25 0 44 -11.5t34.5 -25t28.5 -25t25 -11.5t18.5 7.5t9.5 18t3 22.5v20h70q-1 -24 -5.5 -47.5t-16 -41.5t-31 -29.5t-49.5 -11.5z" />
    <glyph glyph-name="Umacron" unicode="&#x16a;" horiz-adv-x="726" 
d="M644 707v-402q0 -67 -16 -124t-50.5 -99t-87.5 -66t-127 -24t-127.5 23.5t-87.5 65.5t-50 99t-16 125v402h87v-401q0 -48 10 -91t33 -75t60.5 -50.5t91.5 -18.5t91 18.5t59.5 51t32 75t9.5 90.5v401h88zM201 887h319v-74h-319v74z" />
    <glyph glyph-name="umacron" unicode="&#x16b;" horiz-adv-x="576" 
d="M287 69q72 0 105.5 43.5t33.5 121.5v293h85v-297q0 -120 -57.5 -178t-166.5 -58t-165.5 58t-56.5 178v297h85v-293q0 -78 34 -121.5t103 -43.5zM134 707h319v-74h-319v74z" />
    <glyph glyph-name="Ubreve" unicode="&#x16c;" horiz-adv-x="726" 
d="M644 707v-402q0 -67 -16 -124t-50.5 -99t-87.5 -66t-127 -24t-127.5 23.5t-87.5 65.5t-50 99t-16 125v402h87v-401q0 -48 10 -91t33 -75t60.5 -50.5t91.5 -18.5t91 18.5t59.5 51t32 75t9.5 90.5v401h88zM366 847q42 0 66.5 16t26.5 51h78q-2 -65 -47.5 -99t-124.5 -34
t-123.5 34t-46.5 99h78q2 -35 26.5 -51t66.5 -16z" />
    <glyph glyph-name="ubreve" unicode="&#x16d;" horiz-adv-x="576" 
d="M287 69q72 0 105.5 43.5t33.5 121.5v293h85v-297q0 -120 -57.5 -178t-166.5 -58t-165.5 58t-56.5 178v297h85v-293q0 -78 34 -121.5t103 -43.5zM287 667q42 0 66.5 16t26.5 51h78q-2 -65 -47.5 -99t-124.5 -34t-123.5 34t-46.5 99h78q2 -35 26.5 -51t66.5 -16z" />
    <glyph glyph-name="Uring" unicode="&#x16e;" horiz-adv-x="726" 
d="M644 707v-402q0 -67 -16 -124t-50.5 -99t-87.5 -66t-127 -24t-127.5 23.5t-87.5 65.5t-50 99t-16 125v402h87v-401q0 -48 10 -91t33 -75t60.5 -50.5t91.5 -18.5t91 18.5t59.5 51t32 75t9.5 90.5v401h88zM363 963q44 0 71 -29t27 -72q0 -44 -28 -69.5t-71 -25.5
q-44 0 -71 25.5t-27 69.5t27.5 72.5t71.5 28.5zM362 819q20 0 31.5 12.5t11.5 32.5t-11.5 32.5t-31.5 12.5t-31.5 -12.5t-11.5 -32.5t11.5 -32.5t31.5 -12.5z" />
    <glyph glyph-name="uring" unicode="&#x16f;" horiz-adv-x="576" 
d="M287 69q72 0 105.5 43.5t33.5 121.5v293h85v-297q0 -120 -57.5 -178t-166.5 -58t-165.5 58t-56.5 178v297h85v-293q0 -78 34 -121.5t103 -43.5zM289 791q44 0 71 -29t27 -72q0 -44 -28 -69.5t-71 -25.5q-44 0 -71 25.5t-27 69.5t27.5 72.5t71.5 28.5zM288 647
q20 0 31.5 12.5t11.5 32.5t-11.5 32.5t-31.5 12.5t-31.5 -12.5t-11.5 -32.5t11.5 -32.5t31.5 -12.5z" />
    <glyph glyph-name="Uhungarumlaut" unicode="&#x170;" horiz-adv-x="726" 
d="M644 707v-402q0 -67 -16 -124t-50.5 -99t-87.5 -66t-127 -24t-127.5 23.5t-87.5 65.5t-50 99t-16 125v402h87v-401q0 -48 10 -91t33 -75t60.5 -50.5t91.5 -18.5t91 18.5t59.5 51t32 75t9.5 90.5v401h88zM312 927h92l-100 -141h-77zM471 927h92l-100 -141h-77z" />
    <glyph glyph-name="uhungarumlaut" unicode="&#x171;" horiz-adv-x="576" 
d="M287 69q72 0 105.5 43.5t33.5 121.5v293h85v-297q0 -120 -57.5 -178t-166.5 -58t-165.5 58t-56.5 178v297h85v-293q0 -78 34 -121.5t103 -43.5zM238 769h92l-100 -141h-77zM397 769h92l-100 -141h-77z" />
    <glyph glyph-name="Uogonek" unicode="&#x172;" horiz-adv-x="726" 
d="M412 -224q-61 1 -95 31.5t-34 81.5q0 45 29 77q13 15 28 27q-60 3 -105 22q-53 24 -87 66t-50 99t-16 125v402h87v-401q0 -48 10 -91t33 -75t60.5 -50.5t91.5 -18.5t91 18.5t59.5 51t32 75t9.5 90.5v401h88v-402q0 -67 -16 -124t-50.5 -99t-87.5 -66q-28 -13 -61 -18
q-10 -6 -19 -14q-15 -12 -26.5 -24.5t-19 -28t-7.5 -32.5q0 -28 17.5 -43.5t46.5 -15.5q24 0 48 12l14 -59q-18 -10 -34.5 -13.5t-36.5 -3.5z" />
    <glyph glyph-name="uogonek" unicode="&#x173;" horiz-adv-x="576" 
d="M329 -224q-61 1 -95 31.5t-34 81.5q0 45 29 77q15 17 31 29q-89 6 -139 57q-56 58 -56 178v297h85v-293q0 -78 34 -121.5t103 -43.5q72 0 105.5 43.5t33.5 121.5v293h85v-297q0 -120 -58 -178q-40 -41 -105 -53q-11 -7 -21 -15q-15 -12 -26.5 -24.5t-19 -28t-7.5 -32.5
q0 -28 17.5 -43.5t46.5 -15.5q24 0 48 12l14 -59q-18 -10 -34.5 -13.5t-36.5 -3.5z" />
    <glyph glyph-name="Wcircumflex" unicode="&#x174;" horiz-adv-x="983" 
d="M560 707l154 -632l161 632h94l-192 -707h-132l-154 624l-154 -624h-131l-192 707h98l161 -632l154 632h133v0zM521 949l134 -163h-86l-78 96l-78 -96h-85l133 163h60z" />
    <glyph glyph-name="wcircumflex" unicode="&#x175;" horiz-adv-x="843" 
d="M12 527h96l126 -445l130 445h115l131 -445l124 445h97l-164 -527h-116l-130 427l-130 -427h-115zM451 769l134 -163h-86l-78 96l-78 -96h-85l133 163h60z" />
    <glyph glyph-name="Ycircumflex" unicode="&#x176;" horiz-adv-x="614" 
d="M501 707h99l-249 -441v-266h-87v265l-250 442h101l194 -354zM340 949l134 -163h-86l-78 96l-78 -96h-85l133 163h60z" />
    <glyph glyph-name="ycircumflex" unicode="&#x177;" horiz-adv-x="597" 
d="M530 527v-527q0 -115 -60 -175.5t-171 -60.5q-67 1 -120.5 17.5t-98.5 58.5l37 67q39 -31 83.5 -49t93.5 -18q41 0 70 12.5t47.5 35t27 53.5t8.5 67v63q-13 -20 -32.5 -35.5t-42 -25t-48 -14t-51.5 -4.5q-60 1 -99.5 19t-63 50t-33.5 76.5t-10 98.5v291h85v-267
q0 -36 4.5 -71t18.5 -62t41 -43.5t72 -16.5t76.5 19t48.5 48q19 30 25.5 66t6.5 74v253h85zM332 769l134 -163h-86l-78 96l-78 -96h-85l133 163h60z" />
    <glyph glyph-name="Ydieresis" unicode="&#x178;" horiz-adv-x="614" 
d="M501 707h99l-249 -441v-266h-87v265l-250 442h101l194 -354zM200 887q25 0 41.5 -15.5t16.5 -40.5t-16.5 -40.5t-41.5 -15.5q-24 0 -40.5 15.5t-16.5 40.5t16.5 40.5t40.5 15.5zM416 887q25 0 41.5 -15.5t16.5 -40.5t-16.5 -40.5t-41.5 -15.5q-24 0 -40 15.5t-16 40.5
t16 40.5t40 15.5z" />
    <glyph glyph-name="Zacute" unicode="&#x179;" horiz-adv-x="597" 
d="M57 628v79h496v-68l-397 -560h390v-79h-502v69l392 559h-379zM314 927h92l-100 -141h-77z" />
    <glyph glyph-name="zacute" unicode="&#x17a;" horiz-adv-x="518" 
d="M471 456l-318 -382h318v-74h-424v72l315 380h-315v75h424v-71zM283 769h92l-100 -141h-77z" />
    <glyph glyph-name="Zdotaccent" unicode="&#x17b;" horiz-adv-x="597" 
d="M57 628v79h496v-68l-397 -560h390v-79h-502v69l392 559h-379zM301 898q23 1 40.5 -15.5t17.5 -40.5q0 -25 -17 -41t-41 -16q-26 0 -41.5 16t-15.5 41t16 40.5t41 15.5z" />
    <glyph glyph-name="zdotaccent" unicode="&#x17c;" horiz-adv-x="518" 
d="M471 456l-318 -382h318v-74h-424v72l315 380h-315v75h424v-71zM253 717q23 1 40.5 -15.5t17.5 -40.5q0 -25 -17 -41t-41 -16q-26 0 -41.5 16t-15.5 41t16 40.5t41 15.5z" />
    <glyph glyph-name="Zcaron" unicode="&#x17d;" horiz-adv-x="597" 
d="M57 628v79h496v-68l-397 -560h390v-79h-502v69l392 559h-379zM276 786l-135 163h87l78 -96l78 96h85l-134 -163h-59z" />
    <glyph glyph-name="zcaron" unicode="&#x17e;" horiz-adv-x="518" 
d="M471 456l-318 -382h318v-74h-424v72l315 380h-315v75h424v-71zM238 606l-135 163h87l78 -96l78 96h85l-134 -163h-59z" />
    <glyph glyph-name="uni0218" unicode="&#x218;" horiz-adv-x="634" 
d="M323 636q-28 0 -56.5 -5t-51.5 -17.5t-37.5 -34t-14.5 -54.5q0 -40 21 -64.5t51 -37.5q24 -10 51 -17t55.5 -13t56 -12t53.5 -15q61 -20 97.5 -59.5t36.5 -103.5q0 -60 -20.5 -99t-55.5 -64t-81 -36.5t-96 -11.5q-51 0 -97.5 10t-84.5 33t-64.5 60t-37.5 90h91
q10 -34 31 -56t48 -35t58.5 -18t62.5 -5q30 0 58.5 6.5t50.5 20.5t35 36t13 53q0 47 -25 70t-67 35q-28 9 -59 15t-62 13t-61 15.5t-55 23.5q-42 23 -68 60.5t-26 97.5q0 56 22 94t57 61t78.5 33t87.5 10q44 -1 77 -6.5t62 -19.5q45 -20 75 -60t33 -103h-85q-4 31 -18.5 52
t-35.5 34t-47.5 18.5t-55.5 5.5zM324 -186q-26 2 -42 17t-16 40q0 28 17 43t40 15q36 0 52 -24t14 -55q0 -27 -8.5 -50.5t-22.5 -44.5t-32.5 -37t-38.5 -23l-24 33q20 14 37.5 38t23.5 48z" />
    <glyph glyph-name="uni0219" unicode="&#x219;" horiz-adv-x="518" 
d="M262 457q-17 0 -37.5 -2.5t-38 -10t-30 -22t-13.5 -38.5q0 -34 25.5 -51t66.5 -25q17 -4 37 -7.5t39.5 -7t37 -7.5t29.5 -8q96 -30 96 -127q-1 -50 -20 -79.5t-49 -46.5t-67.5 -24.5t-74.5 -6.5q-36 0 -73 7t-67.5 24.5t-52 46t-27.5 71.5h86q8 -24 25 -38t37 -22t38 -11
t35 -3q18 0 39.5 2t39.5 9t32 23t14 41q0 33 -20 47.5t-53 20.5q-24 5 -49.5 9.5t-51 10t-49.5 13t-45 20.5q-26 17 -44 46t-18 75q2 42 20 69.5t46 45.5q30 19 67 25.5t69 6.5q82 0 129 -35q29 -20 45 -48t20 -59h-79q-7 29 -38 47t-76 19zM261 -186q-26 2 -42 17t-16 40
q0 28 18 43t40 15q37 -1 52 -24.5t13 -54.5q0 -27 -8.5 -50.5t-22.5 -44.5t-32.5 -37t-38.5 -23l-24 33q20 14 37.5 38t23.5 48z" />
    <glyph glyph-name="uni021A" unicode="&#x21a;" horiz-adv-x="569" 
d="M328 0h-87v628h-227v79h541v-79h-227v-628zM285 -186q-26 2 -42 17t-16 40q0 28 18 43t40 15q37 -1 52 -24.5t13 -54.5q0 -27 -8.5 -50.5t-22.5 -44.5t-32.5 -37t-38.5 -23l-24 33q20 14 37.5 38t23.5 48z" />
    <glyph glyph-name="uni021B" unicode="&#x21b;" horiz-adv-x="380" 
d="M200 527h141v-75h-141v-273q0 -54 21 -79.5t78 -25.5h39v-74h-57q-90 0 -128 41t-38 129v282h-86v75h86v157h85v-157zM212 -186q-26 2 -42 17t-16 40q0 28 18 43t42 15q32 0 48.5 -24t14.5 -55q0 -27 -8.5 -50.5t-22.5 -44.5t-32.5 -37t-38.5 -23l-24 33q20 14 37.5 38
t23.5 48z" />
    <glyph glyph-name="uni0237" unicode="&#x237;" horiz-adv-x="254" 
d="M180 527v-537q0 -88 -38 -129t-127 -41h-46v74h36q54 0 72 27t18 78v528h85z" />
    <glyph glyph-name="circumflex" unicode="&#x2c6;" horiz-adv-x="559" 
d="M309 769l134 -163h-86l-78 96l-78 -96h-85l133 163h60z" />
    <glyph glyph-name="caron" unicode="&#x2c7;" horiz-adv-x="559" 
d="M250 606l-134 163h86l78 -96l78 96h85l-133 -163h-60z" />
    <glyph glyph-name="breve" unicode="&#x2d8;" horiz-adv-x="569" 
d="M284 667q42 0 66.5 16t26.5 51h78q-2 -65 -47.5 -99t-124.5 -34t-123.5 34t-46.5 99h78q2 -35 26.5 -51t66.5 -16z" />
    <glyph glyph-name="dotaccent" unicode="&#x2d9;" horiz-adv-x="577" 
d="M288 718q23 1 40.5 -15.5t17.5 -40.5q0 -25 -17 -41t-41 -16q-26 0 -41.5 16t-15.5 41t16 40.5t41 15.5z" />
    <glyph glyph-name="ring" unicode="&#x2da;" horiz-adv-x="569" 
d="M285 791q44 0 71 -29t27 -72q0 -44 -28 -69.5t-71 -25.5q-44 0 -71 25.5t-27 69.5t27.5 72.5t71.5 28.5zM284 647q20 0 31.5 12.5t11.5 32.5t-11.5 32.5t-31.5 12.5t-31.5 -12.5t-11.5 -32.5t11.5 -32.5t31.5 -12.5z" />
    <glyph glyph-name="ogonek" unicode="&#x2db;" horiz-adv-x="520" 
d="M289 -224q-61 1 -95 31.5t-34 81.5q0 45 29 77t67 49l63 -10q-17 -9 -32 -21t-26.5 -24.5t-19 -28t-7.5 -32.5q0 -28 17.5 -43.5t46.5 -15.5q24 0 48 12l14 -59q-18 -10 -34.5 -13.5t-36.5 -3.5z" />
    <glyph glyph-name="tilde" unicode="&#x2dc;" horiz-adv-x="557" 
d="M343 615q-25 0 -44 11t-34.5 24.5t-28.5 25t-25 11.5t-18 -7.5t-8.5 -18t-3 -22t-0.5 -19.5h-69q0 24 4.5 47.5t15.5 42t30.5 29.5t49.5 11q25 0 44 -11.5t34.5 -25t28.5 -25t25 -11.5t18.5 7.5t9.5 18t3 22.5v20h70q-1 -24 -5.5 -47.5t-16 -41.5t-31 -29.5t-49.5 -11.5z
" />
    <glyph glyph-name="hungarumlaut" unicode="&#x2dd;" horiz-adv-x="558" 
d="M227 769h92l-100 -141h-77zM386 769h92l-100 -141h-77z" />
    <glyph glyph-name="gravecomb" unicode="&#x300;" 
d="M-291 628l-100 141h92l85 -141h-77z" />
    <glyph glyph-name="acutecomb" unicode="&#x301;" 
d="M-230 769h92l-100 -141h-77z" />
    <glyph glyph-name="uni0302" unicode="&#x302;" 
d="M-237 769l134 -163h-86l-78 96l-78 -96h-85l133 163h60z" />
    <glyph glyph-name="tildecomb" unicode="&#x303;" 
d="M-214 615q-25 0 -44 11t-34.5 24.5t-28.5 25t-25 11.5t-18 -7.5t-8.5 -18t-3 -22t-0.5 -19.5h-69q0 24 4.5 47.5t15.5 42t30.5 29.5t49.5 11q25 0 44 -11.5t34.5 -25t28.5 -25t25 -11.5t18.5 7.5t9.5 18t3 22.5v20h70q-1 -24 -5.5 -47.5t-16 -41.5t-31 -29.5t-49.5 -11.5
z" />
    <glyph glyph-name="uni0304" unicode="&#x304;" 
d="M-439 707h319v-74h-319v74z" />
    <glyph glyph-name="uni0306" unicode="&#x306;" 
d="M-270 667q42 0 66.5 16t26.5 51h78q-2 -65 -47.5 -99t-124.5 -34t-123.5 34t-46.5 99h78q2 -35 26.5 -51t66.5 -16z" />
    <glyph glyph-name="uni0307" unicode="&#x307;" 
d="M-283 718q23 1 40.5 -15.5t17.5 -40.5q0 -25 -17 -41t-41 -16q-26 0 -41.5 16t-15.5 41t16 40.5t41 15.5z" />
    <glyph glyph-name="uni0308" unicode="&#x308;" 
d="M-389 707q25 0 41.5 -15.5t16.5 -40.5t-16.5 -40.5t-41.5 -15.5q-24 0 -40.5 15.5t-16.5 40.5t16.5 40.5t40.5 15.5zM-164 707q25 0 41.5 -15.5t16.5 -40.5t-16.5 -40.5t-41.5 -15.5q-24 0 -40 15.5t-16 40.5t16 40.5t40 15.5z" />
    <glyph glyph-name="uni030A" unicode="&#x30a;" 
d="M-277 791q44 0 71 -29t27 -72q0 -44 -28 -69.5t-71 -25.5q-44 0 -71 25.5t-27 69.5t27.5 72.5t71.5 28.5zM-278 647q20 0 31.5 12.5t11.5 32.5t-11.5 32.5t-31.5 12.5t-31.5 -12.5t-11.5 -32.5t11.5 -32.5t31.5 -12.5z" />
    <glyph glyph-name="uni030B" unicode="&#x30b;" 
d="M-329 769h92l-100 -141h-77zM-170 769h92l-100 -141h-77z" />
    <glyph glyph-name="uni030C" unicode="&#x30c;" 
d="M-313 606l-135 163h87l78 -96l78 96h85l-134 -163h-59z" />
    <glyph glyph-name="uni0312" unicode="&#x312;" 
d="M-281 714q26 -2 42 -17t16 -40q0 -28 -18 -42.5t-41 -14.5q-29 0 -46.5 21t-17.5 57q0 21 7 45.5t22.5 47.5t34 39t38.5 23l24 -33q-20 -14 -37.5 -38t-23.5 -48z" />
    <glyph glyph-name="uni0326" unicode="&#x326;" 
d="M-299 -215q-26 2 -42 17t-16 40q0 28 18 43t42 15q33 0 49 -24t14 -55q0 -27 -8.5 -50.5t-22.5 -44.5t-32.5 -37t-38.5 -23l-24 33q20 14 37.5 38t23.5 48z" />
    <glyph glyph-name="uni0327" unicode="&#x327;" 
d="M-249 -59q6 1 12 1.5t11 0.5q39 0 59 -21.5t20 -59.5q0 -33 -15 -56.5t-38 -36.5q-31 -16 -64.5 -19t-62.5 -3v55q17 0 36.5 1t36 6t27.5 15.5t11 30.5q0 12 -7 20t-16.5 11t-19 3.5t-14.5 0.5q-10 0 -24.5 -2t-27.5 -7l29 127h62z" />
    <glyph glyph-name="uni0328" unicode="&#x328;" 
d="M-91 -224q-61 1 -95 31.5t-34 81.5q0 45 29 77t67 49l63 -10q-17 -9 -32 -21t-26.5 -24.5t-19 -28t-7.5 -32.5q0 -28 17.5 -43.5t46.5 -15.5q24 0 48 12l14 -59q-18 -10 -34.5 -13.5t-36.5 -3.5z" />
    <glyph glyph-name="uni0401" unicode="&#x401;" horiz-adv-x="610" 
d="M215 900q23 0 40 -14t17 -41q0 -28 -15.5 -43t-41.5 -15q-25 0 -41 15t-16 43q0 27 17 41t40 14zM447 900q23 0 40 -14t17 -41q0 -28 -16 -43t-41 -15q-26 0 -41.5 15t-15.5 43q0 27 17 41t40 14zM87 707h475v-79h-388v-241h349v-80h-349v-228h388v-79h-475v707z" />
    <glyph glyph-name="uni0404" unicode="&#x404;" horiz-adv-x="707" 
d="M370 636q-54 0 -96 -19t-71 -51.5t-45 -77t-19 -95.5h326v-79h-326q2 -53 18 -97.5t45.5 -77t72.5 -50.5t98 -18q30 0 60.5 6t57 19.5t46.5 35t29 53.5h93q-13 -50 -41 -86t-66.5 -60t-84 -35.5t-93.5 -11.5q-82 0 -143 26t-101.5 73.5t-61 113t-20.5 143.5
q0 77 19 143.5t58.5 116t100 78t142.5 29.5q49 0 94.5 -10.5t83 -34t64.5 -60.5t39 -88h-87q-9 31 -29 53t-46.5 35.5t-56.5 19.5t-60 6z" />
    <glyph glyph-name="uni0405" unicode="&#x405;" horiz-adv-x="652" 
d="M332 636q-28 0 -56.5 -5t-51.5 -17.5t-37.5 -34t-14.5 -54.5q0 -40 21 -64.5t51 -37.5q24 -10 51 -17t55.5 -13t56 -12t53.5 -15q61 -21 97.5 -60t36.5 -103q0 -60 -20.5 -99t-55 -64t-80 -36.5t-96.5 -11.5t-97.5 10t-84.5 33t-65 60t-38 90h91q10 -34 31 -56t48 -35
t58.5 -18t62.5 -5q30 0 58.5 6.5t50.5 20.5t35 36t13 53q0 47 -25 70t-67 35q-28 9 -59 15t-62 13t-61 16.5t-55 22.5q-40 19 -67 58.5t-27 99.5q0 56 22 94t57 61t78.5 33t92.5 10q40 -1 72.5 -6.5t61.5 -19.5q45 -20 75 -60t33 -103h-85q-4 31 -18.5 52t-35.5 34
t-47.5 18.5t-55.5 5.5z" />
    <glyph glyph-name="uni0406" unicode="&#x406;" horiz-adv-x="261" 
d="M174 0h-87v707h87v-707z" />
    <glyph glyph-name="uni0407" unicode="&#x407;" horiz-adv-x="260" 
d="M174 0h-87v707h87v-707zM54 900q23 0 38.5 -15t15.5 -38t-15.5 -38.5t-38.5 -15.5t-38 15t-15 39t15 38.5t38 14.5zM206 900q23 0 38 -15t15 -38t-15 -38.5t-38 -15.5q-24 0 -38.5 15t-14.5 39t15 38.5t38 14.5z" />
    <glyph glyph-name="uni0408" unicode="&#x408;" horiz-adv-x="558" 
d="M130 195q6 -57 38 -90t98 -34q35 0 58.5 11.5t38 32t20.5 49t6 62.5v481h87v-463q0 -56 -11 -102t-36 -79.5t-65 -52t-98 -18.5q-104 0 -161 49t-63 154h88z" />
    <glyph glyph-name="uni040E" unicode="&#x40e;" horiz-adv-x="621" 
d="M123 81q31 0 56 3.5t46 14t39.5 29.5t35.5 51l-285 528h103l232 -438l178 438h94q-32 -72 -63.5 -147.5t-63.5 -151.5q-24 -57 -49.5 -115.5t-53.5 -113.5q-19 -38 -40.5 -71t-45.5 -55q-37 -33 -81 -43.5t-102 -10.5v82zM330 847q42 0 66.5 16t26.5 51h78
q-2 -65 -47.5 -99t-124.5 -34t-123.5 34t-46.5 99h78q2 -35 26.5 -51t66.5 -16z" />
    <glyph glyph-name="uni0410" unicode="&#x410;" horiz-adv-x="670" 
d="M660 0h-94l-56 152h-350l-56 -152h-94l263 707h125zM481 231l-146 400l-146 -400h292z" />
    <glyph glyph-name="uni0411" unicode="&#x411;" horiz-adv-x="654" 
d="M87 707h481v-79h-394v-213h161q52 0 99.5 -7.5t84 -29t58.5 -60t22 -100.5q0 -65 -21 -105.5t-57.5 -65.5t-85.5 -36t-104 -11h-244v707zM174 79h146q36 0 70.5 4.5t61.5 19t43 40.5t16 69t-16 67.5t-42 37t-59.5 16t-68.5 3.5h-151v-257z" />
    <glyph glyph-name="uni0412" unicode="&#x412;" horiz-adv-x="655" 
d="M86 707h248q51 0 92.5 -6t74.5 -28q29 -19 49 -54t20 -89t-24.5 -96t-75.5 -62q68 -12 102 -57.5t34 -117.5q-3 -66 -28 -103t-64 -58t-87.5 -28.5t-97.5 -7.5h-243v707zM173 628v-231h136q28 0 58 4t54 17q28 14 45.5 38.5t18.5 67.5q0 34 -12 54.5t-33 31.5t-48 14.5
t-57 3.5h-162zM326 79q32 0 64.5 3t62 15.5t47.5 37t18 66.5q0 36 -13.5 59t-36 36t-51.5 18t-59 5h-185v-240h153z" />
    <glyph glyph-name="uni0413" unicode="&#x413;" horiz-adv-x="571" 
d="M87 0v707h455v-79h-368v-628h-87z" />
    <glyph glyph-name="uni0414" unicode="&#x414;" horiz-adv-x="709" 
d="M22 -195v274q36 0 54.5 13.5t28.5 36.5q12 30 19.5 78.5t11.5 99.5q7 100 10 200t4 200h452v-628h85v-274h-87v195h-491v-195h-87zM515 79v549h-280l-9 -275q-1 -24 -2.5 -57t-6 -69.5t-12.5 -74.5t-22 -73h332z" />
    <glyph glyph-name="uni0415" unicode="&#x415;" horiz-adv-x="610" 
d="M87 0v707h475v-79h-388v-238h349v-80h-349v-231h388v-79h-475z" />
    <glyph glyph-name="uni0416" unicode="&#x416;" horiz-adv-x="860" 
d="M386 0v307h-108l-163 -307h-101l192 357l-191 350h96l169 -321h106v321h87v-321h108l169 321h94l-191 -350l193 -357h-102l-163 307h-108v-307h-87z" />
    <glyph glyph-name="uni0417" unicode="&#x417;" horiz-adv-x="626" 
d="M108 50q-30 25 -46.5 58.5t-17.5 73.5h87q2 -31 26 -60q15 -17 35 -27t41.5 -15.5t42.5 -7t37 -1.5q25 0 55.5 4t57 17t44.5 38.5t18 67.5t-17.5 67.5t-42.5 37.5q-26 13 -59 15t-59 2h-86v78h51q29 0 60.5 3.5t58.5 17.5q28 14 47 39t20 61q0 36 -13.5 59t-36.5 36
t-49.5 17.5t-52.5 4.5q-34 0 -66 -8t-55 -26q-17 -14 -27.5 -32t-10.5 -41h-87v8q0 22 10 48t25 47q37 45 94 64t123 19q45 0 86.5 -9.5t73.5 -31t51.5 -56.5t19.5 -85q0 -19 -3.5 -40t-14.5 -42t-31.5 -41t-54.5 -36q31 -6 56.5 -22t42.5 -39t26.5 -51t9.5 -59v-6
q-1 -56 -24 -95t-59.5 -63.5t-83.5 -35.5t-97 -11q-59 0 -112.5 13t-92.5 45z" />
    <glyph glyph-name="uni0418" unicode="&#x418;" horiz-adv-x="732" 
d="M87 0v707h87v-571l379 571h92v-707h-87v566l-380 -566h-91z" />
    <glyph glyph-name="uni0419" unicode="&#x419;" horiz-adv-x="732" 
d="M366 839q45 0 72 20.5t29 58.5h83q-2 -72 -49.5 -111.5t-134.5 -39.5t-134.5 39.5t-49.5 111.5h83q2 -38 29 -58.5t72 -20.5zM87 0v707h87v-571l379 571h92v-707h-87v566l-380 -566h-91z" />
    <glyph glyph-name="uni041A" unicode="&#x41a;" horiz-adv-x="625" 
d="M174 0h-87v707h87v-326h105l230 326h100l-254 -351l256 -356h-103l-222 302h-112v-302z" />
    <glyph glyph-name="uni041B" unicode="&#x41b;" horiz-adv-x="693" 
d="M519 0v628h-297q-2 -54 -3.5 -110t-2.5 -110q0 -30 -1.5 -71.5t-3.5 -84.5t-7 -82t-14 -64q-17 -51 -58 -81t-118 -32v86q37 0 62.5 23.5t33.5 58.5q11 36 13.5 89.5t4.5 101.5q2 88 4.5 177.5t2.5 177.5h471v-707h-87z" />
    <glyph glyph-name="uni041C" unicode="&#x41c;" horiz-adv-x="860" 
d="M87 0v707h130l216 -389l213 389h127v-707h-87v619l-235 -435h-40l-237 435v-619h-87z" />
    <glyph glyph-name="uni041D" unicode="&#x41d;" horiz-adv-x="727" 
d="M174 387h379v320h87v-707h-87v307h-379v-307h-87v707h87v-320z" />
    <glyph glyph-name="uni041E" unicode="&#x41e;" horiz-adv-x="761" 
d="M381 -8q-83 0 -145 27.5t-104 75.5t-63 114t-21 144t21 144.5t63 114.5t104 75.5t145 27.5q82 0 144 -27.5t104 -75.5t63 -114.5t21 -144.5t-21 -144t-63 -114t-104 -75.5t-144 -27.5zM381 636q-63 0 -109 -22.5t-76 -61.5t-45 -90.5t-15 -108.5t14.5 -108t44.5 -90
t76.5 -61.5t109.5 -22.5t109 22.5t75.5 61t44 89.5t14.5 109t-14.5 109.5t-44.5 90t-76 61t-108 22.5z" />
    <glyph glyph-name="uni041F" unicode="&#x41f;" horiz-adv-x="730" 
d="M643 0h-87v628h-382v-628h-87v707h556v-707z" />
    <glyph glyph-name="uni0420" unicode="&#x420;" horiz-adv-x="625" 
d="M87 0v707h245q117 0 183 -57.5t66 -177.5q0 -61 -21.5 -107t-59.5 -76q-32 -26 -80 -41t-106 -15h-140v-233h-87zM174 312h136q38 0 74 9.5t59 30.5q23 20 36 49t13 75q0 152 -164 152h-154v-316z" />
    <glyph glyph-name="uni0421" unicode="&#x421;" horiz-adv-x="710" 
d="M372 636q-63 0 -107.5 -23t-73 -62t-41.5 -89.5t-13 -105.5q0 -59 14 -111t43 -90.5t74 -61t107 -22.5q75 0 126 31t66 83h95q-23 -88 -97 -140.5t-192 -52.5q-82 0 -143 27t-101.5 75t-60.5 114t-20 145q0 78 20 144t61 114.5t102 76t144 27.5q58 0 104.5 -14t81 -39.5
t56.5 -61t32 -78.5h-88q-15 52 -64.5 83t-124.5 31z" />
    <glyph glyph-name="uni0422" unicode="&#x422;" horiz-adv-x="569" 
d="M328 0h-87v628h-227v79h541v-79h-227v-628z" />
    <glyph glyph-name="uni0423" unicode="&#x423;" horiz-adv-x="614" 
d="M116 81q31 0 56 3.5t46 14t39.5 29.5t35.5 51l-278 528h103l225 -438l178 438h94q-32 -72 -63.5 -147.5t-63.5 -151.5q-24 -57 -49.5 -115.5t-53.5 -113.5q-19 -38 -40.5 -71t-45.5 -55q-37 -33 -81 -43.5t-102 -10.5v82z" />
    <glyph glyph-name="uni0424" unicode="&#x424;" horiz-adv-x="837" 
d="M375 -9v115h-80q-60 1 -106 22.5t-77.5 58t-47.5 86.5t-16 109q1 61 21 110t54.5 83t82 52.5t104.5 18.5h65v100h87v-100h64q57 0 104.5 -18.5t82.5 -52.5t55 -83t21 -110q0 -59 -17 -109t-49 -86.5t-79 -58t-107 -22.5h-75v-115h-87zM317 571q-42 0 -75.5 -14t-57 -38.5
t-36 -59t-12.5 -75.5q0 -44 10 -81t31.5 -64t55 -42.5t80.5 -15.5h62v390h-58zM462 181h62q47 0 80.5 15.5t55 42.5t31.5 64t10 81q0 41 -12.5 75.5t-36 59t-57 38.5t-75.5 14h-58v-390z" />
    <glyph glyph-name="uni0425" unicode="&#x425;" horiz-adv-x="593" 
d="M466 707h105l-220 -351l228 -356h-105l-178 283l-180 -283h-102l227 353l-220 354h106l170 -282z" />
    <glyph glyph-name="uni0426" unicode="&#x426;" horiz-adv-x="724" 
d="M87 0v707h87v-628h359v628h87v-628h85v-274h-87v195h-531z" />
    <glyph glyph-name="uni0427" unicode="&#x427;" horiz-adv-x="661" 
d="M333 328q64 0 94.5 2t59.5 6v371h87v-707h-87v258q-19 -2 -65 -5.5t-66 -3.5h-38q-60 1 -107 11.5t-79.5 36t-50 68.5t-17.5 110v232h87v-208q0 -54 11 -87t33.5 -51t56.5 -25t81 -8z" />
    <glyph glyph-name="uni0428" unicode="&#x428;" horiz-adv-x="965" 
d="M87 707h87v-628h265v628h87v-628h265v628h87v-707h-791v707z" />
    <glyph glyph-name="uni0429" unicode="&#x429;" horiz-adv-x="982" 
d="M87 707h87v-628h265v628h87v-628h265v628h87v-628h85v-274h-87v195h-789v707z" />
    <glyph glyph-name="uni042A" unicode="&#x42a;" horiz-adv-x="731" 
d="M184 628h-170v79h257v-292h146q52 0 99.5 -7.5t84 -29t58.5 -60t22 -100.5q0 -65 -21.5 -105.5t-58.5 -65.5t-86 -36t-104 -11h-227v628zM271 79h131q36 0 70.5 4.5t61.5 19t43 40.5t16 69t-16 67.5t-42 37t-59.5 16t-68.5 3.5h-136v-257z" />
    <glyph glyph-name="uni042B" unicode="&#x42b;" horiz-adv-x="841" 
d="M87 707h87v-292h125q52 0 99.5 -7.5t84 -29t58.5 -60t22 -100.5q0 -65 -21 -105.5t-57.5 -65.5t-85.5 -36t-104 -11h-208v707zM667 0v707h87v-707h-87zM174 79h110q36 0 70.5 4.5t61.5 19t43 40.5t16 69t-16 67.5t-42 37t-59.5 16t-68.5 3.5h-115v-257z" />
    <glyph glyph-name="uni042C" unicode="&#x42c;" horiz-adv-x="633" 
d="M86 707h87v-292h145q53 0 100.5 -7.5t83.5 -29t58 -60t23 -100.5q0 -63 -21.5 -104.5t-58.5 -67t-86.5 -36t-104.5 -10.5h-226v707zM173 79h131q37 0 71 5t60.5 19t42.5 39t16 70q0 43 -16 67.5t-42 37t-59.5 16t-68.5 3.5h-135v-257z" />
    <glyph glyph-name="uni042D" unicode="&#x42d;" horiz-adv-x="708" 
d="M338 636q-75 0 -126 -31t-66 -83h-88q12 51 39.5 87.5t65 60t83.5 34.5t96 11q83 -1 143 -29.5t99 -78t57.5 -116t18.5 -143.5q0 -78 -20.5 -143.5t-61 -112.5t-102 -73.5t-143.5 -26.5q-117 0 -189.5 52.5t-95.5 140.5h95q15 -52 66.5 -83t126.5 -31q57 0 99.5 18.5
t71.5 51.5t44.5 77.5t17.5 95.5h-326v79h326q-3 49 -18.5 93t-44 77.5t-70.5 53t-98 19.5z" />
    <glyph glyph-name="uni042E" unicode="&#x42e;" horiz-adv-x="991" 
d="M87 0v707h87v-314h115q4 70 26 129t62 102t98 67t135 24q82 0 144.5 -27.5t104.5 -75.5t63 -114.5t21 -144.5t-21 -144t-63 -114t-104.5 -75.5t-144.5 -27.5q-77 0 -135 24t-98 67t-62 102t-26 129h-115v-314h-87zM610 636q-62 0 -106.5 -22.5t-73 -61.5t-41.5 -90.5
t-13 -108.5t13 -108t41 -90t72.5 -61.5t107.5 -22.5t109 22.5t75.5 61t44 89.5t14.5 109t-14.5 109.5t-44.5 90t-75.5 61t-108.5 22.5z" />
    <glyph glyph-name="uni042F" unicode="&#x42f;" horiz-adv-x="660" 
d="M157 0h-97l151 281q-33 8 -61.5 24t-49.5 41t-33 59.5t-12 78.5q0 60 18 102t51.5 69t81 39.5t105.5 12.5h262v-707h-87v265h-188zM486 344v284h-176q-85 0 -126 -35t-41 -106q0 -45 15.5 -72t43 -43t62 -22t73.5 -6h149z" />
    <glyph glyph-name="uni0430" unicode="&#x430;" horiz-adv-x="555" 
d="M414 67q-17 -23 -39 -37t-45.5 -22t-47 -11t-46.5 -3q-37 0 -70 9t-59.5 29t-42 50t-15.5 68q0 45 16.5 75.5t44.5 49.5t64.5 26.5t77.5 7.5h155q0 67 -29 106.5t-98 41.5q-42 0 -74 -14t-44 -46h-91q7 36 28 61.5t50 42t63 24.5t68 8q59 0 99.5 -19.5t65.5 -51t35 -76.5
t10 -101v-285h-71zM314 238h-55.5t-60.5 -6.5t-46.5 -25.5t-17.5 -50q0 -23 9 -39t24.5 -27t35.5 -16t41 -5q75 0 118.5 36.5t44.5 106.5v26h-93z" />
    <glyph glyph-name="uni0431" unicode="&#x431;" horiz-adv-x="576" 
d="M131 408q15 21 35 35.5t43.5 24.5t48 14.5t47.5 4.5q54 0 95.5 -17t70 -48.5t43.5 -75.5t15 -98t-16 -100.5t-46.5 -80.5t-75 -53.5t-102.5 -19.5q-66 0 -111 23.5t-72.5 63t-40.5 94.5t-14 108q-2 16 -1.5 64.5t4.5 87.5q4 40 13.5 77.5t26.5 66.5q27 48 68.5 71
t95.5 32q17 3 76.5 11.5t81.5 11.5q19 2 41.5 5.5t44.5 7.5v-78q-15 -5 -37 -8.5t-50 -6.5q-20 -3 -41.5 -5.5t-44 -5t-68.5 -9.5q-34 -5 -55.5 -19t-37.5 -37q-19 -28 -27.5 -67.5t-9.5 -73.5zM291 69q37 0 65.5 14t48 38t29.5 56t10 68q0 35 -10.5 65.5t-29.5 53t-46 35
t-66 12.5q-36 -1 -64 -14t-48 -36.5t-30 -54t-11 -63.5q0 -35 9.5 -66.5t28.5 -55.5t47.5 -38t66.5 -14z" />
    <glyph glyph-name="uni0432" unicode="&#x432;" horiz-adv-x="547" 
d="M67 527h204q51 0 87.5 -7t61.5 -25q22 -15 34.5 -40t12.5 -59q0 -79 -71 -113q54 -12 78 -47t24 -80q-1 -42 -14 -68.5t-36.5 -46t-57.5 -30.5t-77 -11h-246v527zM154 452v-150h73q25 0 51 1.5t46 8.5q25 8 42 26t18 43q0 29 -12.5 42.5t-30.5 20t-39 7.5t-39 1h-109z
M154 74h139q23 0 44.5 3t37.5 11.5t26 23.5t11 38q0 30 -14 47.5t-38 25.5q-20 6 -45 7t-52 1l-109 -1v-156z" />
    <glyph glyph-name="uni0433" unicode="&#x433;" horiz-adv-x="454" 
d="M67 0v527h364v-75h-279v-452h-85z" />
    <glyph glyph-name="uni0434" unicode="&#x434;" horiz-adv-x="593" 
d="M127 411q1 29 1 58v58h374v-453h69v-236h-82v162h-385v-162h-82v236q40 0 63 36q14 20 22 57.5t12 79.5q5 46 6.5 91.5t1.5 72.5zM417 452h-208q-1 -42 -2 -94t-4 -97q-1 -20 -3 -43.5t-6.5 -48t-13 -49.5t-23.5 -46h260v378z" />
    <glyph glyph-name="uni0435" unicode="&#x435;" horiz-adv-x="573" 
d="M133 232q3 -35 14.5 -64.5t31.5 -51.5t49.5 -34.5t68.5 -12.5q19 0 39.5 3.5t38.5 12t32 22.5t21 34h87q-9 -38 -30.5 -66t-51 -46t-65.5 -26.5t-73 -8.5q-63 0 -109.5 20t-77.5 55.5t-46 85t-15 108.5t16.5 108.5t47.5 85.5t76 56t107 20q63 0 109 -25t74 -65.5
t39.5 -87.5t9.5 -87q0 -9 -0.5 -18t-1.5 -18h-391zM440 306q-2 67 -42 109t-107 42q-37 0 -65 -12t-47 -33t-30 -48.5t-14 -57.5h305z" />
    <glyph glyph-name="uni0436" unicode="&#x436;" horiz-adv-x="761" 
d="M338 0v227h-88l-137 -227h-99l171 276l-156 251h91l139 -228h79v228h85v-228h79l139 228h91l-156 -251l171 -276h-99l-137 227h-88v-227h-85z" />
    <glyph glyph-name="uni0437" unicode="&#x437;" horiz-adv-x="514" 
d="M380 283q51 -16 71 -50t20 -81q-1 -42 -19.5 -72t-48.5 -49t-68 -28t-78 -9q-38 0 -76.5 7t-69.5 24t-51.5 45t-22.5 71h83q4 -21 19 -34.5t35.5 -22t43 -12t40.5 -3.5q21 0 43.5 3t41.5 12t31 25.5t12 42.5q0 21 -9 38.5t-28 26.5q-17 8 -39 9.5t-41 1.5h-94v75h77
q19 0 39 3.5t36.5 12.5t27 23.5t11.5 41.5q0 21 -9.5 35t-25 22.5t-35 12t-38.5 3.5q-18 0 -38 -2.5t-37 -10t-29 -20.5t-15 -34h-84q1 40 19.5 67.5t47.5 44t64.5 24t70.5 7.5t69.5 -7t61.5 -23.5t44 -43.5t17 -67q0 -36 -17 -64t-52 -45z" />
    <glyph glyph-name="uni0438" unicode="&#x438;" horiz-adv-x="596" 
d="M150 0h-83v527h85v-404q7 14 19 30.5t19 25.5l255 348h84v-527h-85v404q-8 -15 -17.5 -28.5t-17.5 -23.5z" />
    <glyph glyph-name="uni0439" unicode="&#x439;" horiz-adv-x="596" 
d="M306 662q42 0 67.5 16t25.5 56h78q-2 -72 -47.5 -105t-124.5 -33t-123.5 33t-46.5 105h78q1 -40 26 -56t67 -16zM150 0h-83v527h85v-404q7 14 19 30.5t19 25.5l255 348h84v-527h-85v404q-8 -15 -17.5 -28.5t-17.5 -23.5z" />
    <glyph glyph-name="uni043A" unicode="&#x43a;" horiz-adv-x="519" 
d="M67 0v527h85v-227h92l156 227h97l-176 -251l191 -276h-100l-158 226h-102v-226h-85z" />
    <glyph glyph-name="uni043B" unicode="&#x43b;" horiz-adv-x="560" 
d="M116 247q5 72 7.5 140t3.5 140h366v-527h-85v452h-198l-9 -207q-2 -40 -9 -90t-29 -91q-17 -29 -46 -47t-67 -18h-31v75q40 0 64 34q14 20 22 58t11 81z" />
    <glyph glyph-name="uni043C" unicode="&#x43c;" horiz-adv-x="699" 
d="M67 527h114l171 -264l168 264h112v-527h-84v433l-186 -298h-24l-187 298v-433h-84v527z" />
    <glyph glyph-name="uni043D" unicode="&#x43d;" horiz-adv-x="568" 
d="M67 0v527h85v-231h264v231h85v-527h-85v221h-264v-221h-85z" />
    <glyph glyph-name="uni043E" unicode="&#x43e;" horiz-adv-x="595" 
d="M299 533q63 0 109 -20t77.5 -56t47 -85.5t15.5 -108.5t-15.5 -108.5t-47 -85t-78.5 -55.5t-110 -20t-109.5 20t-78 55.5t-47 85t-15.5 108.5t15.5 108.5t47 85.5t78.5 56t111 20zM297 69q43 0 74.5 15t52 41.5t30 61.5t9.5 76q0 40 -9.5 75.5t-30 62t-52 41.5t-74.5 15
t-74 -15t-51.5 -41.5t-30 -62t-9.5 -75.5q0 -41 9.5 -76t30 -61.5t51.5 -41.5t74 -15z" />
    <glyph glyph-name="uni043F" unicode="&#x43f;" horiz-adv-x="571" 
d="M67 0v527h437v-527h-85v452h-267v-452h-85z" />
    <glyph glyph-name="uni0440" unicode="&#x440;" horiz-adv-x="600" 
d="M152 -190h-85v717h81l4 -81q27 43 73.5 64.5t100.5 22.5q61 0 103.5 -20.5t71 -57t42.5 -86t14 -106.5q0 -58 -14 -107t-43 -85t-73 -56.5t-105 -20.5q-60 0 -102 19t-68 50v-253zM315 69q43 0 72.5 15.5t48 42t27 61.5t9.5 75q0 40 -8.5 75.5t-27.5 61.5t-49.5 41.5
t-73.5 15.5q-51 0 -88 -27.5t-56 -69.5q-11 -23 -15 -47.5t-4 -50.5q0 -30 4 -55.5t15 -48.5q19 -38 55.5 -63.5t90.5 -25.5z" />
    <glyph glyph-name="uni0441" unicode="&#x441;" horiz-adv-x="553" 
d="M292 -6q-63 0 -109 20t-76 56t-45 85t-15 107q0 56 16 105.5t47 86t78 58t114 21.5q40 0 71 -8.5t58.5 -27t47.5 -48.5t29 -73h-87q-15 44 -47.5 63t-76.5 18q-43 0 -75.5 -16.5t-52 -43.5t-28.5 -62.5t-9 -72.5q0 -39 9.5 -74t29 -61.5t50.5 -42t74 -15.5q21 0 41.5 4
t38 13.5t30.5 25.5t19 39h88q-8 -41 -28.5 -70.5t-50.5 -49t-66 -28.5t-75 -9z" />
    <glyph glyph-name="uni0442" unicode="&#x442;" horiz-adv-x="465" 
d="M456 527v-75h-181v-452h-85v452h-181v75h447z" />
    <glyph glyph-name="uni0443" unicode="&#x443;" horiz-adv-x="549" 
d="M441 527h96l-149 -415q-12 -32 -25.5 -72.5t-30 -81t-37 -76.5t-45.5 -58q-37 -33 -71 -41.5t-77 -8.5h-18v81q36 0 61 7.5t43.5 23.5t32 40t27.5 57l-231 544h100l178 -444z" />
    <glyph glyph-name="uni0444" unicode="&#x444;" horiz-adv-x="722" 
d="M318 694h85v-162q129 -2 202.5 -71t73.5 -202q0 -67 -20 -116t-56.5 -81.5t-87.5 -49t-112 -18.5v-174h-85v174q-61 2 -111.5 18.5t-87 49t-56.5 81.5t-20 116q0 134 73 202.5t202 70.5v162zM403 65q97 1 144 50.5t47 146.5t-48.5 147t-142.5 50v-394zM318 459
q-94 0 -142 -50t-48 -147t47 -146.5t143 -50.5v394z" />
    <glyph glyph-name="uni0445" unicode="&#x445;" horiz-adv-x="515" 
d="M254 201l-144 -201h-96l188 269l-179 258h102l134 -200l130 200h99l-178 -261l191 -266h-101z" />
    <glyph glyph-name="uni0446" unicode="&#x446;" horiz-adv-x="584" 
d="M407 74v453h86v-453h69v-236h-83v162h-412v527h85v-453h255z" />
    <glyph glyph-name="uni0447" unicode="&#x447;" horiz-adv-x="529" 
d="M44 527h85v-118q0 -35 4.5 -61.5t17.5 -44.5t37 -27.5t63 -9.5q30 0 63.5 3t62.5 9v249h85v-527h-85v203q-38 -7 -73.5 -9.5t-63.5 -2.5q-56 0 -93.5 13t-60.5 39.5t-32.5 66t-9.5 93.5v124z" />
    <glyph glyph-name="uni0448" unicode="&#x448;" horiz-adv-x="787" 
d="M67 527h85v-453h198v453h85v-453h200v453h85v-527h-653v527z" />
    <glyph glyph-name="uni0449" unicode="&#x449;" horiz-adv-x="811" 
d="M67 527h85v-453h198v453h85v-453h200v453h85v-453h69v-236h-82v162h-640v527z" />
    <glyph glyph-name="uni044A" unicode="&#x44a;" horiz-adv-x="590" 
d="M142 452h-128v75h215v-201h117q45 0 82.5 -6.5t66.5 -26.5q26 -20 40.5 -49.5t14.5 -71.5q-1 -50 -16 -79.5t-38 -49.5q-27 -23 -67 -33t-82 -10h-205v452zM279 74q38 0 76.5 1.5t66.5 15.5q19 8 30.5 27.5t11.5 50.5q0 29 -12 45.5t-31.5 25t-43.5 10.5t-47 2h-101v-178
h50z" />
    <glyph glyph-name="uni044B" unicode="&#x44b;" horiz-adv-x="679" 
d="M67 527h87v-201h95q45 0 82.5 -6.5t66.5 -26.5q27 -20 41.5 -50.5t14.5 -75.5q-2 -45 -16.5 -74.5t-37.5 -49.5q-28 -23 -68 -33t-82 -10h-183v527zM527 0v527h85v-527h-85zM182 74q38 0 76.5 1.5t66.5 15.5q19 8 30.5 27.5t12.5 45.5q0 31 -12.5 49t-32 26.5t-43.5 10.5
t-47 2h-79v-178h28z" />
    <glyph glyph-name="uni044C" unicode="&#x44c;" horiz-adv-x="519" 
d="M67 527h87v-201h116q45 0 83 -6.5t66 -26.5q27 -20 41.5 -50.5t14.5 -75.5q-1 -45 -16 -74.5t-38 -49.5q-27 -23 -67.5 -33t-82.5 -10h-204v527zM204 74q38 0 76 1.5t66 15.5q19 8 30.5 27.5t12.5 45.5q0 31 -12.5 49t-32 26.5t-43.5 10.5t-47 2h-100v-178h50z" />
    <glyph glyph-name="uni044D" unicode="&#x44d;" horiz-adv-x="548" 
d="M419 298q-5 70 -42.5 114t-110.5 45q-22 0 -43.5 -4t-40 -13.5t-32.5 -25t-20 -38.5h-86q8 36 25 63t41 47q34 26 73.5 36.5t81.5 10.5q65 0 109.5 -20.5t73.5 -56.5t43 -85.5t14 -107.5q0 -60 -14.5 -109.5t-44.5 -85t-75.5 -55t-108.5 -19.5q-39 0 -76 9t-67 28.5
t-51 49t-29 70.5h88q6 -23 20.5 -39t34 -25.5t41.5 -13.5t43 -4q37 0 65.5 12.5t47 33.5t28.5 49t11 60h-231v74h232z" />
    <glyph glyph-name="uni044E" unicode="&#x44e;" horiz-adv-x="785" 
d="M494 533q63 0 109.5 -20t77 -56t46 -85.5t15.5 -108.5t-15.5 -108.5t-46 -85t-77 -55.5t-109.5 -20q-58 0 -101.5 17t-73.5 47.5t-46.5 73t-20.5 94.5h-100v-226h-85v527h85v-227h100q4 52 20.5 94.5t46.5 73.5t73.5 48t101.5 17zM494 69q43 0 74 15t50.5 41.5t29 61.5
t9.5 76q0 40 -9.5 75.5t-29 62t-50.5 41.5t-74 15t-73.5 -15t-49.5 -41.5t-28 -62t-9 -75.5q0 -41 9 -76t28 -61.5t49.5 -41.5t73.5 -15z" />
    <glyph glyph-name="uni044F" unicode="&#x44f;" horiz-adv-x="534" 
d="M467 0h-85v195h-121l-128 -195h-99l137 208q-57 16 -89 52.5t-34 97.5q-1 53 16.5 85.5t46.5 52.5q28 20 65 25.5t79 5.5h212v-527zM382 452l-113 1q-25 0 -50.5 -2t-45.5 -13q-17 -10 -27.5 -28.5t-11.5 -47.5q1 -27 13 -45.5t34 -29.5q29 -14 64.5 -16t73.5 -2h63v183z
" />
    <glyph glyph-name="uni0451" unicode="&#x451;" horiz-adv-x="573" 
d="M182 707q25 0 41.5 -15.5t16.5 -40.5t-16.5 -40.5t-41.5 -15.5q-24 0 -40.5 15.5t-16.5 40.5t16.5 40.5t40.5 15.5zM407 707q25 0 41.5 -15.5t16.5 -40.5t-16.5 -40.5t-41.5 -15.5q-24 0 -40 15.5t-16 40.5t16 40.5t40 15.5zM133 232q3 -35 14.5 -64.5t31.5 -51.5
t49.5 -34.5t68.5 -12.5q19 0 39.5 3.5t38.5 12t32 22.5t21 34h87q-9 -38 -30.5 -66t-51 -46t-65.5 -26.5t-73 -8.5q-63 0 -109.5 20t-77.5 55.5t-46 85t-15 108.5t16.5 108.5t47.5 85.5t76 56t107 20q63 0 109 -25t74 -65.5t39.5 -87.5t9.5 -87q0 -9 -0.5 -18t-1.5 -18h-391
zM440 306q-2 67 -42 109t-107 42q-37 0 -65 -12t-47 -33t-30 -48.5t-14 -57.5h305z" />
    <glyph glyph-name="uni0454" unicode="&#x454;" horiz-adv-x="547" 
d="M129 298h232v-74h-231q2 -69 42.5 -111.5t110.5 -43.5q21 0 43 4t41 13.5t33.5 25.5t20.5 39h87q-8 -40 -30 -69.5t-52.5 -49t-67.5 -29t-75 -9.5q-63 0 -108.5 19.5t-74.5 55t-43 85t-14 109.5q0 59 15 108.5t45.5 85.5t76.5 56t108 20q39 0 74.5 -9.5t63.5 -28.5
t48 -49t29 -70h-85q-6 23 -20 38.5t-32.5 25t-40.5 13.5t-43 4q-74 -1 -111.5 -45.5t-41.5 -113.5z" />
    <glyph glyph-name="uni0455" unicode="&#x455;" horiz-adv-x="509" 
d="M255 457q-18 0 -36.5 -2.5t-36 -10t-30 -22t-13.5 -38.5q0 -34 25.5 -51t66.5 -25q17 -4 37 -7.5t39.5 -7t37 -7.5t29.5 -8q96 -30 96 -129q-1 -48 -20.5 -77.5t-49 -46.5t-67 -24t-74.5 -7q-36 0 -73 7t-67.5 24.5t-52 46t-27.5 71.5h86q8 -24 25 -38t36.5 -22t37 -11
t39.5 -3q16 0 37 2t40 9.5t32 22.5t13 42q0 30 -19.5 45t-53.5 22q-24 5 -49.5 9.5t-51 10t-49.5 13t-45 20.5q-28 17 -45 46t-17 71q2 44 20 72.5t46 46.5q30 18 64 25t72 7q81 0 129 -35q29 -20 45 -48t20 -59h-79q-7 29 -38 47t-79 19z" />
    <glyph glyph-name="uni0456" unicode="&#x456;" horiz-adv-x="233" 
d="M116 720q24 0 41 -15.5t17 -40.5t-17 -41t-41 -16q-25 0 -41 16t-16 41t16 40.5t41 15.5zM74 0v527h85v-527h-85z" />
    <glyph glyph-name="uni0457" unicode="&#x457;" horiz-adv-x="232" 
d="M74 0v527h85v-527h-85zM45 707q23 0 38.5 -14.5t15.5 -37.5q0 -24 -15.5 -39t-38.5 -15t-38 15t-15 39q0 23 15 37.5t38 14.5zM188 707q23 0 38 -14.5t15 -37.5q0 -24 -15 -39t-38 -15q-24 0 -38.5 15t-14.5 39q0 23 15 37.5t38 14.5z" />
    <glyph glyph-name="uni0458" unicode="&#x458;" horiz-adv-x="254" 
d="M137 720q24 0 41 -15.5t17 -40.5t-17 -41t-41 -16q-25 0 -41 16t-16 41t16 40.5t41 15.5zM180 527v-537q0 -88 -38 -129t-127 -41h-46v74h36q54 0 72 27t18 78v528h85z" />
    <glyph glyph-name="uni045E" unicode="&#x45e;" horiz-adv-x="554" 
d="M446 527h96l-149 -415q-12 -32 -25.5 -72.5t-30 -81t-37 -76.5t-45.5 -58q-37 -33 -71 -41.5t-77 -8.5h-18v81q36 0 61 7.5t43.5 23.5t32 40t27.5 57l-236 544h100l183 -444zM289 667q42 0 66.5 16t26.5 51h78q-2 -65 -47.5 -99t-124.5 -34t-123.5 34t-46.5 99h78
q2 -35 26.5 -51t66.5 -16z" />
    <glyph glyph-name="uni0490" unicode="&#x490;" horiz-adv-x="571" 
d="M87 0v707h368v135h87v-214h-368v-628h-87z" />
    <glyph glyph-name="uni0491" unicode="&#x491;" horiz-adv-x="454" 
d="M67 0v527h280v140h84v-215h-279v-452h-85z" />
    <glyph glyph-name="uni04C1" unicode="&#x4c1;" horiz-adv-x="860" 
d="M430 853q42 0 66.5 16t26.5 51h78q-2 -66 -47.5 -99.5t-124.5 -33.5t-123.5 33.5t-46.5 99.5h78q2 -35 26.5 -51t66.5 -16zM386 0v307h-108l-163 -307h-101l192 357l-191 350h96l169 -321h106v321h87v-321h108l169 321h94l-191 -350l193 -357h-102l-163 307h-108v-307
h-87z" />
    <glyph glyph-name="uni04C2" unicode="&#x4c2;" horiz-adv-x="761" 
d="M381 672q42 0 66.5 16t26.5 51h78q-2 -66 -47.5 -99.5t-124.5 -33.5t-123.5 33.5t-46.5 99.5h78q2 -35 26.5 -51t66.5 -16zM423 0h-85v227h-76l-149 -227h-99l183 276l-168 251h93l151 -228h65v228h85v-228h65l151 228h93l-168 -251l183 -276h-99l-149 227h-76v-227z" />
    <glyph glyph-name="Wgrave" unicode="&#x1e80;" horiz-adv-x="983" 
d="M560 707l154 -632l161 632h94l-192 -707h-132l-154 624l-154 -624h-131l-192 707h98l161 -632l154 632h133v0zM473 808l-100 141h92l85 -141h-77z" />
    <glyph glyph-name="wgrave" unicode="&#x1e81;" horiz-adv-x="843" 
d="M12 527h96l126 -445l130 445h115l131 -445l124 445h97l-164 -527h-116l-130 427l-130 -427h-115zM397 628l-100 141h92l85 -141h-77z" />
    <glyph glyph-name="Wacute" unicode="&#x1e82;" horiz-adv-x="983" 
d="M560 707l154 -632l161 632h94l-192 -707h-132l-154 624l-154 -624h-131l-192 707h98l161 -632l154 632h133v0zM518 949h92l-100 -141h-77z" />
    <glyph glyph-name="wacute" unicode="&#x1e83;" horiz-adv-x="843" 
d="M12 527h96l126 -445l130 445h115l131 -445l124 445h97l-164 -527h-116l-130 427l-130 -427h-115zM457 769h92l-100 -141h-77z" />
    <glyph glyph-name="Wdieresis" unicode="&#x1e84;" horiz-adv-x="983" 
d="M560 707l154 -632l161 632h94l-192 -707h-132l-154 624l-154 -624h-131l-192 707h98l161 -632l154 632h133v0zM364 900q25 0 41.5 -15.5t16.5 -40.5t-16.5 -40.5t-41.5 -15.5q-24 0 -40.5 15.5t-16.5 40.5t16.5 40.5t40.5 15.5zM629 900q25 0 41.5 -15.5t16.5 -40.5
t-16.5 -40.5t-41.5 -15.5q-24 0 -40 15.5t-16 40.5t16 40.5t40 15.5z" />
    <glyph glyph-name="wdieresis" unicode="&#x1e85;" horiz-adv-x="843" 
d="M12 527h96l126 -445l130 445h115l131 -445l124 445h97l-164 -527h-116l-130 427l-130 -427h-115zM278 717q25 0 41.5 -15.5t16.5 -40.5t-16.5 -40.5t-41.5 -15.5q-24 0 -40.5 15.5t-16.5 40.5t16.5 40.5t40.5 15.5zM563 717q25 0 41.5 -15.5t16.5 -40.5t-16.5 -40.5
t-41.5 -15.5q-24 0 -40 15.5t-16 40.5t16 40.5t40 15.5z" />
    <glyph glyph-name="uni1E9E" unicode="&#x1e9e;" horiz-adv-x="692" 
d="M85 0v513q0 51 18.5 88.5t51 63t77 38t95.5 12.5q38 0 74.5 -9.5t67 -28t52.5 -47t31 -65.5l-144 -181q40 -17 81 -36.5t76 -44.5q36 -24 59 -60t23 -87q0 -38 -14 -68.5t-38.5 -51.5t-59 -32.5t-75.5 -11.5q-39 0 -73 9.5t-60 28.5t-43 46.5t-22 62.5h88q8 -35 39 -51.5
t74 -16.5q45 0 71 23.5t26 60.5q0 25 -13 46.5t-31.5 36.5t-48 31.5t-58.5 28.5q-32 14 -61.5 26.5t-54.5 22.5l162 218q-9 19 -24 32.5t-33 22t-38 12.5t-39 4q-31 0 -58 -9t-47.5 -25.5t-32 -41t-11.5 -55.5v-505h-87z" />
    <glyph glyph-name="Ygrave" unicode="&#x1ef2;" horiz-adv-x="614" 
d="M501 707h99l-249 -441v-266h-87v265l-250 442h101l194 -354zM298 786l-100 141h92l85 -141h-77z" />
    <glyph glyph-name="ygrave" unicode="&#x1ef3;" horiz-adv-x="597" 
d="M530 527v-527q0 -115 -60 -175.5t-171 -60.5q-67 1 -120.5 17.5t-98.5 58.5l37 67q39 -31 83.5 -49t93.5 -18q41 0 70 12.5t47.5 35t27 53.5t8.5 67v63q-13 -20 -32.5 -35.5t-42 -25t-48 -14t-51.5 -4.5q-60 1 -99.5 19t-63 50t-33.5 76.5t-10 98.5v291h85v-267
q0 -36 4.5 -71t18.5 -62t41 -43.5t72 -16.5t76.5 19t48.5 48q19 30 25.5 66t6.5 74v253h85zM288 628l-100 141h92l85 -141h-77z" />
    <glyph glyph-name="uni2009" unicode="&#x2009;" horiz-adv-x="110" 
 />
    <glyph glyph-name="endash" unicode="&#x2013;" horiz-adv-x="578" 
d="M74 321h430v-78h-430v78z" />
    <glyph glyph-name="emdash" unicode="&#x2014;" horiz-adv-x="759" 
d="M74 321h611v-78h-611v78z" />
    <glyph glyph-name="quoteleft" unicode="&#x2018;" horiz-adv-x="261" 
d="M133 626q26 -2 42 -17t16 -40q0 -28 -18 -43t-40 -15q-35 1 -52 28q-13 22 -13 51q0 26 8.5 50t22.5 45t32.5 37t38.5 23l24 -33q-20 -14 -37.5 -38t-23.5 -48z" />
    <glyph glyph-name="quoteright" unicode="&#x2019;" horiz-adv-x="261" 
d="M128 617q-26 2 -42 17t-16 40q0 28 17.5 43t44.5 15q31 0 48 -26q13 -24 13 -53q0 -27 -8.5 -50.5t-22.5 -44.5t-32.5 -37t-38.5 -23l-24 33q20 14 37.5 38t23.5 48z" />
    <glyph glyph-name="quotesinglbase" unicode="&#x201a;" horiz-adv-x="261" 
d="M128 -3q-26 2 -42 17t-16 40q0 28 17.5 43t44.5 15q32 -2 46.5 -25.5t14.5 -50.5q0 -30 -8.5 -53.5t-22.5 -44.5t-32.5 -37t-38.5 -23l-24 33q20 14 37.5 38t23.5 48z" />
    <glyph glyph-name="quotedblleft" unicode="&#x201c;" horiz-adv-x="450" 
d="M322 626q26 -2 42 -17t16 -40q0 -28 -17 -43t-42 -15q-34 2 -49 25t-15 52q0 28 8.5 52t22.5 45t32.5 37t38.5 23l24 -33q-20 -14 -37.5 -38t-23.5 -48zM133 626q26 -2 42 -17t16 -40q0 -28 -17.5 -43t-40.5 -15q-35 1 -50 24.5t-15 52.5q0 28 8.5 52t22.5 45t32.5 37
t38.5 23l24 -33q-20 -14 -37.5 -38t-23.5 -48z" />
    <glyph glyph-name="quotedblright" unicode="&#x201d;" horiz-adv-x="450" 
d="M128 617q-26 2 -42 17t-16 40q0 28 18 43t45 15q33 -2 46.5 -26t13.5 -53q0 -27 -8.5 -50.5t-22.5 -44.5t-32.5 -37t-38.5 -23l-24 33q20 14 37.5 38t23.5 48zM317 617q-26 2 -42 17t-16 40q0 28 18 43t45 15q33 -2 46.5 -26t13.5 -53q0 -27 -8.5 -50.5t-22.5 -44.5
t-32.5 -37t-38.5 -23l-24 33q20 14 37.5 38t23.5 48z" />
    <glyph glyph-name="quotedblbase" unicode="&#x201e;" horiz-adv-x="450" 
d="M128 -3q-26 2 -42 17t-16 40q0 28 17.5 43t44.5 15q31 -1 46 -25.5t15 -53.5q0 -27 -8.5 -50.5t-22.5 -44.5t-32.5 -37t-38.5 -23l-24 33q20 14 37.5 38t23.5 48zM317 -3q-26 2 -42 17t-16 40q0 28 17.5 43t44.5 15q31 -1 46 -25.5t15 -53.5q0 -27 -8.5 -50.5
t-22.5 -44.5t-32.5 -37t-38.5 -23l-24 33q20 14 37.5 38t23.5 48z" />
    <glyph glyph-name="bullet" unicode="&#x2022;" horiz-adv-x="340" 
d="M172 475q45 0 77 -29.5t32 -81.5q0 -49 -32.5 -78.5t-77.5 -29.5q-23 0 -42 6.5t-34.5 20t-25.5 34t-10 47.5q0 52 32.5 81.5t80.5 29.5z" />
    <glyph glyph-name="ellipsis" unicode="&#x2026;" horiz-adv-x="697" 
d="M116 112q25 0 42.5 -17t17.5 -43t-17.5 -43t-42.5 -17q-26 0 -42.5 17t-16.5 43t16.5 43t42.5 17zM350 112q25 0 42.5 -17t17.5 -43t-17.5 -43t-42.5 -17q-26 0 -42.5 17t-16.5 43t16.5 43t42.5 17zM580 112q25 0 42.5 -17t17.5 -43t-17.5 -43t-42.5 -17q-26 0 -42.5 17
t-16.5 43t16.5 43t42.5 17z" />
    <glyph glyph-name="uni202F" unicode="&#x202f;" horiz-adv-x="110" 
 />
    <glyph glyph-name="guilsinglleft" unicode="&#x2039;" horiz-adv-x="301" 
d="M242 90h-90l-113 174l113 174h90l-115 -174z" />
    <glyph glyph-name="guilsinglright" unicode="&#x203a;" horiz-adv-x="301" 
d="M59 438h90l113 -174l-113 -174h-90l115 174z" />
    <glyph glyph-name="Euro" unicode="&#x20ac;" horiz-adv-x="679" 
d="M435 -8q-115 0 -186.5 60.5t-97.5 172.5h-102l13 78h83q-1 11 -1.5 21t-0.5 20q0 5 0.5 19.5t2.5 41.5h-97l13 78h94q26 109 94 170.5t182 61.5q60 0 106.5 -16t84.5 -53l-44 -63q-32 28 -67 40.5t-81 12.5q-41 -1 -74 -13.5t-56.5 -34t-37.5 -49t-21 -56.5h272l-13 -78
h-272q-3 -23 -3.5 -39t-0.5 -19q0 -12 1 -23t3 -21h254l-13 -78h-229q17 -69 67.5 -112.5t131.5 -43.5q46 0 80 10.5t68 41.5l42 -56q-73 -73 -195 -73z" />
    <glyph glyph-name="uni20B4" unicode="&#x20b4;" horiz-adv-x="589" 
d="M318 715q37 0 72 -9t62 -27.5t43.5 -48t16.5 -71.5q0 -41 -12 -64.5t-26 -40.5h68v-79h-138l-117 -83h255v-79h-343q-8 -8 -13 -21.5t-5 -31.5q0 -26 11 -43.5t29 -28t40 -15.5t44 -4q21 1 40 4t34.5 10t27.5 20t19 34h89q-6 -39 -26 -67t-50 -45t-67 -25t-77 -8
q-39 0 -75.5 9t-64 27.5t-44 48.5t-16.5 72q0 12 4 29.5t12 34.5h-64v79h123l117 83h-240v79h335q16 9 31.5 34.5t16.5 53.5q0 48 -32 71t-83 23q-18 0 -38.5 -3t-37.5 -10.5t-29.5 -22t-18.5 -38.5h-92q6 40 26.5 69t50 47.5t66.5 27.5t76 9z" />
    <glyph glyph-name="uni20BD" unicode="&#x20bd;" horiz-adv-x="699" 
d="M59 171h97v81h-97v80h97v375h245q118 0 183.5 -52.5t65.5 -172.5q0 -59 -19.5 -102.5t-54 -72t-82 -42t-103.5 -13.5h-148v-81h241v-79h-241v-92h-87v92h-97v79zM392 332q35 0 65.5 8.5t53.5 26t36.5 45.5t14.5 71q0 79 -40.5 112t-122.5 33h-156v-296h149z" />
    <glyph glyph-name="uni2116" unicode="&#x2116;" horiz-adv-x="1061" 
d="M858 402q-36 0 -63.5 12t-46 33.5t-28 50t-9.5 61.5q0 34 9.5 62.5t28.5 49.5t46 32.5t63 11.5q34 0 61 -11.5t45.5 -32.5t28 -49.5t9.5 -62.5q0 -33 -9.5 -61.5t-28 -50t-45.5 -33.5t-61 -12zM59 0v707h111l356 -589v589h87v-707h-109l-358 587v-587h-87zM857 644
q-40 0 -56.5 -26t-16.5 -59q0 -35 17 -60.5t56 -25.5t54.5 26t15.5 60q0 33 -15.5 59t-54.5 26zM716 350h281v-77h-281v77z" />
    <glyph glyph-name="uni2117" unicode="&#x2117;" horiz-adv-x="927" 
d="M463 715q89 0 163.5 -29.5t128 -84t83.5 -132t30 -173.5q0 -97 -29.5 -174.5t-82.5 -131.5t-128 -83t-165 -29t-164.5 29t-128 83t-82.5 131.5t-29 174.5q0 96 30 173.5t83.5 132t127.5 84t163 29.5zM463 641q-71 0 -130.5 -24t-102.5 -69t-67 -109t-24 -143
q0 -80 23.5 -143.5t66 -108t102.5 -68.5t132 -24t132 24t102.5 68.5t66 108t23.5 143.5q0 79 -24 143t-67 109t-102.5 69t-130.5 24zM407 72h-77v435h161q75 0 116 -34.5t41 -107.5q0 -45 -13 -73.5t-35.5 -47.5t-53 -28.5t-66.5 -9.5h-73v-134zM477 279q39 0 65.5 17.5
t27.5 63.5q0 74 -84 74h-79v-155h70z" />
    <glyph glyph-name="trademark" unicode="&#x2122;" horiz-adv-x="672" 
d="M518 707h95v-262h-63v198l-66 -144h-37l-66 144v-198h-63v262h96l52 -115zM144 648h-85v59h235v-59h-86v-203h-64v203z" />
    <glyph glyph-name="arrowleft" unicode="&#x2190;" horiz-adv-x="701" 
d="M165 373h522v-74h-522l246 -198l-48 -56l-350 291l350 292l48 -57z" />
    <glyph glyph-name="arrowup" unicode="&#x2191;" horiz-adv-x="701" 
d="M387 0h-74v522l-198 -246l-56 48l291 350l292 -350l-57 -48l-198 246v-522z" />
    <glyph glyph-name="arrowright" unicode="&#x2192;" horiz-adv-x="701" 
d="M13 300v74h522l-246 198l48 56l350 -291l-350 -292l-48 57l246 198h-522z" />
    <glyph glyph-name="arrowdown" unicode="&#x2193;" horiz-adv-x="701" 
d="M314 152v522h74v-522l198 246l56 -48l-291 -350l-292 350l57 48z" />
    <glyph glyph-name="uni2196" unicode="&#x2196;" horiz-adv-x="701" 
d="M614 125l-52 -52l-369 369l34 -314l-74 -6l-41 453l454 -41l-7 -74l-314 34z" />
    <glyph glyph-name="uni2197" unicode="&#x2197;" horiz-adv-x="701" 
d="M138 73l-52 52l369 369l-314 -34l-6 74l453 41l-41 -454l-74 7l34 314z" />
    <glyph glyph-name="uni2198" unicode="&#x2198;" horiz-adv-x="701" 
d="M455 181l-369 369l53 52l369 -369l-34 314l73 6l42 -454l-454 41l6 75z" />
    <glyph glyph-name="uni2199" unicode="&#x2199;" horiz-adv-x="701" 
d="M194 232l369 369l52 -53l-369 -369l314 34l6 -73l-454 -42l41 454l75 -6z" />
    <glyph glyph-name="uni21A9" unicode="&#x21a9;" horiz-adv-x="1138" 
d="M424 -221l-47 -54l-318 314l318 315l45 -58l-228 -220h563q58 0 103 20.5t76 56t47 83.5t16 104q0 55 -16 103t-47 83.5t-76 56t-103 20.5h-562v76h563q76 0 135.5 -25t100.5 -70t63 -107.5t22 -136.5q0 -75 -22 -137.5t-63 -107.5t-100.5 -70t-135.5 -25h-564z" />
    <glyph glyph-name="uni21B6" unicode="&#x21b6;" horiz-adv-x="1012" 
d="M295 82q-45 55 -67 125.5t-22 139.5q0 84 26 155.5t74 124t117 82t155 29.5q81 0 147 -27.5t114 -76t77.5 -115t36.5 -143.5h-89q-6 58 -28.5 108.5t-59.5 87.5t-87 58.5t-111 21.5q-67 0 -120 -24t-90 -65t-56.5 -97t-19.5 -119q0 -29 5 -60t14.5 -61.5t23 -58.5
t31.5 -50l64 228l70 -16l-102 -356l-339 126l27 67z" />
    <glyph glyph-name="uni21B7" unicode="&#x21b7;" horiz-adv-x="1012" 
d="M926 166l27 -67l-339 -126l-102 356l70 16l64 -228q18 22 31.5 50t23 58.5t14.5 61.5t5 60q0 63 -19.5 119t-56.5 97t-90 65t-120 24q-61 0 -111 -21.5t-87 -58.5t-59.5 -87.5t-28.5 -108.5h-89q7 77 36.5 143.5t77.5 115t114 76t147 27.5q86 0 155 -29.5t117 -82
t74 -124t26 -155.5q0 -69 -22 -139.5t-67 -125.5z" />
    <glyph glyph-name="uni21BA" unicode="&#x21ba;" horiz-adv-x="937" 
d="M631 689q48 -33 82 -75t56.5 -88t33 -94t10.5 -103q-1 -75 -26.5 -143.5t-73.5 -121t-116.5 -83.5t-156.5 -31q-88 1 -158 29.5t-119 79.5t-75.5 121.5t-27.5 155.5q0 97 34.5 180t100.5 146l58 -63q-51 -54 -78.5 -122.5t-27.5 -140.5q1 -66 21.5 -120t58 -94.5t90 -64
t117.5 -23.5q73 0 126.5 25t88.5 66.5t52.5 95.5t19.5 111q0 50 -11 93.5t-30 82.5t-44 71.5t-53 53.5l-9 -231h-70l14 366l360 -45l-10 -72z" />
    <glyph glyph-name="uni21BB" unicode="&#x21bb;" horiz-adv-x="937" 
d="M69 651l-10 72l360 45l14 -366h-70l-9 231q-28 -21 -53 -53.5t-44 -71.5t-30 -82.5t-11 -93.5q2 -57 19.5 -111t52.5 -95.5t88.5 -66.5t126.5 -25q65 0 117.5 23.5t90 64t58 94.5t21.5 120q0 72 -27.5 140.5t-78.5 122.5l58 63q66 -63 100.5 -146t34.5 -170
q-2 -95 -28.5 -165.5t-75 -121.5t-118.5 -79.5t-158 -29.5q-88 0 -156.5 31t-116.5 83.5t-73.5 121t-26.5 143.5q0 55 10.5 103t33 94t56.5 88t82 75z" />
    <glyph glyph-name="minus" unicode="&#x2212;" horiz-adv-x="504" 
d="M74 392h356v-77h-356v77z" />
    <glyph glyph-name="approxequal" unicode="&#x2248;" horiz-adv-x="615" 
d="M207 341q37 0 64.5 -19t50.5 -41.5t44 -41t44 -18.5q18 0 29 8.5t17.5 21.5t9 29t3.5 30h77q-2 -33 -10 -62t-24.5 -51.5t-41.5 -35.5t-62 -13q-36 0 -64 18.5t-51 41t-44 41t-44 18.5q-18 0 -29 -8.5t-17 -22t-8.5 -29.5t-3.5 -30h-78q2 33 10 63t24 52.5t41.5 35.5
t62.5 13zM207 553q24 0 44.5 -9t37.5 -22t32.5 -29t30 -29t29 -22t29.5 -9q18 0 29 8.5t17.5 22t9 29.5t3.5 31h77q-2 -33 -10 -63t-24.5 -52.5t-41.5 -35.5t-62 -13q-36 0 -64 18.5t-51 41t-44 41t-44 18.5q-18 0 -29 -8.5t-17 -22t-8.5 -29t-3.5 -29.5h-78q2 33 10 62.5
t24 52t41.5 35.5t62.5 13z" />
    <glyph glyph-name="notequal" unicode="&#x2260;" horiz-adv-x="542" 
d="M69 522h235l81 181h88l-81 -181h81v-78h-117l-81 -181h198v-78h-233l-83 -185h-88l83 185h-83v78h118l82 181h-200v78v0z" />
    <glyph glyph-name="lessequal" unicode="&#x2264;" horiz-adv-x="507" 
d="M69 215h369v-78h-369v78v0zM69 466l369 152v-85l-254 -103l254 -102v-86l-369 152v72v0z" />
    <glyph glyph-name="greaterequal" unicode="&#x2265;" horiz-adv-x="507" 
d="M69 215h369v-78h-369v78v0zM438 394l-369 -152v85l253 103l-253 101v87l369 -152v-72v0z" />
    <glyph glyph-name="uni2713" unicode="&#x2713;" horiz-adv-x="1039" 
d="M913 827l67 -61l-607 -767l-314 373l65 61l250 -292z" />
    <glyph glyph-name="uni27F5" unicode="&#x27f5;" horiz-adv-x="1356" 
d="M1297 307v-77h-1100l230 -217l-50 -61l-318 317l317 316l51 -61l-231 -217h1101z" />
    <glyph glyph-name="uni27F6" unicode="&#x27f6;" horiz-adv-x="1356" 
d="M1160 230h-1101v77h1100l-230 217l50 61l318 -317l-317 -316l-51 61z" />
    <glyph glyph-name="uniE000" unicode="&#xe000;" horiz-adv-x="672" 
d="M612 353q0 -68 -13.5 -133t-45.5 -115.5t-85 -81.5t-132 -31q-80 0 -133 31t-85 81.5t-45 113.5t-13 135t13 135.5t45 113.5t85 81.5t133 31.5q79 0 132 -31t85 -82t45.5 -116t13.5 -133zM149 353q0 -48 7 -98t27 -91t56.5 -67t96.5 -26q59 0 95.5 26t56.5 67t27 91t7 98
q0 47 -7 97t-27 91.5t-56.5 68t-95.5 26.5q-60 0 -96.5 -26.5t-56.5 -68t-27 -91.5t-7 -97z" />
    <glyph glyph-name="uniE001" unicode="&#xe001;" horiz-adv-x="672" 
d="M406 0h-87v567h-144v59q29 1 54.5 5t46.5 13t38 24t31 39h61v-707z" />
    <glyph glyph-name="uniE002" unicode="&#xe002;" horiz-adv-x="672" 
d="M292 247q27 23 59.5 50.5t61 59.5t48.5 67.5t21 77.5q2 64 -37 98.5t-103 34.5q-51 0 -89 -21t-50 -61h-93q7 41 29.5 71.5t55 50.5t71.5 30t80 10q49 0 90 -13.5t71 -39.5t46.5 -64.5t16.5 -87.5t-14.5 -88t-39 -71.5t-55.5 -62t-64 -58.5l-179 -151h360v-79h-486v72z
" />
    <glyph glyph-name="uniE003" unicode="&#xe003;" horiz-adv-x="672" 
d="M339 -8q-42 0 -84.5 8t-79 27.5t-62 51.5t-32.5 79h90q9 -26 27.5 -42.5t42 -26.5t49.5 -14t50 -4q22 0 50 4t52.5 17t41 38.5t16.5 67.5q0 40 -15.5 64t-40 37t-55 17t-61.5 4h-68v78h41q27 0 50 1.5t51 13.5q32 15 51 42.5t20 63.5q0 36 -12 59t-32 36t-45 17.5
t-51 4.5q-21 0 -43.5 -4.5t-42 -14.5t-34.5 -26.5t-21 -39.5h-87q6 44 28 75t54.5 51t72 29t80.5 9q45 0 84.5 -9.5t69.5 -31t47.5 -56.5t17.5 -85q0 -19 -4 -40.5t-15 -42.5t-32 -42t-55 -35q67 -13 102 -58.5t35 -109.5q0 -59 -19.5 -98.5t-53.5 -65t-80 -37.5t-98 -12z
" />
    <glyph glyph-name="uniE004" unicode="&#xe004;" horiz-adv-x="672" 
d="M526 707v-487h83v-79h-83v-141h-87v141h-384v65l346 501h125zM160 220h279v408z" />
    <glyph glyph-name="uniE005" unicode="&#xe005;" horiz-adv-x="672" 
d="M107 318l32 389h423v-80h-345l-20 -222q27 22 66 35.5t96 13.5q51 0 93 -16t72 -45.5t46.5 -71.5t16.5 -93q0 -56 -19.5 -99.5t-53.5 -74.5t-80.5 -47t-100.5 -16q-44 0 -84.5 10t-73.5 30.5t-56 52.5t-32 76h88q8 -21 24 -37.5t36.5 -28t43.5 -17.5t46 -6q36 0 67.5 9
t55 27.5t36.5 47t13 68.5q0 73 -44 112t-114 39q-42 0 -77.5 -15t-64.5 -41h-90z" />
    <glyph glyph-name="uniE006" unicode="&#xe006;" horiz-adv-x="672" 
d="M161 351q34 52 86 76t110 24q54 0 95.5 -17t71.5 -46t47 -70t17 -91q0 -53 -18 -96t-50 -74t-76.5 -48t-96.5 -17q-74 0 -125 26.5t-83 71t-46.5 103.5t-15.5 124q0 81 12 147.5t43.5 122t86.5 92t140 36.5q38 0 73 -10t64 -29.5t51 -48.5t34 -66h-91q-18 37 -55 56
t-77 19q-57 0 -95 -27t-60.5 -69t-32 -92.5t-9.5 -96.5zM499 218q0 33 -11 60.5t-30.5 48t-47.5 32t-61 11.5q-32 0 -60.5 -10.5t-50.5 -30t-35.5 -47.5t-13.5 -62q0 -32 12 -59t33 -47t49.5 -31.5t61.5 -11.5t61.5 11.5t49 31t32 46.5t11.5 58z" />
    <glyph glyph-name="uniE007" unicode="&#xe007;" horiz-adv-x="672" 
d="M196 0l286 627h-374v80h470v-72l-286 -635h-96z" />
    <glyph glyph-name="uniE008" unicode="&#xe008;" horiz-adv-x="672" 
d="M590 197q0 -57 -22 -96.5t-57.5 -63.5t-81 -34.5t-93.5 -10.5t-93.5 10.5t-81.5 34.5t-57.5 63.5t-21.5 96.5q0 60 31 103.5t86 64.5q-30 14 -49 34t-29.5 42.5t-14 45t-3.5 41.5q0 49 20 84.5t52.5 58.5t74.5 33.5t86 10.5t86 -10.5t74.5 -33.5t52.5 -58.5t20 -84.5
q0 -19 -4 -41.5t-14.5 -44t-29.5 -41t-49 -33.5q57 -21 87.5 -66t30.5 -105zM336 636q-30 0 -56 -7t-45.5 -21.5t-30.5 -37t-11 -54.5q0 -33 12 -55t32 -36t45.5 -21t53.5 -7t53.5 7t45 21t31.5 36t13 51q0 34 -11.5 57.5t-31 38.5t-45.5 21.5t-55 6.5zM336 320
q-31 0 -60.5 -6.5t-53 -21.5t-37.5 -38.5t-14 -57.5q0 -39 17 -63t42 -38t53.5 -19t52.5 -5t52.5 5t53 19t41.5 38t17 63q0 34 -14 57.5t-37 38.5t-52.5 21.5t-60.5 6.5z" />
    <glyph glyph-name="uniE009" unicode="&#xe009;" horiz-adv-x="672" 
d="M523 365q-14 -29 -36 -49.5t-49 -33.5t-56.5 -18.5t-59.5 -5.5q-47 0 -88 14.5t-71.5 42.5t-48.5 69t-18 95q0 53 18 96.5t50.5 74.5t76.5 48t101 17q78 0 129 -34.5t81.5 -90t42 -121t11.5 -130.5q0 -72 -16.5 -140.5t-53.5 -116.5q-32 -42 -83.5 -66t-123.5 -24
q-38 0 -74.5 9.5t-66.5 29t-52 48t-32 67.5h96q17 -38 57.5 -56.5t81.5 -18.5q49 1 83 20t55 51q15 23 24 51.5t14 56t6.5 52.5t1.5 41v22zM185 487q0 -70 40.5 -109t109.5 -40q32 0 60.5 10t50 29t34 45.5t12.5 58.5q0 34 -11.5 62.5t-32 49t-48.5 32t-61 11.5t-61.5 -12
t-49 -32t-32 -47t-11.5 -58z" />
    <glyph glyph-name="uniE010" unicode="&#xe010;" horiz-adv-x="270" 
d="M135 112q26 0 43 -17t17 -43t-17 -43t-43 -17t-43 17t-17 43t17 43t43 17z" />
    <glyph glyph-name="uniE011" unicode="&#xe011;" horiz-adv-x="270" 
d="M129 -3q-26 2 -42 17t-16 40q1 27 18.5 42t40.5 15q29 0 46.5 -21t17.5 -59q0 -21 -8.5 -46.5t-22.5 -46.5t-32.5 -37t-38.5 -23l-24 33q20 14 37.5 38t23.5 48z" />
    <glyph glyph-name="uniE012" unicode="&#xe012;" horiz-adv-x="270" 
d="M135 112q26 0 43 -17t17 -43t-17 -43t-43 -17t-43 17t-17 43t17 43t43 17zM135 468q26 0 43 -17t17 -43t-17 -43t-43 -17t-43 17t-17 43t17 43t43 17z" />
    <glyph glyph-name="uniE013" unicode="&#xe013;" horiz-adv-x="270" 
d="M135 468q26 0 43 -17t17 -43t-17 -43t-43 -17t-43 17t-17 43t17 43t43 17zM130 -2q-26 2 -42 17t-16 40q0 28 18 42.5t41 14.5q29 0 46.5 -21t17.5 -59q0 -21 -8.5 -46.5t-22.5 -46.5t-32.5 -37t-38.5 -23l-24 33q20 14 37.5 38t23.5 48z" />
    <glyph glyph-name="uniE014" unicode="&#xe014;" horiz-adv-x="270" 
d="M166 471h-62l-13 236h88z" />
    <glyph glyph-name="uniE015" unicode="&#xe015;" horiz-adv-x="336" 
d="M125 471h-62l-13 236h88zM273 471h-62l-13 236h88z" />
    <glyph glyph-name="uniE016" unicode="&#xe016;" horiz-adv-x="270" 
d="M129 618q-26 2 -42 17t-16 40q0 28 18 42.5t41 14.5q29 0 46.5 -21t17.5 -59q1 -21 -8 -46.5t-23 -46.5t-32.5 -37t-38.5 -23l-24 33q20 14 37.5 38t23.5 48z" />
    <glyph glyph-name="uniE017" unicode="&#xe017;" horiz-adv-x="336" 
d="M83 618q-26 2 -42 17t-16 40q0 28 18 42.5t41 14.5q29 0 46.5 -21t17.5 -59q0 -21 -8.5 -46.5t-22.5 -46.5t-32.5 -37t-38.5 -23l-24 33q20 14 37.5 38t23.5 48zM248 618q-26 2 -42 17t-16 40q0 28 18 42.5t41 14.5q29 0 46.5 -21t17.5 -59q0 -21 -8.5 -46.5t-22.5 -46.5
t-32.5 -37t-38.5 -23l-24 33q20 14 37.5 38t23.5 48z" />
    <glyph glyph-name="uniE018" unicode="&#xe018;" horiz-adv-x="270" 
d="M134 625q26 -2 42 -17t16 -40q0 -28 -18 -42.5t-41 -14.5q-29 0 -46.5 21t-17.5 57q0 21 7 45.5t22.5 47.5t34 39t38.5 23l24 -33q-20 -14 -37.5 -38t-23.5 -48z" />
    <glyph glyph-name="uniE019" unicode="&#xe019;" horiz-adv-x="336" 
d="M252 627q26 -2 42 -17t16 -40q0 -28 -18 -42.5t-41 -14.5q-29 0 -46.5 21t-17.5 59q0 21 8.5 46.5t22.5 46.5t32.5 37t38.5 23l24 -33q-20 -14 -37.5 -38t-23.5 -48zM87 627q26 -2 42 -17t16 -40q0 -28 -18 -42.5t-41 -14.5q-29 0 -46.5 21t-17.5 59q0 21 8.5 46.5
t22.5 46.5t32.5 37t38.5 23l24 -33q-20 -14 -37.5 -38t-23.5 -48z" />
    <glyph glyph-name="uniE020" unicode="&#xe020;" horiz-adv-x="270" 
d="M129 -3q-26 2 -42 17t-16 40q0 28 18 42.5t41 14.5q29 0 46.5 -21t17.5 -59q0 -21 -8.5 -46.5t-22.5 -46.5t-32.5 -37t-38.5 -23l-24 33q20 14 37.5 38t23.5 48z" />
    <glyph glyph-name="uniE021" unicode="&#xe021;" horiz-adv-x="336" 
d="M83 -2q-26 2 -42 17t-16 40q0 28 18 42.5t41 14.5q29 0 46.5 -21t17.5 -59q0 -21 -8.5 -46.5t-22.5 -46.5t-32.5 -37t-38.5 -23l-24 33q20 14 37.5 38t23.5 48zM248 -2q-26 2 -42 17t-16 40q0 28 18 42.5t41 14.5q29 0 46.5 -21t17.5 -59q0 -21 -8.5 -46.5t-22.5 -46.5
t-32.5 -37t-38.5 -23l-24 33q20 14 37.5 38t23.5 48z" />
    <glyph glyph-name="uniE022" unicode="&#xe022;" horiz-adv-x="270" 
d="M135 225q26 0 43 -17t17 -43t-17 -43t-43 -17t-43 17t-17 43t17 43t43 17zM135 581q26 0 43 -17t17 -43t-17 -43t-43 -17t-43 17t-17 43t17 43t43 17z" />
    <glyph glyph-name="y2_alt" horiz-adv-x="549" 
d="M441 527h96l-149 -415q-11 -32 -25.5 -72.5t-30.5 -81t-36.5 -76.5t-45.5 -58q-37 -33 -71 -41.5t-77 -8.5h-18v81q36 0 61 7.5t43.5 23.5t32 40t27.5 57l-231 544h100l178 -443z" />
    <glyph glyph-name="K_alt" horiz-adv-x="630" 
d="M87 0v707h87v-365l339 365h101l-299 -319l301 -388h-103l-261 332l-78 -83v-249h-87z" />
    <glyph glyph-name="k_alt" horiz-adv-x="527" 
d="M67 0v707h85v-437l250 257h99l-212 -218l224 -309h-99l-186 254l-76 -78v-176h-85z" />
    <glyph glyph-name="i_alt" horiz-adv-x="257" 
d="M140 720q25 0 41.5 -15.5t16.5 -40.5t-16.5 -41t-41.5 -16q-24 0 -40.5 16t-16.5 41t16.5 40.5t40.5 15.5zM98 0v452h-86v75h171v-527h-85z" />
    <glyph glyph-name="j_alt" horiz-adv-x="267" 
d="M150 720q24 0 41 -15.5t17 -40.5t-17 -41t-41 -16q-25 0 -41 16t-16 41t16 40.5t41 15.5zM193 -10q0 -88 -38 -129t-127 -41h-46v74h36q54 0 72 27t18 78v453h-87v75h172v-537z" />
    <glyph glyph-name="s_alt" horiz-adv-x="542" 
d="M271 457q-17 0 -39 -2.5t-41.5 -10t-32.5 -22.5t-13 -40q1 -29 24.5 -45t62.5 -25q18 -4 42.5 -8t49.5 -7.5t46.5 -7.5t34.5 -7q49 -14 71 -47t22 -79q0 -49 -18 -77.5t-46 -47.5q-37 -22 -75 -29.5t-79 -7.5q-46 0 -84 8t-70 25t-54.5 45t-28.5 71h86q8 -23 26.5 -37.5
t40.5 -22.5t43.5 -10.5t35.5 -2.5q23 0 44.5 2t42.5 9.5t36 22.5t15 40q0 33 -18.5 48t-52.5 22q-24 5 -54 9.5t-60.5 10t-59 13.5t-49.5 21q-27 16 -42.5 43t-15.5 71q1 45 21.5 75t52 46.5t68.5 23t77 6.5q49 -1 83.5 -11t60.5 -30.5t39 -47t16 -53.5h-78q-2 16 -15 29.5
t-29.5 21t-39.5 11.5t-46 4z" />
    <glyph glyph-name="c_alt" horiz-adv-x="547" 
d="M292 -6q-63 0 -109.5 20t-78 56t-46.5 85t-15 108q0 58 16 107.5t47.5 85.5t78.5 56.5t112 20.5q78 0 130.5 -34t73.5 -105h-88q-17 35 -52 50t-69 13q-40 0 -72.5 -16.5t-52.5 -42.5t-29.5 -61t-9.5 -74t9.5 -74t30 -61.5t51.5 -42.5t74 -16q35 0 69 12.5t51 44.5h91
q-11 -35 -32 -59.5t-49 -41t-61.5 -24t-69.5 -7.5z" />
    <glyph glyph-name="w_alt" horiz-adv-x="774" 
d="M540 82l124 445h96l-163 -527h-117l-93 268l-94 -268h-115l-164 527h96l126 -445l110 317h83z" />
    <glyph glyph-name="W_alt" horiz-adv-x="929" 
d="M466 417l-127 -417h-132l-193 707h98l163 -632l140 463h104l139 -463l163 632h94l-193 -707h-128l-128 417v0z" />
    <glyph glyph-name="t_alt" horiz-adv-x="380" 
d="M200 527h141v-75h-141v-273q0 -54 21 -79.5t78 -25.5h39v-74h-57q-90 0 -128 41t-38 129v282h-86v75h86l16 157h69v-157z" />
    <glyph glyph-name="alt_1" horiz-adv-x="489" 
d="M318 79h152v-79h-423v79h184v488h-158v54q29 2 56 6t50.5 13.5t43 25t34.5 41.5h61v-628z" />
    <glyph glyph-name="colon.uc" horiz-adv-x="253" 
d="M126 581q25 0 42.5 -17t17.5 -43q0 -27 -17.5 -43.5t-42.5 -16.5q-26 0 -42.5 17t-16.5 43t16.5 43t42.5 17zM126 225q25 0 42.5 -17t17.5 -43t-17.5 -43t-42.5 -17q-26 0 -42.5 17t-16.5 43t16.5 43t42.5 17z" />
    <glyph glyph-name="y_alt" horiz-adv-x="597" 
d="M530 527v-526q0 -115 -63 -176t-178 -61q-40 0 -76.5 9t-66 28.5t-50 49t-28.5 70.5h88q6 -23 20.5 -38.5t33.5 -25t41 -13.5t43 -4q41 0 70 12.5t47 34.5t26.5 52.5t8.5 66.5v67q-13 -24 -33.5 -39.5t-41 -24.5t-45 -13.5t-48.5 -4.5h-5q-60 1 -99.5 19t-63 50
t-33.5 76.5t-10 98.5v292h85v-268q0 -36 4.5 -70.5t19 -61.5t41 -43.5t71.5 -17.5q45 0 76.5 19t48.5 48q19 30 25.5 66t6.5 74v254h85z" />
    <glyph glyph-name="u_alt" horiz-adv-x="586" 
d="M519 527v-527h-71l-6 76q-14 -23 -34.5 -39t-44 -26.5t-49 -15t-49.5 -4.5q-57 0 -96 18t-63 50.5t-34 76.5t-10 97v294h85v-272q0 -36 3.5 -70t17 -60t39.5 -42t71 -17q45 0 76 19t49 48q19 30 25 66t6 74v254h85z" />
    <glyph glyph-name="be_alt" horiz-adv-x="567" 
d="M44 307q0 15 1 46t4 63t10 65t19 60q21 45 49 72.5t71 47.5q51 24 107 43t109 38q15 6 31 15t32 25l47 -67q-10 -20 -27 -30.5t-37 -18.5q-55 -20 -113.5 -38t-112.5 -41q-45 -19 -68 -54q-18 -25 -26 -56t-9 -64q32 38 77 56t91 18q54 1 95.5 -17t70 -49.5t43.5 -75.5
t15 -97q0 -54 -15.5 -100.5t-46 -80.5t-75 -53.5t-102.5 -19.5q-66 0 -111.5 23.5t-73.5 63t-41.5 92.5t-13.5 134zM285 69q37 0 65.5 14t48 38t29.5 56t10 68q0 35 -10.5 65.5t-29.5 53t-46 35t-61 12.5q-39 -1 -68 -14t-48.5 -36.5t-30 -54t-10.5 -70.5q0 -31 9.5 -61
t28.5 -53.5t47 -38t66 -14.5z" />
    <glyph glyph-name="g_alt" horiz-adv-x="600" 
d="M533 0q0 -115 -60.5 -175.5t-171.5 -60.5h-7q-60 1 -113 17.5t-98 58.5l37 67q39 -31 82.5 -49t94.5 -18q40 0 69 12.5t47 35t26.5 53.5t8.5 67v71q-26 -46 -74 -65.5t-100 -19.5q-60 1 -104 21.5t-72 56.5t-41.5 84.5t-13.5 105.5t14 106.5t43 86t73 57.5t105 21
q46 0 93 -17t77 -55l4 66h81v-527zM285 457q-43 0 -73 -15.5t-48.5 -41.5t-27 -61.5t-8.5 -75.5q0 -44 8 -77.5t27 -59.5t49 -41.5t74 -15.5q51 0 84 24t53 60q14 25 20 54.5t6 58.5q0 36 -6.5 66t-23.5 56q-20 29 -53 49t-81 20z" />
    <glyph glyph-name="t2.alt" horiz-adv-x="396" 
d="M200 527h162v-75h-162v-274q0 -23 2.5 -42.5t10 -34t22 -23t39.5 -9.5q23 0 40.5 8t29.5 19l37 -62q-26 -22 -54 -31t-62 -9q-43 0 -72 12.5t-49 36.5q-17 23 -23 54t-6 70v285h-86v75h86v158h85v-158z" />
    <glyph glyph-name="f_alt" horiz-adv-x="366" 
d="M115 0v452h-86v75h86v54q0 39 5.5 70.5t23.5 53.5q20 23 49 36t72 13q33 0 60.5 -8t53.5 -30l-38 -64q-12 11 -30 19t-41 8q-24 -1 -38 -10t-21 -24t-9 -35t-2 -43v-40h159v-75h-159v-452h-85z" />
    <glyph glyph-name="hyphen.uc" horiz-adv-x="458" 
d="M74 377h310v-78h-310v78z" />
    <glyph glyph-name="uni00AD.uc" horiz-adv-x="453" 
d="M74 378h305v-78h-305v78z" />
    <glyph glyph-name="endash.uc" horiz-adv-x="578" 
d="M74 378h430v-78h-430v78z" />
    <glyph glyph-name="emdash.uc" horiz-adv-x="759" 
d="M74 378h611v-78h-611v78z" />
    <glyph glyph-name="a_alt" horiz-adv-x="555" 
d="M407 64q-38 -38 -88 -54q-42 -15 -95 -15q-36 0 -66 8t-55 26t-39.5 46t-14.5 68q0 33 11.5 58t31.5 42.5t44 29t57 19.5q43 9 97 15t117 12q0 64 -31.5 101t-94.5 38q-40 0 -71.5 -13t-48.5 -48h-90q7 36 28 62t50 42.5t63.5 24t67.5 7.5q61 0 101.5 -18.5t64.5 -51
t34 -77.5t10 -98v-288h-76zM134 146q0 -24 11 -40t27 -24t32.5 -10.5t31.5 -2.5q36 0 64.5 9.5t53.5 26.5q24 16 38.5 40t14.5 69v35q-13 -2 -78.5 -9.5t-88.5 -11.5q-50 -7 -78 -28t-28 -54z" />
    <glyph glyph-name="t0163.alt" horiz-adv-x="380" 
d="M200 527h162v-75h-162v-287q0 -17 2 -30q3 -19 10.5 -33.5t22 -23t39.5 -9.5q23 0 40.5 8t29.5 19l37 -62q-26 -22 -54 -31t-62 -9q-9 0 -17 1l-17 -54q6 1 12 1.5t11 0.5q27 0 48 -13q31 -19 31 -68q1 -37 -16.5 -60t-42 -35.5t-49.5 -16.5t-39 -3q-8 0 -16.5 0.5
t-16.5 1.5v53q17 -1 36.5 0t36 6t27.5 16t11 31q0 13 -6 20.5t-16.5 10.5t-20 3.5t-14.5 0.5q-10 0 -24.5 -2t-27.5 -7l35 126q-27 13 -46 36q-17 23 -23 54t-6 70v285h-86v75h86v158h85v-158z" />
    <glyph glyph-name="t021b.alt" horiz-adv-x="380" 
d="M219 -186q-26 2 -42 17t-16 40q0 28 18 43t42 15q32 0 48.5 -24t14.5 -55q0 -27 -8.5 -50.5t-22.5 -44.5t-32.5 -37t-38.5 -23l-24 33q20 14 37.5 38t23.5 48zM200 527h162v-75h-162v-274q0 -23 2.5 -42.5t10 -34t22 -23t39.5 -9.5q23 0 40.5 8t29.5 19l37 -62
q-26 -22 -54 -31t-62 -9q-43 0 -72 12.5t-49 36.5q-17 23 -23 54t-6 70v285h-86v75h86v158h85v-158z" />
    <glyph glyph-name="map" horiz-adv-x="683" 
d="M48 668l16 16q2 2 4 2h39q3 0 4 1l19 19q2 2 4 2h96q2 0 4 -2l46 -46q1 -1 3 -1h33q5 0 5 -5v-25q0 -5 6 -5h6q3 0 4 1l16 17q1 1 4 1h32q5 0 5 -5v-26q0 -2 2 -4l20 -20q3 -4 7 0l10 10q1 1 4 1h6q6 0 6 -5v-79q0 -2 -2 -4l-6 -6q-4 -4 0 -8l59 -59q1 -1 3 -1h12
q5 0 5 -5v-34v-37q0 -2 2 -4l22 -22q2 -2 4 -2h12q3 0 4 -1l16 -17q2 -2 2 -4v-37q0 -2 -2 -4l-6 -5q-4 -4 0 -8l21 -20q1 -1 1 -4q0 -5 -5 -5h-19h-14q-2 0 -3 1l-9 9q-4 3 -7 0l-11 -11q-5 -3 -8 0l-15 15q-3 3 -8 0l-27 -27q-2 -2 -3 -2h-9q-5 0 -5 6v34q0 4 -3.5 5
t-5.5 -1l-22 -22q-1 -1 -1 -3v-27q0 -3 1 -4l10 -10q3 -4 0 -7l-20 -20q-1 -1 -1 -4v-25q0 -2 -2 -4l-22 -22q-1 -1 -1 -3v-12q0 -2 -2 -4l-12 -12q-2 -2 -3 -2h-9q-2 0 -3 -1l-10 -10q-2 -2 -2 -4v-38q0 -6 -5 -6h-20q-3 0 -4 -1l-14 -15q-1 0 -1.5 -0.5t-2.5 -0.5h-3
q-5 0 -5 5v23q0 2 -2 4l-9 9q-4 3 0 7l12 12q6 4 0 8l-12 12q-1 1 -1 4v85q0 3 1 4l14 13q1 1 1 4v119q0 3 -1 4l-13 12q-1 1 -1 4v23q0 3 -2 3l-46 47q-2 2 -2 4v21q0 3 -1 4l-46 46q-2 2 -2 3v26q0 3 -1 4l-31 30q-1 1 -1 4v29q0 2 -2 4l-21 21q-2 2 -2 4v26q0 3 -1 4
l-23 23q-2 2 -4 2h-42q-5 0 -5 5v2q0 3 1 4z" />
    <glyph glyph-name="logo" horiz-adv-x="2940" 
d="M798 505q-4 -9 -14 -12q0 -8 -6 -13.5t-14 -5.5q-3 -15 -19 -15q-7 0 -14 5l-12 13q-6 6 -6 14v26l-25 20h-118l-26 -26v-36h144q9 0 14 -5l25 -26q6 -6 6 -14t-5.5 -13.5t-13.5 -5.5h-38q-8 0 -14 6l-20 19h-109l-94 -94q-2 0 -6 -3.5t-9 -3.5q-6 0 -10 3.5t-6 3.5
l-93 94h-110l-20 -19q-5 -6 -14 -6h-37q-8 0 -14.5 5.5t-6.5 13.5q0 7 7 14l25 26q7 5 14 5h37h1h106v36l-26 26h-118l-25 -20v-26q0 -8 -6 -14l-12 -13q-7 -5 -14 -5q-17 0 -19 15q-8 0 -13.5 5.5t-5.5 13.5q-7 2 -12 6.5t-5 12.5q0 7 7 14l12 13q6 6 14 6h27l2 2l31 25
q5 4 12 4h39q5 13 18 13q8 0 14 -6l7 -7h55q7 0 14 -5l4 -5v20l-26 27h-135l-20 -20q-7 -5 -14 -5h-12q-7 0 -14 5l-13 13q-5 7 -5 14q0 8 4 12q-4 5 -4 13q0 7 5 14l13 12q6 6 14 6h12q8 0 14 -6l20 -19h35v28q-12 0 -18.5 15t-6.5 26v37q0 8 5.5 14t13.5 6h51q8 0 13.5 -6
t5.5 -14v-37q0 -11 -6.5 -26t-18.5 -15v-28h25q-1 2 -1 5q0 8 5.5 14t14.5 6q8 0 14 -6l36 -36q5 4 13 4t13.5 -5.5t5.5 -13.5v-156l62 -62v71l-32 32q-6 6 -6 14t6 13.5t14 5.5q7 0 14 -5l4 -5v84l-95 95q-6 4 -6 14v18h-6q-8 0 -13.5 5.5t-5.5 13.5t5.5 14t13.5 6h6v6
q0 8 6 13.5t14 5.5t13.5 -5.5t5.5 -13.5v-6h6q8 0 13.5 -6t5.5 -14t-5.5 -13.5t-13.5 -5.5h-6v-10l62 -62v120q-2 2 -2 3l-55 55q-6 6 -6 14t6 14l12 13q2 2 3.5 2.5t3.5 1.5v20q0 8 6 14l13 12q4 6 13 6q6 0 11 -3q6 6 15 6q8 0 14 -6q4 3 11 3q8 0 14 -6l12 -12
q6 -6 6 -14v-20q4 -2 7 -4l12 -13q6 -6 6 -14t-6 -14l-55 -55q0 -1 -2 -3v-120l62 62v10h-6q-8 0 -13.5 5.5t-5.5 13.5t5.5 14t13.5 6h6v6q0 8 5.5 13.5t13.5 5.5t14 -5.5t6 -13.5v-6h6q8 0 13.5 -6t5.5 -14t-5.5 -13.5t-13.5 -5.5h-6v-18q0 -10 -6 -14l-95 -95v-84l5 5
q5 5 13 5q11 0 15.5 -6t4.5 -13q0 -8 -6 -14l-32 -32v-71l62 62v156q0 8 5.5 13.5t13.5 5.5t13 -4l37 36q4 6 14 6q8 0 13.5 -6t5.5 -14q0 -1 -0.5 -2t-0.5 -3h25v28q-12 0 -18.5 15t-6.5 26v37q0 8 5.5 14t13.5 6h51q8 0 13.5 -6t5.5 -14v-37q0 -11 -6.5 -26t-18.5 -15v-28
h36l19 19q6 6 14 6h12q8 0 14 -6l13 -12q6 -6 6 -14q0 -6 -5 -13q5 -5 5 -12q0 -8 -6 -14l-13 -13q-7 -5 -14 -5h-12q-7 0 -14 5l-19 20h-136l-26 -27v-20l4 5q7 5 14 5h55l7 7q6 6 14 6q13 0 18 -13h39q7 0 12 -4l31 -25q1 -1 1.5 -1t1.5 -1h26q8 0 14 -6l12 -13
q6 -6 6 -14q0 -5 -1 -7zM275 13q0 -13 -12 -13h-61q-12 0 -12 13v349q0 13 12 13h61q12 0 21 -9l132 -132q2 -2 6 -2q5 0 7 2l132 132q9 9 21 9h61q12 0 12 -13v-349q0 -13 -12 -13h-61q-13 0 -13 13v219q0 3 -4 3q-1 0 -2 -1l-118 -118q-11 -9 -22 -9h-1q-11 0 -22 9
l-118 118q-1 1 -3 1q-4 0 -4 -3v-219zM902 381q43 0 79.5 -13.5t63 -38.5t41.5 -60.5t15 -80.5q0 -43 -15 -78.5t-41.5 -61t-63 -40t-79.5 -14.5t-79.5 13.5t-63 38.5t-41.5 61t-15 81q0 40 14.5 75.5t40.5 61.5t62.5 41t81.5 15zM902 74q53 0 80.5 33.5t27.5 80.5
q0 51 -31.5 82t-76.5 31q-47 0 -77.5 -31t-30.5 -82q0 -24 8.5 -45t23 -36.5t34 -24t42.5 -8.5zM1145 366q0 9 9 9h67q9 0 9 -9v-281q0 -4 5 -4h139q9 0 9 -9v-63q0 -9 -9 -9h-220q-9 0 -9 9v357zM1431 366q0 9 9 9h22.5t31 0.5t31.5 0.5h24q56 0 96 -15t65.5 -40.5t37 -59
t11.5 -70.5q0 -39 -13.5 -74t-40.5 -61.5t-67 -41.5t-93 -15q-15 0 -46.5 0.5t-58.5 0.5q-9 0 -9 9v357zM1521 295q-5 0 -5 -5v-205q0 -6 11.5 -5.5t19.5 0.5q56 0 88.5 28.5t32.5 82.5q0 52 -34 78.5t-86 26.5h-13t-14 -1zM2001 381q43 0 79.5 -13.5t63 -38.5t41.5 -60.5
t15 -80.5q0 -43 -15 -78.5t-41.5 -61t-63 -40t-79.5 -14.5t-79.5 13.5t-63 38.5t-41.5 61t-15 81q0 40 14.5 75.5t40.5 61.5t62.5 41t81.5 15zM2001 74q53 0 80.5 33.5t27.5 80.5q0 51 -31.5 82t-76.5 31q-47 0 -77.5 -31t-30.5 -82q0 -24 8.5 -45t23 -36.5t34 -24
t42.5 -8.5zM2418 9q-4 -9 -13 -9h-49q-8 0 -12 9l-146 357q-1 1 -1 3q0 6 6 6h76q8 0 12 -9l91 -234q0 -2 2 -2q1 1 1 2l87 234q4 9 13 9h70q6 0 6 -6q0 -1 -0.5 -1.5t-0.5 -1.5zM2631 367q4 8 12 8h56q8 0 12 -8l141 -358q0 -1 0.5 -1.5t0.5 -1.5q0 -6 -6 -6h-70
q-9 0 -11 9l-25 66q-2 4 -6 4h-133q-4 0 -6 -4l-24 -66q-4 -9 -12 -9h-65q-6 0 -6 6q0 2 1 3zM2630 163v-1q0 -3 3 -3h71q3 0 3 3v1l-37 98l-1 1l-2 -1z" />
    <glyph glyph-name="a00E2.alt" horiz-adv-x="555" 
d="M315 796l143 -186h-86l-87 118l-87 -118h-85l142 186h60zM407 64q-38 -38 -88 -54q-42 -15 -95 -15q-36 0 -66 8t-55 26t-39.5 46t-14.5 68q0 33 11.5 58t31.5 42.5t44 29t57 19.5q43 9 97 15t117 12q0 64 -31.5 101t-94.5 38q-40 0 -71.5 -13t-48.5 -48h-90q7 36 28 62
t50 42.5t63.5 24t67.5 7.5q61 0 101.5 -18.5t64.5 -51t34 -77.5t10 -98v-288h-76zM134 146q0 -24 11 -40t27 -24t32.5 -10.5t31.5 -2.5q36 0 64.5 9.5t53.5 26.5q24 16 38.5 40t14.5 69v35q-13 -2 -78.5 -9.5t-88.5 -11.5q-50 -7 -78 -28t-28 -54z" />
    <glyph glyph-name="a00E4.alt" horiz-adv-x="555" 
d="M177 712q25 0 41.5 -15.5t16.5 -40.5t-16.5 -40.5t-41.5 -15.5q-24 0 -40.5 15.5t-16.5 40.5t16.5 40.5t40.5 15.5zM402 712q25 0 41.5 -15.5t16.5 -40.5t-16.5 -40.5t-41.5 -15.5q-24 0 -40 15.5t-16 40.5t16 40.5t40 15.5zM407 64q-38 -38 -88 -54q-42 -15 -95 -15
q-36 0 -66 8t-55 26t-39.5 46t-14.5 68q0 33 11.5 58t31.5 42.5t44 29t57 19.5q43 9 97 15t117 12q0 64 -31.5 101t-94.5 38q-40 0 -71.5 -13t-48.5 -48h-90q7 36 28 62t50 42.5t63.5 24t67.5 7.5q61 0 101.5 -18.5t64.5 -51t34 -77.5t10 -98v-288h-76zM134 146
q0 -24 11 -40t27 -24t32.5 -10.5t31.5 -2.5q36 0 64.5 9.5t53.5 26.5q24 16 38.5 40t14.5 69v35q-13 -2 -78.5 -9.5t-88.5 -11.5q-50 -7 -78 -28t-28 -54z" />
    <glyph glyph-name="a0103.alt" horiz-adv-x="555" 
d="M285 667q40 0 63.5 15.5t25.5 57.5h78v-3q0 -68 -45.5 -100.5t-119.5 -32.5q-82 0 -126.5 31.5t-44.5 101.5v3h78v-3q0 -39 24 -54.5t67 -15.5zM407 64q-38 -38 -88 -54q-42 -15 -95 -15q-36 0 -66 8t-55 26t-39.5 46t-14.5 68q0 33 11.5 58t31.5 42.5t44 29t57 19.5
q43 9 97 15t117 12q0 64 -31.5 101t-94.5 38q-40 0 -71.5 -13t-48.5 -48h-90q7 36 28 62t50 42.5t63.5 24t67.5 7.5q61 0 101.5 -18.5t64.5 -51t34 -77.5t10 -98v-288h-76zM134 146q0 -24 11 -40t27 -24t32.5 -10.5t31.5 -2.5q36 0 64.5 9.5t53.5 26.5q24 16 38.5 40
t14.5 69v35q-13 -2 -78.5 -9.5t-88.5 -11.5q-50 -7 -78 -28t-28 -54z" />
    <glyph glyph-name="a2_alt" horiz-adv-x="604" 
d="M537 0h-85v71q-28 -37 -74 -57t-102 -20q-58 1 -102 21.5t-72 56.5t-41.5 84.5t-13.5 105.5t14 106.5t43 86t74.5 57.5t112.5 21q46 0 88.5 -17t72.5 -53v64h85v-527zM289 457q-43 0 -73 -15.5t-48.5 -41.5t-27 -61.5t-8.5 -75.5q0 -44 8 -77.5t27 -59.5t49 -41.5
t74 -15.5q49 0 83 24t54 60q14 25 20 54t6 59q0 36 -6.5 66t-23.5 56q-20 29 -53 49t-81 20z" />
    <glyph glyph-name="logom" horiz-adv-x="847" 
d="M800 508q-5 -9 -15 -12q0 -8 -5.5 -13.5t-13.5 -5.5q-2 -11 -13.5 -14.5t-19.5 4.5l-12 12t-5.5 8.5t-1.5 11.5v21l-25 20h-118l-27 -26v-36h146q8 0 14 -6l25 -25q9 -9 4 -21.5t-18 -12.5q-20 0 -29.5 -0.5t-15 1.5t-10.5 7.5t-17 17.5h-110l-95 -95q-7 -8 -15.5 -8
t-14.5 8l-95 95h-110l-20 -20q-6 -6 -14 -6h-38q-13 0 -18 12t4 22l25 25q6 6 14 6h146v36l-27 26h-118l-25 -20v-21t-1.5 -11.5t-5.5 -8.5l-12 -12t-19.5 -5t-13.5 15q-8 0 -13.5 5.5t-5.5 13.5q-12 2 -15 13.5t5 19.5l12 12t8.5 5.5t11.5 1.5h21l34 27q5 5 12 5h39
q4 10 14 12t18 -5l7 -7h55q7 0 10.5 -3t8.5 -8v21l-27 26h-136q-10 -10 -14.5 -15t-8.5 -7.5t-8.5 -2.5h-14.5q-8 0 -14 5.5t-13 12.5q-11 13 -1 27q-5 6 -5 12t3 10.5t8 9t8 7.5q5 6 12 6h15t14 -6l19 -19h36v28q-12 5 -19 16t-7 25v38q0 8 6 14t14 6h51q8 0 14 -6t6 -14
v-38q0 -14 -7 -25t-19 -16v-28h25q-2 7 1 13.5t8 9.5t12 2.5t12 -6.5l37 -36q1 1 3 2q4 2 9 2q8 0 14 -6t6 -14v-156l62 -63v72l-32 32q-7 7 -6 14.5t6 13t13 6.5t15 -6l4 -5v84l-95 96q-6 6 -6 14v18h-6q-10 0 -15 6t-5 13.5t5 14t15 6.5h6v5q0 10 6 14.5t13.5 4.5
t13.5 -4.5t6 -14.5v-5h6q10 0 14.5 -6.5t4.5 -14t-4.5 -13.5t-14.5 -6h-6v-10l62 -62v121q0 1 -8 9.5t-18 18.5l-19 19l-12 12q-6 5 -6 13.5t6 14.5q4 4 9 9.5t10 7.5v17.5t1.5 9t5.5 7.5l12 12q10 12 24 3q8 7 17 6t13 -6q6 4 11 3t9.5 -4t8.5 -7l8 -8q6 -6 6 -14.5v-18.5
q5 -2 10 -7.5t9 -9.5q6 -6 6 -14.5t-6 -13.5l-12 -12l-19 -19t-18 -18.5t-8 -9.5v-121l62 62v10h-6q-10 0 -15 6t-5 13.5t5 14t15 6.5h6v5q0 10 6 14.5t13.5 4.5t13.5 -4.5t6 -14.5v-5h6q10 0 14.5 -6.5t4.5 -14t-4.5 -13.5t-14.5 -6h-6v-18t-5 -14l-96 -96v-84q4 5 7.5 8
t10.5 3q14 0 18.5 -12.5t-4.5 -21.5l-32 -32v-72l62 63v156q0 13 11 18.5t21 -2.5l37 36q5 6 12 6.5t12 -2.5t8 -9.5t1 -13.5h25v28q-12 5 -19 16t-7 25v38q0 8 6 14t14 6h51q8 0 14 -6t6 -14v-38q0 -14 -7 -25t-19 -16v-28h36q10 10 14.5 15t8.5 7t8.5 2.5t14.5 0.5
q8 0 14 -5.5t13 -12.5q11 -13 1 -27q10 -12 1.5 -22t-15.5 -17q-5 -5 -12 -5.5t-15 -0.5t-14 6l-19 19h-136l-27 -26v-21q5 5 8.5 8t10.5 3h55q5 5 9 8.5t12 3.5q13 0 18 -12h39q7 0 12 -5l34 -27h22t11 -1.5t8 -5.5l12 -12q10 -9 5 -21zM274 13q0 -13 -13 -13h-61
q-13 0 -13 13v351q0 13 13 13h61q11 0 22 -9l132 -133q7 -6 13 0l133 133q11 9 22 9h61q12 0 12 -13v-351q0 -13 -12 -13h-61q-13 0 -13 13v220q0 2 -2.5 3.5t-4.5 -0.5l-119 -120q-9 -8 -22 -8t-22 8l-120 120q-2 2 -4 0.5t-2 -3.5v-220z" />
    <glyph glyph-name="tab_1" horiz-adv-x="672" 
d="M406 79h181v-79h-475v79h207v485h-179v54q13 0 30 0.5t33 2.5t33 5.5t31 9.5q28 12 48 29t32 42h59v-628z" />
    <glyph glyph-name="I_alt" horiz-adv-x="565" 
d="M45 0v79h194v549h-194v79h475v-79h-194v-549h194v-79h-475v0z" />
    <glyph glyph-name="l_alt" horiz-adv-x="285" 
d="M152 707v-483q0 -35 0.5 -66t13.5 -52q18 -31 82 -31h42v-75h-62q-51 0 -82 11.5t-48 34.5q-23 29 -27 73t-4 100v488h85z" />
    <glyph glyph-name="l2_alt" horiz-adv-x="326" 
d="M155 178q1 -23 2.5 -41.5t9.5 -35.5q10 -18 26.5 -24.5t35.5 -7.5q20 0 38 7.5t32 19.5l37 -62q-26 -23 -56 -31.5t-60 -8.5q-37 0 -68 11.5t-53 37.5q-20 27 -24.5 60t-4.5 64v540h85v-529z" />
    </font>
</defs>
</svg>
