<svg width="59" height="59" viewBox="0 0 59 59" fill="none" xmlns="http://www.w3.org/2000/svg">
<g clip-path="url(#clip0_420_246)">
<g filter="url(#filter0_f_420_246)">
<ellipse cx="28.5244" cy="38.0249" rx="20.6861" ry="49.2224" transform="rotate(-90 28.5244 38.0249)" fill="#B8C5FF"/>
</g>
<g filter="url(#filter1_f_420_246)">
<ellipse cx="41.9828" cy="38.3139" rx="20.6861" ry="49.199" transform="rotate(-90 41.9828 38.3139)" fill="#FEAD94"/>
</g>
<g filter="url(#filter2_f_420_246)">
<ellipse cx="51.6493" cy="19.6506" rx="15.7494" ry="26.0975" transform="rotate(-90 51.6493 19.6506)" fill="#3193F9"/>
</g>
<g filter="url(#filter3_f_420_246)">
<ellipse cx="2.23988" cy="16.4237" rx="16.4237" ry="30.0999" transform="rotate(-90 2.23988 16.4237)" fill="#B8C5FF"/>
</g>
<g filter="url(#filter4_f_420_246)">
<ellipse cx="16.8216" cy="34.7979" rx="3.44367" ry="8.30906" transform="rotate(-90 16.8216 34.7979)" fill="#FCFF64"/>
</g>
<g filter="url(#filter5_f_420_246)">
<ellipse cx="23.9603" cy="36.6763" rx="5.46653" ry="13.0604" transform="rotate(-90 23.9603 36.6763)" fill="#FFE9B1"/>
</g>
<g filter="url(#filter6_f_420_246)">
<path d="M17.3562 32.9785C12.1916 36.784 35.5624 41.1404 35.5624 41.1404C35.5624 41.1404 50.485 43.3958 56.9285 41.1404C64.7604 38.3991 63.6466 33.3242 56.9285 30.0918C49.3308 26.4362 38.0446 28.115 27.5581 30.0918C23.1835 30.9165 19.7487 31.2156 17.3562 32.9785Z" fill="#B46FFF"/>
</g>
<g filter="url(#filter7_f_420_246)">
<ellipse cx="12.4769" cy="14.6185" rx="12.4769" ry="14.6185" transform="matrix(-0.537125 -0.843503 0.993704 -0.11204 -18.108 40.7302)" fill="#75DAFD"/>
</g>
<path d="M9.51208 22.0621C9.51208 17.6072 13.1235 13.9957 17.5785 13.9957C22.0334 13.9957 25.6449 17.6072 25.6449 22.0621V27.4397C25.6449 28.0649 25.6449 28.3774 25.5762 28.6339C25.3897 29.3298 24.8461 29.8734 24.1502 30.0598C23.8938 30.1285 23.5812 30.1285 22.9561 30.1285H17.5785C13.1235 30.1285 9.51208 26.5171 9.51208 22.0621Z" fill="white"/>
<path d="M28.8715 36.0439C28.8715 35.4188 28.8715 35.1062 28.9402 34.8498C29.1266 34.1539 29.6702 33.6103 30.3661 33.4238C30.6226 33.3551 30.9351 33.3551 31.5603 33.3551H36.9379C41.3928 33.3551 45.0043 36.9666 45.0043 41.4215C45.0043 45.8765 41.3928 49.4879 36.9379 49.4879C32.4829 49.4879 28.8715 45.8765 28.8715 41.4215V36.0439Z" fill="white"/>
<path d="M9.51208 41.4215C9.51208 36.9666 13.1235 33.3551 17.5785 33.3551H22.4183C23.5477 33.3551 24.1124 33.3551 24.5438 33.5749C24.9233 33.7682 25.2318 34.0767 25.4251 34.4562C25.6449 34.8876 25.6449 35.4523 25.6449 36.5817V41.4215C25.6449 45.8765 22.0334 49.4879 17.5785 49.4879C13.1235 49.4879 9.51208 45.8765 9.51208 41.4215Z" fill="white"/>
<path d="M38.6436 15.4933C38.6436 16.6358 38.0246 17.5619 37.261 17.5619C36.4974 17.5619 35.8784 16.6358 35.8784 15.4933C35.8784 14.3509 36.4974 13.4247 37.261 13.4247C38.0246 13.4247 38.6436 14.3509 38.6436 15.4933Z" fill="white"/>
<path d="M45.8332 15.4933C45.8332 16.6358 45.2141 17.5619 44.4506 17.5619C43.687 17.5619 43.068 16.6358 43.068 15.4933C43.068 14.3509 43.687 13.4247 44.4506 13.4247C45.2141 13.4247 45.8332 14.3509 45.8332 15.4933Z" fill="white"/>
<path fill-rule="evenodd" clip-rule="evenodd" d="M34.554 20.1209C34.8095 19.8523 35.1711 19.7261 35.5341 19.7811C36.8016 19.9731 39.4071 20.3376 40.8558 20.3376C42.3045 20.3376 44.91 19.9731 46.1775 19.7811C46.5405 19.7261 46.9021 19.8523 47.1576 20.1209C47.4222 20.3991 47.5607 20.8222 47.4586 21.2714C46.9715 23.4157 44.8548 26.3879 40.8558 26.3879C36.8567 26.3879 34.74 23.4157 34.253 21.2714C34.1509 20.8222 34.2894 20.3991 34.554 20.1209ZM35.4844 21.1307L35.4868 21.1393L35.4928 21.1319L35.4844 21.1307ZM40.8558 25.0434C39.3451 25.0434 38.1733 24.5456 37.3072 23.8497C37.9049 23.0708 39.2688 22.5266 40.8558 22.5266C42.4427 22.5266 43.8067 23.0708 44.4044 23.8497C43.5382 24.5456 42.3665 25.0434 40.8558 25.0434ZM46.2272 21.1307L46.2248 21.1392L46.219 21.1319L46.2272 21.1307Z" fill="white"/>
<path fill-rule="evenodd" clip-rule="evenodd" d="M28.8715 18.1135C28.8715 11.5117 34.237 6.15979 40.8558 6.15979C47.4746 6.15979 52.8402 11.5117 52.8402 18.1135C52.8402 24.7154 47.4746 30.0673 40.8558 30.0673C34.237 30.0673 28.8715 24.7154 28.8715 18.1135ZM40.8558 8.00222C35.2572 8.00222 30.7186 12.5292 30.7186 18.1135C30.7186 23.6978 35.2572 28.2248 40.8558 28.2248C46.4545 28.2248 50.9931 23.6978 50.9931 18.1135C50.9931 12.5292 46.4545 8.00222 40.8558 8.00222Z" fill="white"/>
<path d="M31.1263 30.0251C31.5132 30.1285 31.9847 30.1285 32.9277 30.1285L40.8558 30.0673C34.237 30.0673 28.8715 24.7154 28.8715 18.1135L28.8715 26.0827C28.8715 27.0233 28.8715 27.4936 28.9752 27.8795C29.2565 28.9266 30.0765 29.7446 31.1263 30.0251Z" fill="white"/>
</g>
<defs>
<filter id="filter0_f_420_246" x="-48.8737" y="-10.837" width="154.796" height="97.7237" filterUnits="userSpaceOnUse" color-interpolation-filters="sRGB">
<feFlood flood-opacity="0" result="BackgroundImageFix"/>
<feBlend mode="normal" in="SourceGraphic" in2="BackgroundImageFix" result="shape"/>
<feGaussianBlur stdDeviation="14.0879" result="effect1_foregroundBlur_420_246"/>
</filter>
<filter id="filter1_f_420_246" x="-35.392" y="-10.548" width="154.749" height="97.7237" filterUnits="userSpaceOnUse" color-interpolation-filters="sRGB">
<feFlood flood-opacity="0" result="BackgroundImageFix"/>
<feBlend mode="normal" in="SourceGraphic" in2="BackgroundImageFix" result="shape"/>
<feGaussianBlur stdDeviation="14.0879" result="effect1_foregroundBlur_420_246"/>
</filter>
<filter id="filter2_f_420_246" x="-2.62386" y="-24.2746" width="108.546" height="87.8503" filterUnits="userSpaceOnUse" color-interpolation-filters="sRGB">
<feFlood flood-opacity="0" result="BackgroundImageFix"/>
<feBlend mode="normal" in="SourceGraphic" in2="BackgroundImageFix" result="shape"/>
<feGaussianBlur stdDeviation="14.0879" result="effect1_foregroundBlur_420_246"/>
</filter>
<filter id="filter3_f_420_246" x="-56.0357" y="-28.1757" width="116.551" height="89.1988" filterUnits="userSpaceOnUse" color-interpolation-filters="sRGB">
<feFlood flood-opacity="0" result="BackgroundImageFix"/>
<feBlend mode="normal" in="SourceGraphic" in2="BackgroundImageFix" result="shape"/>
<feGaussianBlur stdDeviation="14.0879" result="effect1_foregroundBlur_420_246"/>
</filter>
<filter id="filter4_f_420_246" x="-4.44833" y="18.3934" width="42.5398" height="32.809" filterUnits="userSpaceOnUse" color-interpolation-filters="sRGB">
<feFlood flood-opacity="0" result="BackgroundImageFix"/>
<feBlend mode="normal" in="SourceGraphic" in2="BackgroundImageFix" result="shape"/>
<feGaussianBlur stdDeviation="6.48042" result="effect1_foregroundBlur_420_246"/>
</filter>
<filter id="filter5_f_420_246" x="-6.00554" y="14.3043" width="59.9318" height="44.7439" filterUnits="userSpaceOnUse" color-interpolation-filters="sRGB">
<feFlood flood-opacity="0" result="BackgroundImageFix"/>
<feBlend mode="normal" in="SourceGraphic" in2="BackgroundImageFix" result="shape"/>
<feGaussianBlur stdDeviation="8.45272" result="effect1_foregroundBlur_420_246"/>
</filter>
<filter id="filter6_f_420_246" x="-5.92963" y="5.39404" width="90.8629" height="59.2894" filterUnits="userSpaceOnUse" color-interpolation-filters="sRGB">
<feFlood flood-opacity="0" result="BackgroundImageFix"/>
<feBlend mode="normal" in="SourceGraphic" in2="BackgroundImageFix" result="shape"/>
<feGaussianBlur stdDeviation="11.2703" result="effect1_foregroundBlur_420_246"/>
</filter>
<filter id="filter7_f_420_246" x="-48.8255" y="-4.62506" width="77.0846" height="66.3862" filterUnits="userSpaceOnUse" color-interpolation-filters="sRGB">
<feFlood flood-opacity="0" result="BackgroundImageFix"/>
<feBlend mode="normal" in="SourceGraphic" in2="BackgroundImageFix" result="shape"/>
<feGaussianBlur stdDeviation="11.2703" result="effect1_foregroundBlur_420_246"/>
</filter>
<clipPath id="clip0_420_246">
<rect width="59" height="59" rx="13" fill="white"/>
</clipPath>
</defs>
</svg>
